<ttFont>
    <TTGlyph name=".notdef" xMin="77" yMin="-220" xMax="810" yMax="1030">
      <contour>
        <pt x="77" y="1030" on="1"/>
        <pt x="810" y="1030" on="1"/>
        <pt x="810" y="-220" on="1"/>
        <pt x="77" y="-220" on="1"/>
      </contour>
      <contour>
        <pt x="648" y="-69" on="1"/>
        <pt x="648" y="879" on="1"/>
        <pt x="240" y="879" on="1"/>
        <pt x="240" y="-69" on="1"/>
      </contour>
    </TTGlyph>
    <TTGlyph name="A" xMin="-3" yMin="0" xMax="809" yMax="740">
      <contour>
        <pt x="-3" y="11" on="1"/>
        <pt x="249" y="740" on="1"/>
        <pt x="556" y="740" on="1"/>
        <pt x="809" y="11" on="1"/>
        <pt x="809" y="0" on="1"/>
        <pt x="606" y="0" on="1"/>
        <pt x="552" y="161" on="1"/>
        <pt x="253" y="161" on="1"/>
        <pt x="200" y="0" on="1"/>
        <pt x="-3" y="0" on="1"/>
      </contour>
      <contour>
        <pt x="503" y="319" on="1"/>
        <pt x="463" y="436" on="1"/>
        <pt x="411" y="600" on="1"/>
        <pt x="393" y="600" on="1"/>
        <pt x="342" y="434" on="1"/>
        <pt x="303" y="319" on="1"/>
      </contour>
    </TTGlyph>
    <TTGlyph name="A.sc" xMin="-1" yMin="0" xMax="743" yMax="577">
      <contour>
        <pt x="-1" y="10" on="1"/>
        <pt x="226" y="577" on="1"/>
        <pt x="517" y="577" on="1"/>
        <pt x="743" y="10" on="1"/>
        <pt x="743" y="0" on="1"/>
        <pt x="550" y="0" on="1"/>
        <pt x="506" y="103" on="1"/>
        <pt x="236" y="103" on="1"/>
        <pt x="192" y="0" on="1"/>
        <pt x="-1" y="0" on="1"/>
      </contour>
      <contour>
        <pt x="466" y="233" on="1"/>
        <pt x="426" y="332" on="1"/>
        <pt x="379" y="445" on="1"/>
        <pt x="362" y="445" on="1"/>
        <pt x="315" y="330" on="1"/>
        <pt x="275" y="233" on="1"/>
      </contour>
    </TTGlyph>
    <TTGlyph name="AE" xMin="-9" yMin="0" xMax="1043" yMax="740">
      <contour>
        <pt x="-9" y="11" on="1"/>
        <pt x="315" y="740" on="1"/>
        <pt x="1025" y="740" on="1"/>
        <pt x="1025" y="583" on="1"/>
        <pt x="691" y="583" on="1"/>
        <pt x="700" y="449" on="1"/>
        <pt x="1012" y="449" on="1"/>
        <pt x="1012" y="292" on="1"/>
        <pt x="711" y="292" on="1"/>
        <pt x="721" y="157" on="1"/>
        <pt x="1043" y="157" on="1"/>
        <pt x="1043" y="0" on="1"/>
        <pt x="512" y="0" on="1"/>
        <pt x="505" y="156" on="1"/>
        <pt x="262" y="156" on="1"/>
        <pt x="193" y="0" on="1"/>
        <pt x="-9" y="0" on="1"/>
      </contour>
      <contour>
        <pt x="335" y="322" on="1"/>
        <pt x="499" y="322" on="1"/>
        <pt x="487" y="599" on="1"/>
        <pt x="458" y="599" on="1"/>
      </contour>
    </TTGlyph>
    <TTGlyph name="AE.sc" xMin="-7" yMin="0" xMax="963" yMax="577">
      <contour>
        <pt x="-7" y="10" on="1"/>
        <pt x="290" y="577" on="1"/>
        <pt x="946" y="577" on="1"/>
        <pt x="946" y="435" on="1"/>
        <pt x="643" y="435" on="1"/>
        <pt x="649" y="350" on="1"/>
        <pt x="935" y="350" on="1"/>
        <pt x="935" y="229" on="1"/>
        <pt x="662" y="229" on="1"/>
        <pt x="671" y="143" on="1"/>
        <pt x="963" y="143" on="1"/>
        <pt x="963" y="0" on="1"/>
        <pt x="472" y="0" on="1"/>
        <pt x="467" y="103" on="1"/>
        <pt x="239" y="103" on="1"/>
        <pt x="185" y="0" on="1"/>
        <pt x="-7" y="0" on="1"/>
      </contour>
      <contour>
        <pt x="308" y="229" on="1"/>
        <pt x="459" y="229" on="1"/>
        <pt x="451" y="446" on="1"/>
        <pt x="424" y="446" on="1"/>
      </contour>
    </TTGlyph>
    <TTGlyph name="AEacute" xMin="-9" yMin="0" xMax="1043" yMax="998">
      <contour>
        <pt x="499" y="816" on="1"/>
        <pt x="563" y="998" on="1"/>
        <pt x="772" y="998" on="1"/>
        <pt x="646" y="807" on="1"/>
      </contour>
      <contour>
        <pt x="-9" y="11" on="1"/>
        <pt x="315" y="740" on="1"/>
        <pt x="1025" y="740" on="1"/>
        <pt x="1025" y="583" on="1"/>
        <pt x="691" y="583" on="1"/>
        <pt x="700" y="449" on="1"/>
        <pt x="1012" y="449" on="1"/>
        <pt x="1012" y="292" on="1"/>
        <pt x="711" y="292" on="1"/>
        <pt x="721" y="157" on="1"/>
        <pt x="1043" y="157" on="1"/>
        <pt x="1043" y="0" on="1"/>
        <pt x="512" y="0" on="1"/>
        <pt x="505" y="156" on="1"/>
        <pt x="262" y="156" on="1"/>
        <pt x="193" y="0" on="1"/>
        <pt x="-9" y="0" on="1"/>
      </contour>
      <contour>
        <pt x="335" y="322" on="1"/>
        <pt x="499" y="322" on="1"/>
        <pt x="487" y="599" on="1"/>
        <pt x="458" y="599" on="1"/>
      </contour>
    </TTGlyph>
    <TTGlyph name="AEacute.sc" xMin="-7" yMin="0" xMax="963" yMax="792">
      <contour>
        <pt x="-7" y="10" on="1"/>
        <pt x="290" y="577" on="1"/>
        <pt x="946" y="577" on="1"/>
        <pt x="946" y="435" on="1"/>
        <pt x="643" y="435" on="1"/>
        <pt x="649" y="350" on="1"/>
        <pt x="935" y="350" on="1"/>
        <pt x="935" y="229" on="1"/>
        <pt x="662" y="229" on="1"/>
        <pt x="671" y="143" on="1"/>
        <pt x="963" y="143" on="1"/>
        <pt x="963" y="0" on="1"/>
        <pt x="472" y="0" on="1"/>
        <pt x="467" y="103" on="1"/>
        <pt x="239" y="103" on="1"/>
        <pt x="185" y="0" on="1"/>
        <pt x="-7" y="0" on="1"/>
      </contour>
      <contour>
        <pt x="459" y="229" on="1"/>
        <pt x="451" y="446" on="1"/>
        <pt x="424" y="446" on="1"/>
        <pt x="308" y="229" on="1"/>
      </contour>
      <contour>
        <pt x="452" y="639" on="1"/>
        <pt x="509" y="792" on="1"/>
        <pt x="708" y="792" on="1"/>
        <pt x="593" y="631" on="1"/>
      </contour>
    </TTGlyph>
    <TTGlyph name="Aacute" xMin="-3" yMin="0" xMax="809" yMax="998">
      <contour>
        <pt x="-3" y="11" on="1"/>
        <pt x="249" y="740" on="1"/>
        <pt x="556" y="740" on="1"/>
        <pt x="809" y="11" on="1"/>
        <pt x="809" y="0" on="1"/>
        <pt x="606" y="0" on="1"/>
        <pt x="552" y="161" on="1"/>
        <pt x="253" y="161" on="1"/>
        <pt x="200" y="0" on="1"/>
        <pt x="-3" y="0" on="1"/>
      </contour>
      <contour>
        <pt x="503" y="319" on="1"/>
        <pt x="463" y="436" on="1"/>
        <pt x="411" y="600" on="1"/>
        <pt x="393" y="600" on="1"/>
        <pt x="342" y="434" on="1"/>
        <pt x="303" y="319" on="1"/>
      </contour>
      <contour>
        <pt x="324" y="816" on="1"/>
        <pt x="388" y="998" on="1"/>
        <pt x="597" y="998" on="1"/>
        <pt x="471" y="807" on="1"/>
      </contour>
    </TTGlyph>
    <TTGlyph name="Aacute.sc" xMin="-1" yMin="0" xMax="743" yMax="792">
      <contour>
        <pt x="-1" y="10" on="1"/>
        <pt x="226" y="577" on="1"/>
        <pt x="517" y="577" on="1"/>
        <pt x="743" y="10" on="1"/>
        <pt x="743" y="0" on="1"/>
        <pt x="550" y="0" on="1"/>
        <pt x="506" y="103" on="1"/>
        <pt x="236" y="103" on="1"/>
        <pt x="192" y="0" on="1"/>
        <pt x="-1" y="0" on="1"/>
      </contour>
      <contour>
        <pt x="464" y="242" on="1"/>
        <pt x="426" y="332" on="1"/>
        <pt x="379" y="445" on="1"/>
        <pt x="362" y="445" on="1"/>
        <pt x="315" y="330" on="1"/>
        <pt x="277" y="242" on="1"/>
      </contour>
      <contour>
        <pt x="297" y="639" on="1"/>
        <pt x="354" y="792" on="1"/>
        <pt x="552" y="792" on="1"/>
        <pt x="436" y="631" on="1"/>
      </contour>
    </TTGlyph>
    <TTGlyph name="Abreve" xMin="-3" yMin="0" xMax="809" yMax="998">
      <contour>
        <pt x="-3" y="11" on="1"/>
        <pt x="249" y="740" on="1"/>
        <pt x="556" y="740" on="1"/>
        <pt x="809" y="11" on="1"/>
        <pt x="809" y="0" on="1"/>
        <pt x="606" y="0" on="1"/>
        <pt x="552" y="161" on="1"/>
        <pt x="253" y="161" on="1"/>
        <pt x="200" y="0" on="1"/>
        <pt x="-3" y="0" on="1"/>
      </contour>
      <contour>
        <pt x="503" y="319" on="1"/>
        <pt x="463" y="436" on="1"/>
        <pt x="411" y="600" on="1"/>
        <pt x="393" y="600" on="1"/>
        <pt x="342" y="434" on="1"/>
        <pt x="303" y="319" on="1"/>
      </contour>
      <contour>
        <pt x="402" y="812" on="1"/>
        <pt x="332" y="812" on="0"/>
        <pt x="239" y="841" on="0"/>
        <pt x="182" y="892" on="0"/>
        <pt x="158" y="959" on="0"/>
        <pt x="158" y="998" on="1"/>
        <pt x="292" y="998" on="1"/>
        <pt x="292" y="955" on="0"/>
        <pt x="338" y="907" on="0"/>
        <pt x="402" y="907" on="1"/>
        <pt x="466" y="907" on="0"/>
        <pt x="512" y="955" on="0"/>
        <pt x="512" y="998" on="1"/>
        <pt x="646" y="998" on="1"/>
        <pt x="646" y="958" on="0"/>
        <pt x="622" y="890" on="0"/>
        <pt x="565" y="840" on="0"/>
        <pt x="472" y="812" on="0"/>
      </contour>
    </TTGlyph>
    <TTGlyph name="Abreve.sc" xMin="-1" yMin="0" xMax="743" yMax="790">
      <contour>
        <pt x="371" y="633" on="1"/>
        <pt x="305" y="633" on="0"/>
        <pt x="218" y="658" on="0"/>
        <pt x="166" y="702" on="0"/>
        <pt x="144" y="758" on="0"/>
        <pt x="144" y="790" on="1"/>
        <pt x="271" y="790" on="1"/>
        <pt x="271" y="758" on="0"/>
        <pt x="312" y="721" on="0"/>
        <pt x="371" y="721" on="1"/>
        <pt x="430" y="721" on="0"/>
        <pt x="471" y="758" on="0"/>
        <pt x="471" y="790" on="1"/>
        <pt x="596" y="790" on="1"/>
        <pt x="596" y="757" on="0"/>
        <pt x="575" y="700" on="0"/>
        <pt x="523" y="657" on="0"/>
        <pt x="436" y="633" on="0"/>
      </contour>
      <contour>
        <pt x="-1" y="10" on="1"/>
        <pt x="226" y="577" on="1"/>
        <pt x="517" y="577" on="1"/>
        <pt x="743" y="10" on="1"/>
        <pt x="743" y="0" on="1"/>
        <pt x="550" y="0" on="1"/>
        <pt x="506" y="103" on="1"/>
        <pt x="236" y="103" on="1"/>
        <pt x="192" y="0" on="1"/>
        <pt x="-1" y="0" on="1"/>
      </contour>
      <contour>
        <pt x="464" y="242" on="1"/>
        <pt x="426" y="332" on="1"/>
        <pt x="379" y="445" on="1"/>
        <pt x="362" y="445" on="1"/>
        <pt x="315" y="330" on="1"/>
        <pt x="277" y="242" on="1"/>
      </contour>
    </TTGlyph>
    <TTGlyph name="Acircumflex" xMin="-3" yMin="0" xMax="809" yMax="1014">
      <contour>
        <pt x="-3" y="11" on="1"/>
        <pt x="249" y="740" on="1"/>
        <pt x="556" y="740" on="1"/>
        <pt x="809" y="11" on="1"/>
        <pt x="809" y="0" on="1"/>
        <pt x="606" y="0" on="1"/>
        <pt x="552" y="161" on="1"/>
        <pt x="253" y="161" on="1"/>
        <pt x="200" y="0" on="1"/>
        <pt x="-3" y="0" on="1"/>
      </contour>
      <contour>
        <pt x="503" y="319" on="1"/>
        <pt x="463" y="436" on="1"/>
        <pt x="411" y="600" on="1"/>
        <pt x="393" y="600" on="1"/>
        <pt x="342" y="434" on="1"/>
        <pt x="303" y="319" on="1"/>
      </contour>
      <contour>
        <pt x="180" y="934" on="1"/>
        <pt x="401" y="1014" on="1"/>
        <pt x="628" y="934" on="1"/>
        <pt x="628" y="800" on="1"/>
        <pt x="404" y="880" on="1"/>
        <pt x="180" y="800" on="1"/>
      </contour>
    </TTGlyph>
    <TTGlyph name="Acircumflex.sc" xMin="-1" yMin="0" xMax="743" yMax="810">
      <contour>
        <pt x="-1" y="10" on="1"/>
        <pt x="226" y="577" on="1"/>
        <pt x="517" y="577" on="1"/>
        <pt x="743" y="10" on="1"/>
        <pt x="743" y="0" on="1"/>
        <pt x="550" y="0" on="1"/>
        <pt x="506" y="103" on="1"/>
        <pt x="236" y="103" on="1"/>
        <pt x="192" y="0" on="1"/>
        <pt x="-1" y="0" on="1"/>
      </contour>
      <contour>
        <pt x="464" y="242" on="1"/>
        <pt x="426" y="332" on="1"/>
        <pt x="379" y="445" on="1"/>
        <pt x="362" y="445" on="1"/>
        <pt x="315" y="330" on="1"/>
        <pt x="277" y="242" on="1"/>
      </contour>
      <contour>
        <pt x="165" y="744" on="1"/>
        <pt x="370" y="810" on="1"/>
        <pt x="580" y="744" on="1"/>
        <pt x="580" y="621" on="1"/>
        <pt x="373" y="685" on="1"/>
        <pt x="165" y="621" on="1"/>
      </contour>
    </TTGlyph>
    <TTGlyph name="Adblgrave" xMin="-3" yMin="0" xMax="809" yMax="996">
      <contour>
        <pt x="-3" y="11" on="1"/>
        <pt x="249" y="740" on="1"/>
        <pt x="556" y="740" on="1"/>
        <pt x="809" y="11" on="1"/>
        <pt x="809" y="0" on="1"/>
        <pt x="606" y="0" on="1"/>
        <pt x="552" y="161" on="1"/>
        <pt x="253" y="161" on="1"/>
        <pt x="200" y="0" on="1"/>
        <pt x="-3" y="0" on="1"/>
      </contour>
      <contour>
        <pt x="503" y="319" on="1"/>
        <pt x="463" y="436" on="1"/>
        <pt x="411" y="600" on="1"/>
        <pt x="393" y="600" on="1"/>
        <pt x="342" y="434" on="1"/>
        <pt x="303" y="319" on="1"/>
      </contour>
      <contour>
        <pt x="198" y="805" on="1"/>
        <pt x="71" y="996" on="1"/>
        <pt x="277" y="996" on="1"/>
        <pt x="340" y="816" on="1"/>
      </contour>
      <contour>
        <pt x="433" y="805" on="1"/>
        <pt x="306" y="996" on="1"/>
        <pt x="512" y="996" on="1"/>
        <pt x="576" y="816" on="1"/>
      </contour>
    </TTGlyph>
    <TTGlyph name="Adblgrave.sc" xMin="-1" yMin="0" xMax="743" yMax="793">
      <contour>
        <pt x="-1" y="10" on="1"/>
        <pt x="226" y="577" on="1"/>
        <pt x="517" y="577" on="1"/>
        <pt x="743" y="10" on="1"/>
        <pt x="743" y="0" on="1"/>
        <pt x="550" y="0" on="1"/>
        <pt x="506" y="103" on="1"/>
        <pt x="236" y="103" on="1"/>
        <pt x="192" y="0" on="1"/>
        <pt x="-1" y="0" on="1"/>
      </contour>
      <contour>
        <pt x="464" y="242" on="1"/>
        <pt x="426" y="332" on="1"/>
        <pt x="379" y="445" on="1"/>
        <pt x="362" y="445" on="1"/>
        <pt x="315" y="330" on="1"/>
        <pt x="277" y="242" on="1"/>
      </contour>
      <contour>
        <pt x="61" y="793" on="1"/>
        <pt x="257" y="793" on="1"/>
        <pt x="313" y="639" on="1"/>
        <pt x="176" y="631" on="1"/>
      </contour>
      <contour>
        <pt x="279" y="793" on="1"/>
        <pt x="477" y="793" on="1"/>
        <pt x="532" y="639" on="1"/>
        <pt x="396" y="631" on="1"/>
      </contour>
    </TTGlyph>
    <TTGlyph name="Adieresis" xMin="-3" yMin="0" xMax="809" yMax="1013">
      <contour>
        <pt x="-3" y="11" on="1"/>
        <pt x="249" y="740" on="1"/>
        <pt x="556" y="740" on="1"/>
        <pt x="809" y="11" on="1"/>
        <pt x="809" y="0" on="1"/>
        <pt x="606" y="0" on="1"/>
        <pt x="552" y="161" on="1"/>
        <pt x="253" y="161" on="1"/>
        <pt x="200" y="0" on="1"/>
        <pt x="-3" y="0" on="1"/>
      </contour>
      <contour>
        <pt x="503" y="319" on="1"/>
        <pt x="463" y="436" on="1"/>
        <pt x="411" y="600" on="1"/>
        <pt x="393" y="600" on="1"/>
        <pt x="342" y="434" on="1"/>
        <pt x="303" y="319" on="1"/>
      </contour>
      <contour>
        <pt x="245" y="799" on="1"/>
        <pt x="185" y="799" on="0"/>
        <pt x="135" y="849" on="0"/>
        <pt x="135" y="906" on="1"/>
        <pt x="135" y="962" on="0"/>
        <pt x="185" y="1013" on="0"/>
        <pt x="245" y="1013" on="1"/>
        <pt x="306" y="1013" on="0"/>
        <pt x="355" y="960" on="0"/>
        <pt x="355" y="906" on="1"/>
        <pt x="355" y="852" on="0"/>
        <pt x="306" y="799" on="0"/>
      </contour>
      <contour>
        <pt x="559" y="799" on="1"/>
        <pt x="499" y="799" on="0"/>
        <pt x="450" y="849" on="0"/>
        <pt x="450" y="906" on="1"/>
        <pt x="450" y="962" on="0"/>
        <pt x="499" y="1013" on="0"/>
        <pt x="559" y="1013" on="1"/>
        <pt x="619" y="1013" on="0"/>
        <pt x="668" y="960" on="0"/>
        <pt x="668" y="906" on="1"/>
        <pt x="668" y="852" on="0"/>
        <pt x="619" y="799" on="0"/>
      </contour>
    </TTGlyph>
    <TTGlyph name="Adieresis.sc" xMin="-1" yMin="0" xMax="743" yMax="814">
      <contour>
        <pt x="227" y="617" on="1"/>
        <pt x="171" y="617" on="0"/>
        <pt x="123" y="663" on="0"/>
        <pt x="123" y="716" on="1"/>
        <pt x="123" y="767" on="0"/>
        <pt x="171" y="814" on="0"/>
        <pt x="227" y="814" on="1"/>
        <pt x="284" y="814" on="0"/>
        <pt x="330" y="765" on="0"/>
        <pt x="330" y="716" on="1"/>
        <pt x="330" y="665" on="0"/>
        <pt x="284" y="617" on="0"/>
      </contour>
      <contour>
        <pt x="514" y="617" on="1"/>
        <pt x="457" y="617" on="0"/>
        <pt x="411" y="663" on="0"/>
        <pt x="411" y="716" on="1"/>
        <pt x="411" y="767" on="0"/>
        <pt x="457" y="814" on="0"/>
        <pt x="514" y="814" on="1"/>
        <pt x="571" y="814" on="0"/>
        <pt x="617" y="765" on="0"/>
        <pt x="617" y="716" on="1"/>
        <pt x="617" y="665" on="0"/>
        <pt x="571" y="617" on="0"/>
      </contour>
      <contour>
        <pt x="-1" y="10" on="1"/>
        <pt x="226" y="577" on="1"/>
        <pt x="517" y="577" on="1"/>
        <pt x="743" y="10" on="1"/>
        <pt x="743" y="0" on="1"/>
        <pt x="550" y="0" on="1"/>
        <pt x="506" y="103" on="1"/>
        <pt x="236" y="103" on="1"/>
        <pt x="192" y="0" on="1"/>
        <pt x="-1" y="0" on="1"/>
      </contour>
      <contour>
        <pt x="464" y="242" on="1"/>
        <pt x="426" y="332" on="1"/>
        <pt x="379" y="445" on="1"/>
        <pt x="362" y="445" on="1"/>
        <pt x="315" y="330" on="1"/>
        <pt x="277" y="242" on="1"/>
      </contour>
    </TTGlyph>
    <TTGlyph name="Agrave" xMin="-3" yMin="0" xMax="809" yMax="998">
      <contour>
        <pt x="-3" y="11" on="1"/>
        <pt x="249" y="740" on="1"/>
        <pt x="556" y="740" on="1"/>
        <pt x="809" y="11" on="1"/>
        <pt x="809" y="0" on="1"/>
        <pt x="606" y="0" on="1"/>
        <pt x="552" y="161" on="1"/>
        <pt x="253" y="161" on="1"/>
        <pt x="200" y="0" on="1"/>
        <pt x="-3" y="0" on="1"/>
      </contour>
      <contour>
        <pt x="503" y="319" on="1"/>
        <pt x="463" y="436" on="1"/>
        <pt x="411" y="600" on="1"/>
        <pt x="393" y="600" on="1"/>
        <pt x="342" y="434" on="1"/>
        <pt x="303" y="319" on="1"/>
      </contour>
      <contour>
        <pt x="310" y="807" on="1"/>
        <pt x="183" y="998" on="1"/>
        <pt x="393" y="998" on="1"/>
        <pt x="457" y="817" on="1"/>
      </contour>
    </TTGlyph>
    <TTGlyph name="Agrave.sc" xMin="-1" yMin="0" xMax="743" yMax="792">
      <contour>
        <pt x="-1" y="10" on="1"/>
        <pt x="226" y="577" on="1"/>
        <pt x="517" y="577" on="1"/>
        <pt x="743" y="10" on="1"/>
        <pt x="743" y="0" on="1"/>
        <pt x="550" y="0" on="1"/>
        <pt x="506" y="103" on="1"/>
        <pt x="236" y="103" on="1"/>
        <pt x="192" y="0" on="1"/>
        <pt x="-1" y="0" on="1"/>
      </contour>
      <contour>
        <pt x="464" y="242" on="1"/>
        <pt x="426" y="332" on="1"/>
        <pt x="379" y="445" on="1"/>
        <pt x="362" y="445" on="1"/>
        <pt x="315" y="330" on="1"/>
        <pt x="277" y="242" on="1"/>
      </contour>
      <contour>
        <pt x="282" y="631" on="1"/>
        <pt x="165" y="792" on="1"/>
        <pt x="365" y="792" on="1"/>
        <pt x="420" y="638" on="1"/>
      </contour>
    </TTGlyph>
    <TTGlyph name="Ainvertedbreve" xMin="-3" yMin="0" xMax="809" yMax="1007">
      <contour>
        <pt x="-3" y="11" on="1"/>
        <pt x="249" y="740" on="1"/>
        <pt x="556" y="740" on="1"/>
        <pt x="809" y="11" on="1"/>
        <pt x="809" y="0" on="1"/>
        <pt x="606" y="0" on="1"/>
        <pt x="552" y="161" on="1"/>
        <pt x="253" y="161" on="1"/>
        <pt x="200" y="0" on="1"/>
        <pt x="-3" y="0" on="1"/>
      </contour>
      <contour>
        <pt x="503" y="319" on="1"/>
        <pt x="463" y="436" on="1"/>
        <pt x="411" y="600" on="1"/>
        <pt x="393" y="600" on="1"/>
        <pt x="342" y="434" on="1"/>
        <pt x="303" y="319" on="1"/>
      </contour>
      <contour>
        <pt x="513" y="820" on="1"/>
        <pt x="513" y="863" on="0"/>
        <pt x="467" y="911" on="0"/>
        <pt x="403" y="911" on="1"/>
        <pt x="339" y="911" on="0"/>
        <pt x="293" y="863" on="0"/>
        <pt x="293" y="820" on="1"/>
        <pt x="159" y="820" on="1"/>
        <pt x="159" y="859" on="0"/>
        <pt x="183" y="927" on="0"/>
        <pt x="240" y="978" on="0"/>
        <pt x="333" y="1007" on="0"/>
        <pt x="403" y="1007" on="1"/>
        <pt x="472" y="1007" on="0"/>
        <pt x="566" y="979" on="0"/>
        <pt x="623" y="929" on="0"/>
        <pt x="647" y="860" on="0"/>
        <pt x="647" y="820" on="1"/>
      </contour>
    </TTGlyph>
    <TTGlyph name="Ainvertedbreve.sc" xMin="-1" yMin="0" xMax="743" yMax="798">
      <contour>
        <pt x="144" y="642" on="1"/>
        <pt x="144" y="673" on="0"/>
        <pt x="166" y="730" on="0"/>
        <pt x="218" y="773" on="0"/>
        <pt x="305" y="798" on="0"/>
        <pt x="371" y="798" on="1"/>
        <pt x="436" y="798" on="0"/>
        <pt x="523" y="774" on="0"/>
        <pt x="575" y="732" on="0"/>
        <pt x="596" y="675" on="0"/>
        <pt x="596" y="642" on="1"/>
        <pt x="471" y="642" on="1"/>
        <pt x="471" y="673" on="0"/>
        <pt x="430" y="710" on="0"/>
        <pt x="371" y="710" on="1"/>
        <pt x="312" y="710" on="0"/>
        <pt x="271" y="673" on="0"/>
        <pt x="271" y="642" on="1"/>
      </contour>
      <contour>
        <pt x="-1" y="10" on="1"/>
        <pt x="226" y="577" on="1"/>
        <pt x="517" y="577" on="1"/>
        <pt x="743" y="10" on="1"/>
        <pt x="743" y="0" on="1"/>
        <pt x="550" y="0" on="1"/>
        <pt x="506" y="103" on="1"/>
        <pt x="236" y="103" on="1"/>
        <pt x="192" y="0" on="1"/>
        <pt x="-1" y="0" on="1"/>
      </contour>
      <contour>
        <pt x="464" y="242" on="1"/>
        <pt x="426" y="332" on="1"/>
        <pt x="379" y="445" on="1"/>
        <pt x="362" y="445" on="1"/>
        <pt x="315" y="330" on="1"/>
        <pt x="277" y="242" on="1"/>
      </contour>
    </TTGlyph>
    <TTGlyph name="Amacron" xMin="-3" yMin="0" xMax="809" yMax="976">
      <contour>
        <pt x="-3" y="11" on="1"/>
        <pt x="249" y="740" on="1"/>
        <pt x="556" y="740" on="1"/>
        <pt x="809" y="11" on="1"/>
        <pt x="809" y="0" on="1"/>
        <pt x="606" y="0" on="1"/>
        <pt x="552" y="161" on="1"/>
        <pt x="253" y="161" on="1"/>
        <pt x="200" y="0" on="1"/>
        <pt x="-3" y="0" on="1"/>
      </contour>
      <contour>
        <pt x="503" y="319" on="1"/>
        <pt x="463" y="436" on="1"/>
        <pt x="411" y="600" on="1"/>
        <pt x="393" y="600" on="1"/>
        <pt x="342" y="434" on="1"/>
        <pt x="303" y="319" on="1"/>
      </contour>
      <contour>
        <pt x="181" y="976" on="1"/>
        <pt x="625" y="976" on="1"/>
        <pt x="625" y="843" on="1"/>
        <pt x="181" y="843" on="1"/>
      </contour>
    </TTGlyph>
    <TTGlyph name="Amacron.sc" xMin="-1" yMin="0" xMax="743" yMax="782">
      <contour>
        <pt x="-1" y="10" on="1"/>
        <pt x="226" y="577" on="1"/>
        <pt x="517" y="577" on="1"/>
        <pt x="743" y="10" on="1"/>
        <pt x="743" y="0" on="1"/>
        <pt x="550" y="0" on="1"/>
        <pt x="506" y="103" on="1"/>
        <pt x="236" y="103" on="1"/>
        <pt x="192" y="0" on="1"/>
        <pt x="-1" y="0" on="1"/>
      </contour>
      <contour>
        <pt x="464" y="242" on="1"/>
        <pt x="426" y="332" on="1"/>
        <pt x="379" y="445" on="1"/>
        <pt x="362" y="445" on="1"/>
        <pt x="315" y="330" on="1"/>
        <pt x="277" y="242" on="1"/>
      </contour>
      <contour>
        <pt x="165" y="782" on="1"/>
        <pt x="577" y="782" on="1"/>
        <pt x="577" y="658" on="1"/>
        <pt x="165" y="658" on="1"/>
      </contour>
    </TTGlyph>
    <TTGlyph name="Aogonek" xMin="-4" yMin="-220" xMax="810" yMax="740">
      <contour>
        <pt x="716" y="-220" on="1"/>
        <pt x="638" y="-220" on="0"/>
        <pt x="553" y="-171" on="0"/>
        <pt x="553" y="-126" on="1"/>
        <pt x="553" y="-93" on="0"/>
        <pt x="601" y="-23" on="0"/>
        <pt x="641" y="0" on="1"/>
        <pt x="605" y="0" on="1"/>
        <pt x="551" y="161" on="1"/>
        <pt x="252" y="161" on="1"/>
        <pt x="199" y="0" on="1"/>
        <pt x="-4" y="0" on="1"/>
        <pt x="-4" y="11" on="1"/>
        <pt x="248" y="740" on="1"/>
        <pt x="555" y="740" on="1"/>
        <pt x="808" y="11" on="1"/>
        <pt x="808" y="-7" on="1"/>
        <pt x="737" y="-36" on="0"/>
        <pt x="683" y="-74" on="0"/>
        <pt x="683" y="-94" on="1"/>
        <pt x="683" y="-116" on="0"/>
        <pt x="712" y="-116" on="1"/>
        <pt x="718" y="-116" on="0"/>
        <pt x="741" y="-114" on="0"/>
        <pt x="768" y="-109" on="0"/>
        <pt x="797" y="-103" on="0"/>
        <pt x="810" y="-100" on="1"/>
        <pt x="810" y="-208" on="1"/>
        <pt x="769" y="-220" on="0"/>
      </contour>
      <contour>
        <pt x="502" y="319" on="1"/>
        <pt x="462" y="436" on="1"/>
        <pt x="410" y="600" on="1"/>
        <pt x="392" y="600" on="1"/>
        <pt x="341" y="434" on="1"/>
        <pt x="302" y="319" on="1"/>
      </contour>
    </TTGlyph>
    <TTGlyph name="Aogonek.sc" xMin="-2" yMin="-172" xMax="744" yMax="577">
      <contour>
        <pt x="657" y="-172" on="1"/>
        <pt x="585" y="-172" on="0"/>
        <pt x="506" y="-130" on="0"/>
        <pt x="506" y="-95" on="1"/>
        <pt x="506" y="-83" on="0"/>
        <pt x="517" y="-54" on="0"/>
        <pt x="537" y="-28" on="0"/>
        <pt x="562" y="-6" on="0"/>
        <pt x="577" y="0" on="1"/>
        <pt x="549" y="0" on="1"/>
        <pt x="505" y="103" on="1"/>
        <pt x="235" y="103" on="1"/>
        <pt x="191" y="0" on="1"/>
        <pt x="-2" y="0" on="1"/>
        <pt x="-2" y="10" on="1"/>
        <pt x="225" y="577" on="1"/>
        <pt x="516" y="577" on="1"/>
        <pt x="742" y="10" on="1"/>
        <pt x="742" y="-4" on="1"/>
        <pt x="703" y="-17" on="0"/>
        <pt x="658" y="-35" on="0"/>
        <pt x="635" y="-48" on="0"/>
        <pt x="629" y="-57" on="0"/>
        <pt x="629" y="-60" on="1"/>
        <pt x="629" y="-69" on="0"/>
        <pt x="639" y="-73" on="0"/>
        <pt x="651" y="-73" on="1"/>
        <pt x="658" y="-73" on="0"/>
        <pt x="682" y="-72" on="0"/>
        <pt x="709" y="-69" on="0"/>
        <pt x="735" y="-65" on="0"/>
        <pt x="744" y="-63" on="1"/>
        <pt x="744" y="-163" on="1"/>
        <pt x="723" y="-168" on="0"/>
        <pt x="678" y="-172" on="0"/>
      </contour>
      <contour>
        <pt x="462" y="242" on="1"/>
        <pt x="425" y="333" on="1"/>
        <pt x="378" y="445" on="1"/>
        <pt x="361" y="445" on="1"/>
        <pt x="314" y="331" on="1"/>
        <pt x="275" y="242" on="1"/>
      </contour>
    </TTGlyph>
    <TTGlyph name="Aring" xMin="-3" yMin="0" xMax="809" yMax="1018">
      <contour>
        <pt x="-3" y="11" on="1"/>
        <pt x="249" y="740" on="1"/>
        <pt x="556" y="740" on="1"/>
        <pt x="809" y="11" on="1"/>
        <pt x="809" y="0" on="1"/>
        <pt x="606" y="0" on="1"/>
        <pt x="552" y="161" on="1"/>
        <pt x="253" y="161" on="1"/>
        <pt x="200" y="0" on="1"/>
        <pt x="-3" y="0" on="1"/>
      </contour>
      <contour>
        <pt x="503" y="319" on="1"/>
        <pt x="463" y="436" on="1"/>
        <pt x="411" y="600" on="1"/>
        <pt x="393" y="600" on="1"/>
        <pt x="342" y="434" on="1"/>
        <pt x="303" y="319" on="1"/>
      </contour>
      <contour>
        <pt x="404" y="783" on="1"/>
        <pt x="373" y="783" on="0"/>
        <pt x="320" y="800" on="0"/>
        <pt x="281" y="831" on="0"/>
        <pt x="259" y="874" on="0"/>
        <pt x="259" y="900" on="1"/>
        <pt x="259" y="926" on="0"/>
        <pt x="281" y="969" on="0"/>
        <pt x="320" y="1001" on="0"/>
        <pt x="373" y="1018" on="0"/>
        <pt x="404" y="1018" on="1"/>
        <pt x="435" y="1018" on="0"/>
        <pt x="487" y="1001" on="0"/>
        <pt x="526" y="969" on="0"/>
        <pt x="548" y="926" on="0"/>
        <pt x="548" y="900" on="1"/>
        <pt x="548" y="874" on="0"/>
        <pt x="526" y="831" on="0"/>
        <pt x="487" y="800" on="0"/>
        <pt x="435" y="783" on="0"/>
      </contour>
      <contour>
        <pt x="404" y="849" on="1"/>
        <pt x="441" y="849" on="0"/>
        <pt x="468" y="874" on="0"/>
        <pt x="468" y="900" on="1"/>
        <pt x="468" y="926" on="0"/>
        <pt x="441" y="952" on="0"/>
        <pt x="404" y="952" on="1"/>
        <pt x="367" y="952" on="0"/>
        <pt x="339" y="926" on="0"/>
        <pt x="339" y="900" on="1"/>
        <pt x="339" y="874" on="0"/>
        <pt x="367" y="849" on="0"/>
      </contour>
    </TTGlyph>
    <TTGlyph name="Aring.sc" xMin="-1" yMin="0" xMax="743" yMax="796">
      <contour>
        <pt x="-1" y="10" on="1"/>
        <pt x="226" y="577" on="1"/>
        <pt x="517" y="577" on="1"/>
        <pt x="743" y="10" on="1"/>
        <pt x="743" y="0" on="1"/>
        <pt x="550" y="0" on="1"/>
        <pt x="506" y="103" on="1"/>
        <pt x="236" y="103" on="1"/>
        <pt x="192" y="0" on="1"/>
        <pt x="-1" y="0" on="1"/>
      </contour>
      <contour>
        <pt x="464" y="242" on="1"/>
        <pt x="426" y="332" on="1"/>
        <pt x="379" y="445" on="1"/>
        <pt x="362" y="445" on="1"/>
        <pt x="315" y="330" on="1"/>
        <pt x="277" y="242" on="1"/>
      </contour>
      <contour>
        <pt x="372" y="608" on="1"/>
        <pt x="344" y="608" on="0"/>
        <pt x="296" y="621" on="0"/>
        <pt x="260" y="645" on="0"/>
        <pt x="240" y="680" on="0"/>
        <pt x="240" y="701" on="1"/>
        <pt x="240" y="722" on="0"/>
        <pt x="260" y="757" on="0"/>
        <pt x="296" y="782" on="0"/>
        <pt x="344" y="796" on="0"/>
        <pt x="372" y="796" on="1"/>
        <pt x="400" y="796" on="0"/>
        <pt x="448" y="782" on="0"/>
        <pt x="484" y="757" on="0"/>
        <pt x="504" y="722" on="0"/>
        <pt x="504" y="701" on="1"/>
        <pt x="504" y="680" on="0"/>
        <pt x="484" y="645" on="0"/>
        <pt x="448" y="621" on="0"/>
        <pt x="400" y="608" on="0"/>
      </contour>
      <contour>
        <pt x="372" y="665" on="1"/>
        <pt x="405" y="665" on="0"/>
        <pt x="429" y="683" on="0"/>
        <pt x="429" y="701" on="1"/>
        <pt x="429" y="720" on="0"/>
        <pt x="405" y="737" on="0"/>
        <pt x="372" y="737" on="1"/>
        <pt x="339" y="737" on="0"/>
        <pt x="315" y="720" on="0"/>
        <pt x="315" y="701" on="1"/>
        <pt x="315" y="683" on="0"/>
        <pt x="339" y="665" on="0"/>
      </contour>
    </TTGlyph>
    <TTGlyph name="Aringacute" xMin="-3" yMin="0" xMax="809" yMax="1021">
      <contour>
        <pt x="-3" y="11" on="1"/>
        <pt x="228" y="680" on="1"/>
        <pt x="199" y="714" on="0"/>
        <pt x="199" y="759" on="1"/>
        <pt x="199" y="815" on="0"/>
        <pt x="277" y="890" on="0"/>
        <pt x="345" y="903" on="1"/>
        <pt x="388" y="1021" on="1"/>
        <pt x="597" y="1021" on="1"/>
        <pt x="510" y="890" on="1"/>
        <pt x="558" y="872" on="0"/>
        <pt x="614" y="804" on="0"/>
        <pt x="614" y="759" on="1"/>
        <pt x="614" y="711" on="0"/>
        <pt x="579" y="673" on="1"/>
        <pt x="809" y="11" on="1"/>
        <pt x="809" y="0" on="1"/>
        <pt x="606" y="0" on="1"/>
        <pt x="554" y="156" on="1"/>
        <pt x="251" y="156" on="1"/>
        <pt x="200" y="0" on="1"/>
        <pt x="-3" y="0" on="1"/>
      </contour>
      <contour>
        <pt x="404" y="701" on="1"/>
        <pt x="445" y="701" on="0"/>
        <pt x="493" y="733" on="0"/>
        <pt x="493" y="759" on="1"/>
        <pt x="493" y="786" on="0"/>
        <pt x="445" y="818" on="0"/>
        <pt x="404" y="818" on="1"/>
        <pt x="366" y="818" on="0"/>
        <pt x="320" y="786" on="0"/>
        <pt x="320" y="759" on="1"/>
        <pt x="320" y="733" on="0"/>
        <pt x="366" y="701" on="0"/>
      </contour>
      <contour>
        <pt x="501" y="322" on="1"/>
        <pt x="463" y="436" on="1"/>
        <pt x="415" y="592" on="1"/>
        <pt x="390" y="592" on="1"/>
        <pt x="342" y="434" on="1"/>
        <pt x="304" y="322" on="1"/>
      </contour>
    </TTGlyph>
    <TTGlyph name="Aringacute.sc" xMin="-1" yMin="0" xMax="744" yMax="808">
      <contour>
        <pt x="-1" y="10" on="1"/>
        <pt x="207" y="534" on="1"/>
        <pt x="182" y="560" on="0"/>
        <pt x="182" y="593" on="1"/>
        <pt x="182" y="639" on="0"/>
        <pt x="253" y="701" on="0"/>
        <pt x="316" y="712" on="1"/>
        <pt x="353" y="808" on="1"/>
        <pt x="552" y="808" on="1"/>
        <pt x="473" y="701" on="1"/>
        <pt x="518" y="685" on="0"/>
        <pt x="569" y="629" on="0"/>
        <pt x="569" y="593" on="1"/>
        <pt x="569" y="574" on="0"/>
        <pt x="551" y="541" on="0"/>
        <pt x="537" y="527" on="1"/>
        <pt x="744" y="10" on="1"/>
        <pt x="744" y="0" on="1"/>
        <pt x="551" y="0" on="1"/>
        <pt x="506" y="103" on="1"/>
        <pt x="236" y="103" on="1"/>
        <pt x="192" y="0" on="1"/>
        <pt x="-1" y="0" on="1"/>
      </contour>
      <contour>
        <pt x="373" y="552" on="1"/>
        <pt x="410" y="552" on="0"/>
        <pt x="454" y="575" on="0"/>
        <pt x="454" y="593" on="1"/>
        <pt x="454" y="613" on="0"/>
        <pt x="410" y="636" on="0"/>
        <pt x="373" y="636" on="1"/>
        <pt x="338" y="636" on="0"/>
        <pt x="297" y="613" on="0"/>
        <pt x="297" y="593" on="1"/>
        <pt x="297" y="574" on="0"/>
        <pt x="339" y="552" on="0"/>
      </contour>
      <contour>
        <pt x="466" y="242" on="1"/>
        <pt x="426" y="332" on="1"/>
        <pt x="381" y="450" on="1"/>
        <pt x="361" y="450" on="1"/>
        <pt x="316" y="330" on="1"/>
        <pt x="279" y="242" on="1"/>
      </contour>
    </TTGlyph>
    <TTGlyph name="Atilde" xMin="-3" yMin="0" xMax="809" yMax="998">
      <contour>
        <pt x="-3" y="11" on="1"/>
        <pt x="249" y="740" on="1"/>
        <pt x="556" y="740" on="1"/>
        <pt x="809" y="11" on="1"/>
        <pt x="809" y="0" on="1"/>
        <pt x="606" y="0" on="1"/>
        <pt x="552" y="161" on="1"/>
        <pt x="253" y="161" on="1"/>
        <pt x="200" y="0" on="1"/>
        <pt x="-3" y="0" on="1"/>
      </contour>
      <contour>
        <pt x="503" y="319" on="1"/>
        <pt x="463" y="436" on="1"/>
        <pt x="411" y="600" on="1"/>
        <pt x="393" y="600" on="1"/>
        <pt x="342" y="434" on="1"/>
        <pt x="303" y="319" on="1"/>
      </contour>
      <contour>
        <pt x="144" y="862" on="1"/>
        <pt x="181" y="931" on="0"/>
        <pt x="276" y="998" on="0"/>
        <pt x="320" y="998" on="1"/>
        <pt x="348" y="998" on="0"/>
        <pt x="404" y="986" on="0"/>
        <pt x="458" y="973" on="0"/>
        <pt x="513" y="961" on="0"/>
        <pt x="542" y="961" on="1"/>
        <pt x="566" y="961" on="0"/>
        <pt x="614" y="975" on="0"/>
        <pt x="646" y="998" on="1"/>
        <pt x="669" y="961" on="1"/>
        <pt x="631" y="893" on="0"/>
        <pt x="534" y="825" on="0"/>
        <pt x="492" y="825" on="1"/>
        <pt x="464" y="825" on="0"/>
        <pt x="409" y="837" on="0"/>
        <pt x="353" y="850" on="0"/>
        <pt x="298" y="862" on="0"/>
        <pt x="270" y="862" on="1"/>
        <pt x="245" y="862" on="0"/>
        <pt x="197" y="848" on="0"/>
        <pt x="168" y="826" on="1"/>
      </contour>
    </TTGlyph>
    <TTGlyph name="Atilde.sc" xMin="-1" yMin="0" xMax="743" yMax="797">
      <contour>
        <pt x="-1" y="10" on="1"/>
        <pt x="226" y="577" on="1"/>
        <pt x="517" y="577" on="1"/>
        <pt x="743" y="10" on="1"/>
        <pt x="743" y="0" on="1"/>
        <pt x="550" y="0" on="1"/>
        <pt x="506" y="103" on="1"/>
        <pt x="236" y="103" on="1"/>
        <pt x="192" y="0" on="1"/>
        <pt x="-1" y="0" on="1"/>
      </contour>
      <contour>
        <pt x="464" y="242" on="1"/>
        <pt x="426" y="332" on="1"/>
        <pt x="379" y="445" on="1"/>
        <pt x="362" y="445" on="1"/>
        <pt x="315" y="330" on="1"/>
        <pt x="277" y="242" on="1"/>
      </contour>
      <contour>
        <pt x="130" y="673" on="1"/>
        <pt x="164" y="735" on="0"/>
        <pt x="253" y="797" on="0"/>
        <pt x="294" y="797" on="1"/>
        <pt x="320" y="797" on="0"/>
        <pt x="371" y="789" on="0"/>
        <pt x="422" y="778" on="0"/>
        <pt x="473" y="770" on="0"/>
        <pt x="499" y="770" on="1"/>
        <pt x="521" y="770" on="0"/>
        <pt x="564" y="780" on="0"/>
        <pt x="594" y="797" on="1"/>
        <pt x="614" y="766" on="1"/>
        <pt x="579" y="703" on="0"/>
        <pt x="490" y="642" on="0"/>
        <pt x="452" y="642" on="1"/>
        <pt x="426" y="642" on="0"/>
        <pt x="374" y="651" on="0"/>
        <pt x="322" y="661" on="0"/>
        <pt x="271" y="670" on="0"/>
        <pt x="245" y="670" on="1"/>
        <pt x="222" y="670" on="0"/>
        <pt x="180" y="659" on="0"/>
        <pt x="152" y="641" on="1"/>
      </contour>
    </TTGlyph>
    <TTGlyph name="B" xMin="70" yMin="-10" xMax="744" yMax="750">
      <contour>
        <pt x="417" y="-10" on="1"/>
        <pt x="330" y="-10" on="0"/>
        <pt x="165" y="-3" on="0"/>
        <pt x="70" y="5" on="1"/>
        <pt x="70" y="735" on="1"/>
        <pt x="153" y="743" on="0"/>
        <pt x="301" y="750" on="0"/>
        <pt x="376" y="750" on="1"/>
        <pt x="555" y="750" on="0"/>
        <pt x="719" y="648" on="0"/>
        <pt x="719" y="539" on="1"/>
        <pt x="719" y="417" on="0"/>
        <pt x="585" y="382" on="1"/>
        <pt x="585" y="378" on="1"/>
        <pt x="663" y="364" on="0"/>
        <pt x="744" y="274" on="0"/>
        <pt x="744" y="203" on="1"/>
        <pt x="744" y="93" on="0"/>
        <pt x="586" y="-10" on="0"/>
      </contour>
      <contour>
        <pt x="403" y="133" on="1"/>
        <pt x="474" y="133" on="0"/>
        <pt x="539" y="177" on="0"/>
        <pt x="539" y="225" on="1"/>
        <pt x="539" y="270" on="0"/>
        <pt x="478" y="310" on="0"/>
        <pt x="407" y="310" on="1"/>
        <pt x="270" y="310" on="1"/>
        <pt x="270" y="137" on="1"/>
        <pt x="278" y="135" on="0"/>
        <pt x="295" y="134" on="0"/>
        <pt x="324" y="133" on="0"/>
        <pt x="368" y="133" on="0"/>
      </contour>
      <contour>
        <pt x="389" y="440" on="1"/>
        <pt x="458" y="440" on="0"/>
        <pt x="515" y="477" on="0"/>
        <pt x="515" y="525" on="1"/>
        <pt x="515" y="571" on="0"/>
        <pt x="456" y="608" on="0"/>
        <pt x="385" y="608" on="1"/>
        <pt x="315" y="608" on="0"/>
        <pt x="270" y="602" on="1"/>
        <pt x="270" y="440" on="1"/>
      </contour>
    </TTGlyph>
    <TTGlyph name="B.sc" xMin="67" yMin="-8" xMax="688" yMax="585">
      <contour>
        <pt x="393" y="-8" on="1"/>
        <pt x="311" y="-8" on="0"/>
        <pt x="156" y="-2" on="0"/>
        <pt x="67" y="4" on="1"/>
        <pt x="67" y="573" on="1"/>
        <pt x="142" y="579" on="0"/>
        <pt x="281" y="585" on="0"/>
        <pt x="351" y="585" on="1"/>
        <pt x="514" y="585" on="0"/>
        <pt x="665" y="504" on="0"/>
        <pt x="665" y="418" on="1"/>
        <pt x="665" y="329" on="0"/>
        <pt x="543" y="299" on="1"/>
        <pt x="543" y="296" on="1"/>
        <pt x="614" y="285" on="0"/>
        <pt x="688" y="215" on="0"/>
        <pt x="688" y="161" on="1"/>
        <pt x="688" y="72" on="0"/>
        <pt x="546" y="-8" on="0"/>
      </contour>
      <contour>
        <pt x="377" y="120" on="1"/>
        <pt x="437" y="120" on="0"/>
        <pt x="493" y="150" on="0"/>
        <pt x="493" y="183" on="1"/>
        <pt x="493" y="214" on="0"/>
        <pt x="441" y="237" on="0"/>
        <pt x="380" y="237" on="1"/>
        <pt x="257" y="237" on="1"/>
        <pt x="257" y="122" on="1"/>
        <pt x="264" y="121" on="0"/>
        <pt x="279" y="120" on="0"/>
        <pt x="304" y="120" on="0"/>
        <pt x="344" y="120" on="0"/>
      </contour>
      <contour>
        <pt x="361" y="348" on="1"/>
        <pt x="422" y="348" on="0"/>
        <pt x="472" y="372" on="0"/>
        <pt x="472" y="403" on="1"/>
        <pt x="472" y="434" on="0"/>
        <pt x="421" y="457" on="0"/>
        <pt x="358" y="457" on="1"/>
        <pt x="328" y="457" on="0"/>
        <pt x="277" y="456" on="0"/>
        <pt x="257" y="453" on="1"/>
        <pt x="257" y="348" on="1"/>
      </contour>
    </TTGlyph>
    <TTGlyph name="C" xMin="37" yMin="-14" xMax="612" yMax="754">
      <contour>
        <pt x="446" y="-14" on="1"/>
        <pt x="237" y="-14" on="0"/>
        <pt x="37" y="173" on="0"/>
        <pt x="37" y="369" on="1"/>
        <pt x="37" y="564" on="0"/>
        <pt x="229" y="754" on="0"/>
        <pt x="427" y="754" on="1"/>
        <pt x="462" y="754" on="0"/>
        <pt x="549" y="747" on="0"/>
        <pt x="612" y="740" on="1"/>
        <pt x="612" y="574" on="1"/>
        <pt x="576" y="578" on="0"/>
        <pt x="527" y="582" on="0"/>
        <pt x="491" y="585" on="0"/>
        <pt x="465" y="586" on="0"/>
        <pt x="451" y="586" on="1"/>
        <pt x="391" y="586" on="0"/>
        <pt x="313" y="567" on="0"/>
        <pt x="268" y="518" on="0"/>
        <pt x="251" y="434" on="0"/>
        <pt x="251" y="369" on="1"/>
        <pt x="251" y="306" on="0"/>
        <pt x="269" y="223" on="0"/>
        <pt x="313" y="174" on="0"/>
        <pt x="389" y="155" on="0"/>
        <pt x="448" y="155" on="1"/>
        <pt x="465" y="155" on="0"/>
        <pt x="510" y="157" on="0"/>
        <pt x="557" y="161" on="0"/>
        <pt x="599" y="166" on="0"/>
        <pt x="612" y="169" on="1"/>
        <pt x="612" y="3" on="1"/>
        <pt x="570" y="-5" on="0"/>
        <pt x="485" y="-14" on="0"/>
      </contour>
    </TTGlyph>
    <TTGlyph name="C.sc" xMin="37" yMin="-13" xMax="562" yMax="589">
      <contour>
        <pt x="414" y="-13" on="1"/>
        <pt x="220" y="-13" on="0"/>
        <pt x="37" y="134" on="0"/>
        <pt x="37" y="288" on="1"/>
        <pt x="37" y="440" on="0"/>
        <pt x="212" y="589" on="0"/>
        <pt x="394" y="589" on="1"/>
        <pt x="432" y="589" on="0"/>
        <pt x="512" y="585" on="0"/>
        <pt x="562" y="580" on="1"/>
        <pt x="562" y="424" on="1"/>
        <pt x="536" y="426" on="0"/>
        <pt x="499" y="429" on="0"/>
        <pt x="467" y="430" on="0"/>
        <pt x="436" y="431" on="0"/>
        <pt x="417" y="431" on="1"/>
        <pt x="360" y="431" on="0"/>
        <pt x="291" y="420" on="0"/>
        <pt x="253" y="389" on="0"/>
        <pt x="241" y="333" on="0"/>
        <pt x="241" y="288" on="1"/>
        <pt x="241" y="244" on="0"/>
        <pt x="254" y="189" on="0"/>
        <pt x="291" y="159" on="0"/>
        <pt x="359" y="148" on="0"/>
        <pt x="414" y="148" on="1"/>
        <pt x="429" y="148" on="0"/>
        <pt x="471" y="149" on="0"/>
        <pt x="513" y="152" on="0"/>
        <pt x="551" y="154" on="0"/>
        <pt x="562" y="156" on="1"/>
        <pt x="562" y="-2" on="1"/>
        <pt x="527" y="-7" on="0"/>
        <pt x="453" y="-13" on="0"/>
      </contour>
    </TTGlyph>
    <TTGlyph name="Cacute" xMin="37" yMin="-14" xMax="612" yMax="998">
      <contour>
        <pt x="446" y="-14" on="1"/>
        <pt x="237" y="-14" on="0"/>
        <pt x="37" y="173" on="0"/>
        <pt x="37" y="369" on="1"/>
        <pt x="37" y="564" on="0"/>
        <pt x="229" y="754" on="0"/>
        <pt x="427" y="754" on="1"/>
        <pt x="462" y="754" on="0"/>
        <pt x="549" y="747" on="0"/>
        <pt x="612" y="740" on="1"/>
        <pt x="612" y="574" on="1"/>
        <pt x="576" y="578" on="0"/>
        <pt x="527" y="582" on="0"/>
        <pt x="491" y="585" on="0"/>
        <pt x="465" y="586" on="0"/>
        <pt x="451" y="586" on="1"/>
        <pt x="391" y="586" on="0"/>
        <pt x="313" y="567" on="0"/>
        <pt x="268" y="518" on="0"/>
        <pt x="251" y="434" on="0"/>
        <pt x="251" y="369" on="1"/>
        <pt x="251" y="306" on="0"/>
        <pt x="269" y="223" on="0"/>
        <pt x="313" y="174" on="0"/>
        <pt x="389" y="155" on="0"/>
        <pt x="448" y="155" on="1"/>
        <pt x="465" y="155" on="0"/>
        <pt x="510" y="157" on="0"/>
        <pt x="557" y="161" on="0"/>
        <pt x="599" y="166" on="0"/>
        <pt x="612" y="169" on="1"/>
        <pt x="612" y="3" on="1"/>
        <pt x="570" y="-5" on="0"/>
        <pt x="485" y="-14" on="0"/>
      </contour>
      <contour>
        <pt x="284" y="816" on="1"/>
        <pt x="348" y="998" on="1"/>
        <pt x="557" y="998" on="1"/>
        <pt x="431" y="807" on="1"/>
      </contour>
    </TTGlyph>
    <TTGlyph name="Cacute.sc" xMin="36" yMin="-13" xMax="561" yMax="792">
      <contour>
        <pt x="413" y="-13" on="1"/>
        <pt x="220" y="-13" on="0"/>
        <pt x="36" y="133" on="0"/>
        <pt x="36" y="288" on="1"/>
        <pt x="36" y="442" on="0"/>
        <pt x="211" y="589" on="0"/>
        <pt x="393" y="589" on="1"/>
        <pt x="424" y="589" on="0"/>
        <pt x="501" y="585" on="0"/>
        <pt x="561" y="580" on="1"/>
        <pt x="561" y="424" on="1"/>
        <pt x="526" y="426" on="0"/>
        <pt x="482" y="429" on="0"/>
        <pt x="451" y="430" on="0"/>
        <pt x="428" y="431" on="0"/>
        <pt x="416" y="431" on="1"/>
        <pt x="362" y="431" on="0"/>
        <pt x="293" y="421" on="0"/>
        <pt x="254" y="391" on="0"/>
        <pt x="240" y="335" on="0"/>
        <pt x="240" y="288" on="1"/>
        <pt x="240" y="243" on="0"/>
        <pt x="254" y="188" on="0"/>
        <pt x="293" y="158" on="0"/>
        <pt x="360" y="148" on="0"/>
        <pt x="413" y="148" on="1"/>
        <pt x="428" y="148" on="0"/>
        <pt x="470" y="149" on="0"/>
        <pt x="512" y="152" on="0"/>
        <pt x="550" y="154" on="0"/>
        <pt x="561" y="156" on="1"/>
        <pt x="561" y="-2" on="1"/>
        <pt x="523" y="-8" on="0"/>
        <pt x="448" y="-13" on="0"/>
      </contour>
      <contour>
        <pt x="258" y="639" on="1"/>
        <pt x="315" y="792" on="1"/>
        <pt x="513" y="792" on="1"/>
        <pt x="398" y="631" on="1"/>
      </contour>
    </TTGlyph>
    <TTGlyph name="Ccaron" xMin="37" yMin="-14" xMax="612" yMax="1014">
      <contour>
        <pt x="446" y="-14" on="1"/>
        <pt x="237" y="-14" on="0"/>
        <pt x="37" y="173" on="0"/>
        <pt x="37" y="369" on="1"/>
        <pt x="37" y="564" on="0"/>
        <pt x="229" y="754" on="0"/>
        <pt x="427" y="754" on="1"/>
        <pt x="462" y="754" on="0"/>
        <pt x="549" y="747" on="0"/>
        <pt x="612" y="740" on="1"/>
        <pt x="612" y="574" on="1"/>
        <pt x="576" y="578" on="0"/>
        <pt x="527" y="582" on="0"/>
        <pt x="491" y="585" on="0"/>
        <pt x="465" y="586" on="0"/>
        <pt x="451" y="586" on="1"/>
        <pt x="391" y="586" on="0"/>
        <pt x="313" y="567" on="0"/>
        <pt x="268" y="518" on="0"/>
        <pt x="251" y="434" on="0"/>
        <pt x="251" y="369" on="1"/>
        <pt x="251" y="306" on="0"/>
        <pt x="269" y="223" on="0"/>
        <pt x="313" y="174" on="0"/>
        <pt x="389" y="155" on="0"/>
        <pt x="448" y="155" on="1"/>
        <pt x="465" y="155" on="0"/>
        <pt x="510" y="157" on="0"/>
        <pt x="557" y="161" on="0"/>
        <pt x="599" y="166" on="0"/>
        <pt x="612" y="169" on="1"/>
        <pt x="612" y="3" on="1"/>
        <pt x="570" y="-5" on="0"/>
        <pt x="485" y="-14" on="0"/>
      </contour>
      <contour>
        <pt x="141" y="1014" on="1"/>
        <pt x="365" y="934" on="1"/>
        <pt x="589" y="1014" on="1"/>
        <pt x="589" y="880" on="1"/>
        <pt x="362" y="800" on="1"/>
        <pt x="141" y="880" on="1"/>
      </contour>
    </TTGlyph>
    <TTGlyph name="Ccaron.sc" xMin="36" yMin="-13" xMax="561" yMax="810">
      <contour>
        <pt x="413" y="-13" on="1"/>
        <pt x="220" y="-13" on="0"/>
        <pt x="36" y="133" on="0"/>
        <pt x="36" y="288" on="1"/>
        <pt x="36" y="442" on="0"/>
        <pt x="211" y="589" on="0"/>
        <pt x="393" y="589" on="1"/>
        <pt x="424" y="589" on="0"/>
        <pt x="501" y="585" on="0"/>
        <pt x="561" y="580" on="1"/>
        <pt x="561" y="424" on="1"/>
        <pt x="526" y="426" on="0"/>
        <pt x="482" y="429" on="0"/>
        <pt x="451" y="430" on="0"/>
        <pt x="428" y="431" on="0"/>
        <pt x="416" y="431" on="1"/>
        <pt x="362" y="431" on="0"/>
        <pt x="293" y="421" on="0"/>
        <pt x="254" y="391" on="0"/>
        <pt x="240" y="335" on="0"/>
        <pt x="240" y="288" on="1"/>
        <pt x="240" y="243" on="0"/>
        <pt x="254" y="188" on="0"/>
        <pt x="293" y="158" on="0"/>
        <pt x="360" y="148" on="0"/>
        <pt x="413" y="148" on="1"/>
        <pt x="428" y="148" on="0"/>
        <pt x="470" y="149" on="0"/>
        <pt x="512" y="152" on="0"/>
        <pt x="550" y="154" on="0"/>
        <pt x="561" y="156" on="1"/>
        <pt x="561" y="-2" on="1"/>
        <pt x="523" y="-8" on="0"/>
        <pt x="448" y="-13" on="0"/>
      </contour>
      <contour>
        <pt x="127" y="810" on="1"/>
        <pt x="335" y="744" on="1"/>
        <pt x="542" y="810" on="1"/>
        <pt x="542" y="686" on="1"/>
        <pt x="332" y="621" on="1"/>
        <pt x="127" y="686" on="1"/>
      </contour>
    </TTGlyph>
    <TTGlyph name="Ccedilla" xMin="37" yMin="-220" xMax="612" yMax="754">
      <contour>
        <pt x="370" y="-220" on="1"/>
        <pt x="344" y="-220" on="0"/>
        <pt x="284" y="-212" on="0"/>
        <pt x="253" y="-208" on="1"/>
        <pt x="253" y="-93" on="1"/>
        <pt x="273" y="-98" on="0"/>
        <pt x="323" y="-105" on="0"/>
        <pt x="343" y="-105" on="1"/>
        <pt x="363" y="-105" on="0"/>
        <pt x="377" y="-93" on="0"/>
        <pt x="377" y="-83" on="1"/>
        <pt x="377" y="-71" on="0"/>
        <pt x="359" y="-32" on="0"/>
        <pt x="339" y="-6" on="1"/>
        <pt x="185" y="16" on="0"/>
        <pt x="37" y="200" on="0"/>
        <pt x="37" y="369" on="1"/>
        <pt x="37" y="564" on="0"/>
        <pt x="229" y="754" on="0"/>
        <pt x="427" y="754" on="1"/>
        <pt x="462" y="754" on="0"/>
        <pt x="549" y="747" on="0"/>
        <pt x="612" y="740" on="1"/>
        <pt x="612" y="574" on="1"/>
        <pt x="576" y="578" on="0"/>
        <pt x="527" y="582" on="0"/>
        <pt x="491" y="585" on="0"/>
        <pt x="465" y="586" on="0"/>
        <pt x="451" y="586" on="1"/>
        <pt x="391" y="586" on="0"/>
        <pt x="313" y="567" on="0"/>
        <pt x="268" y="518" on="0"/>
        <pt x="251" y="434" on="0"/>
        <pt x="251" y="369" on="1"/>
        <pt x="251" y="306" on="0"/>
        <pt x="269" y="223" on="0"/>
        <pt x="313" y="174" on="0"/>
        <pt x="389" y="155" on="0"/>
        <pt x="448" y="155" on="1"/>
        <pt x="465" y="155" on="0"/>
        <pt x="510" y="157" on="0"/>
        <pt x="557" y="161" on="0"/>
        <pt x="599" y="166" on="0"/>
        <pt x="612" y="169" on="1"/>
        <pt x="612" y="3" on="1"/>
        <pt x="538" y="-11" on="0"/>
        <pt x="467" y="-14" on="1"/>
        <pt x="490" y="-43" on="0"/>
        <pt x="507" y="-84" on="0"/>
        <pt x="507" y="-107" on="1"/>
        <pt x="507" y="-161" on="0"/>
        <pt x="433" y="-220" on="0"/>
      </contour>
    </TTGlyph>
    <TTGlyph name="Ccedilla.sc" xMin="37" yMin="-172" xMax="562" yMax="589">
      <contour>
        <pt x="344" y="-172" on="1"/>
        <pt x="321" y="-172" on="0"/>
        <pt x="265" y="-165" on="0"/>
        <pt x="237" y="-162" on="1"/>
        <pt x="237" y="-56" on="1"/>
        <pt x="256" y="-60" on="0"/>
        <pt x="301" y="-66" on="0"/>
        <pt x="321" y="-66" on="1"/>
        <pt x="338" y="-66" on="0"/>
        <pt x="348" y="-62" on="0"/>
        <pt x="348" y="-60" on="1"/>
        <pt x="348" y="-47" on="0"/>
        <pt x="321" y="-8" on="1"/>
        <pt x="175" y="7" on="0"/>
        <pt x="37" y="152" on="0"/>
        <pt x="37" y="288" on="1"/>
        <pt x="37" y="442" on="0"/>
        <pt x="212" y="589" on="0"/>
        <pt x="394" y="589" on="1"/>
        <pt x="425" y="589" on="0"/>
        <pt x="502" y="585" on="0"/>
        <pt x="562" y="580" on="1"/>
        <pt x="562" y="424" on="1"/>
        <pt x="527" y="426" on="0"/>
        <pt x="483" y="429" on="0"/>
        <pt x="452" y="430" on="0"/>
        <pt x="429" y="431" on="0"/>
        <pt x="417" y="431" on="1"/>
        <pt x="363" y="431" on="0"/>
        <pt x="294" y="421" on="0"/>
        <pt x="255" y="391" on="0"/>
        <pt x="241" y="335" on="0"/>
        <pt x="241" y="288" on="1"/>
        <pt x="241" y="243" on="0"/>
        <pt x="255" y="188" on="0"/>
        <pt x="294" y="158" on="0"/>
        <pt x="361" y="148" on="0"/>
        <pt x="414" y="148" on="1"/>
        <pt x="429" y="148" on="0"/>
        <pt x="471" y="149" on="0"/>
        <pt x="513" y="152" on="0"/>
        <pt x="551" y="154" on="0"/>
        <pt x="562" y="156" on="1"/>
        <pt x="562" y="-2" on="1"/>
        <pt x="531" y="-7" on="0"/>
        <pt x="468" y="-12" on="0"/>
        <pt x="439" y="-13" on="1"/>
        <pt x="457" y="-34" on="0"/>
        <pt x="470" y="-66" on="0"/>
        <pt x="470" y="-83" on="1"/>
        <pt x="470" y="-126" on="0"/>
        <pt x="401" y="-172" on="0"/>
      </contour>
    </TTGlyph>
    <TTGlyph name="Ccircumflex" xMin="37" yMin="-14" xMax="612" yMax="1014">
      <contour>
        <pt x="446" y="-14" on="1"/>
        <pt x="237" y="-14" on="0"/>
        <pt x="37" y="173" on="0"/>
        <pt x="37" y="369" on="1"/>
        <pt x="37" y="564" on="0"/>
        <pt x="229" y="754" on="0"/>
        <pt x="427" y="754" on="1"/>
        <pt x="462" y="754" on="0"/>
        <pt x="549" y="747" on="0"/>
        <pt x="612" y="740" on="1"/>
        <pt x="612" y="574" on="1"/>
        <pt x="576" y="578" on="0"/>
        <pt x="527" y="582" on="0"/>
        <pt x="491" y="585" on="0"/>
        <pt x="465" y="586" on="0"/>
        <pt x="451" y="586" on="1"/>
        <pt x="391" y="586" on="0"/>
        <pt x="313" y="567" on="0"/>
        <pt x="268" y="518" on="0"/>
        <pt x="251" y="434" on="0"/>
        <pt x="251" y="369" on="1"/>
        <pt x="251" y="306" on="0"/>
        <pt x="269" y="223" on="0"/>
        <pt x="313" y="174" on="0"/>
        <pt x="389" y="155" on="0"/>
        <pt x="448" y="155" on="1"/>
        <pt x="465" y="155" on="0"/>
        <pt x="510" y="157" on="0"/>
        <pt x="557" y="161" on="0"/>
        <pt x="599" y="166" on="0"/>
        <pt x="612" y="169" on="1"/>
        <pt x="612" y="3" on="1"/>
        <pt x="570" y="-5" on="0"/>
        <pt x="485" y="-14" on="0"/>
      </contour>
      <contour>
        <pt x="139" y="934" on="1"/>
        <pt x="360" y="1014" on="1"/>
        <pt x="587" y="934" on="1"/>
        <pt x="587" y="800" on="1"/>
        <pt x="363" y="880" on="1"/>
        <pt x="139" y="800" on="1"/>
      </contour>
    </TTGlyph>
    <TTGlyph name="Ccircumflex.sc" xMin="36" yMin="-13" xMax="561" yMax="810">
      <contour>
        <pt x="413" y="-13" on="1"/>
        <pt x="220" y="-13" on="0"/>
        <pt x="36" y="133" on="0"/>
        <pt x="36" y="288" on="1"/>
        <pt x="36" y="442" on="0"/>
        <pt x="211" y="589" on="0"/>
        <pt x="393" y="589" on="1"/>
        <pt x="424" y="589" on="0"/>
        <pt x="501" y="585" on="0"/>
        <pt x="561" y="580" on="1"/>
        <pt x="561" y="424" on="1"/>
        <pt x="526" y="426" on="0"/>
        <pt x="482" y="429" on="0"/>
        <pt x="451" y="430" on="0"/>
        <pt x="428" y="431" on="0"/>
        <pt x="416" y="431" on="1"/>
        <pt x="362" y="431" on="0"/>
        <pt x="293" y="421" on="0"/>
        <pt x="254" y="391" on="0"/>
        <pt x="240" y="335" on="0"/>
        <pt x="240" y="288" on="1"/>
        <pt x="240" y="243" on="0"/>
        <pt x="254" y="188" on="0"/>
        <pt x="293" y="158" on="0"/>
        <pt x="360" y="148" on="0"/>
        <pt x="413" y="148" on="1"/>
        <pt x="428" y="148" on="0"/>
        <pt x="470" y="149" on="0"/>
        <pt x="512" y="152" on="0"/>
        <pt x="550" y="154" on="0"/>
        <pt x="561" y="156" on="1"/>
        <pt x="561" y="-2" on="1"/>
        <pt x="523" y="-8" on="0"/>
        <pt x="448" y="-13" on="0"/>
      </contour>
      <contour>
        <pt x="125" y="744" on="1"/>
        <pt x="330" y="810" on="1"/>
        <pt x="541" y="744" on="1"/>
        <pt x="541" y="621" on="1"/>
        <pt x="333" y="685" on="1"/>
        <pt x="125" y="621" on="1"/>
      </contour>
    </TTGlyph>
    <TTGlyph name="Cdotaccent" xMin="37" yMin="-14" xMax="612" yMax="1012">
      <contour>
        <pt x="388" y="799" on="1"/>
        <pt x="328" y="799" on="0"/>
        <pt x="278" y="848" on="0"/>
        <pt x="278" y="905" on="1"/>
        <pt x="278" y="961" on="0"/>
        <pt x="328" y="1012" on="0"/>
        <pt x="388" y="1012" on="1"/>
        <pt x="449" y="1012" on="0"/>
        <pt x="498" y="959" on="0"/>
        <pt x="498" y="905" on="1"/>
        <pt x="498" y="851" on="0"/>
        <pt x="449" y="799" on="0"/>
      </contour>
      <contour>
        <pt x="446" y="-14" on="1"/>
        <pt x="237" y="-14" on="0"/>
        <pt x="37" y="173" on="0"/>
        <pt x="37" y="369" on="1"/>
        <pt x="37" y="564" on="0"/>
        <pt x="229" y="754" on="0"/>
        <pt x="427" y="754" on="1"/>
        <pt x="462" y="754" on="0"/>
        <pt x="549" y="747" on="0"/>
        <pt x="612" y="740" on="1"/>
        <pt x="612" y="574" on="1"/>
        <pt x="576" y="578" on="0"/>
        <pt x="527" y="582" on="0"/>
        <pt x="491" y="585" on="0"/>
        <pt x="465" y="586" on="0"/>
        <pt x="451" y="586" on="1"/>
        <pt x="391" y="586" on="0"/>
        <pt x="313" y="567" on="0"/>
        <pt x="268" y="518" on="0"/>
        <pt x="251" y="434" on="0"/>
        <pt x="251" y="369" on="1"/>
        <pt x="251" y="306" on="0"/>
        <pt x="269" y="223" on="0"/>
        <pt x="313" y="174" on="0"/>
        <pt x="389" y="155" on="0"/>
        <pt x="448" y="155" on="1"/>
        <pt x="465" y="155" on="0"/>
        <pt x="510" y="157" on="0"/>
        <pt x="557" y="161" on="0"/>
        <pt x="599" y="166" on="0"/>
        <pt x="612" y="169" on="1"/>
        <pt x="612" y="3" on="1"/>
        <pt x="570" y="-5" on="0"/>
        <pt x="485" y="-14" on="0"/>
      </contour>
    </TTGlyph>
    <TTGlyph name="Cdotaccent.sc" xMin="36" yMin="-13" xMax="561" yMax="814">
      <contour>
        <pt x="413" y="-13" on="1"/>
        <pt x="220" y="-13" on="0"/>
        <pt x="36" y="133" on="0"/>
        <pt x="36" y="288" on="1"/>
        <pt x="36" y="442" on="0"/>
        <pt x="211" y="589" on="0"/>
        <pt x="393" y="589" on="1"/>
        <pt x="424" y="589" on="0"/>
        <pt x="501" y="585" on="0"/>
        <pt x="561" y="580" on="1"/>
        <pt x="561" y="424" on="1"/>
        <pt x="526" y="426" on="0"/>
        <pt x="482" y="429" on="0"/>
        <pt x="451" y="430" on="0"/>
        <pt x="428" y="431" on="0"/>
        <pt x="416" y="431" on="1"/>
        <pt x="362" y="431" on="0"/>
        <pt x="293" y="421" on="0"/>
        <pt x="254" y="391" on="0"/>
        <pt x="240" y="335" on="0"/>
        <pt x="240" y="288" on="1"/>
        <pt x="240" y="243" on="0"/>
        <pt x="254" y="188" on="0"/>
        <pt x="293" y="158" on="0"/>
        <pt x="360" y="148" on="0"/>
        <pt x="413" y="148" on="1"/>
        <pt x="428" y="148" on="0"/>
        <pt x="470" y="149" on="0"/>
        <pt x="512" y="152" on="0"/>
        <pt x="550" y="154" on="0"/>
        <pt x="561" y="156" on="1"/>
        <pt x="561" y="-2" on="1"/>
        <pt x="523" y="-8" on="0"/>
        <pt x="448" y="-13" on="0"/>
      </contour>
      <contour>
        <pt x="358" y="617" on="1"/>
        <pt x="302" y="617" on="0"/>
        <pt x="254" y="663" on="0"/>
        <pt x="254" y="716" on="1"/>
        <pt x="254" y="767" on="0"/>
        <pt x="302" y="814" on="0"/>
        <pt x="358" y="814" on="1"/>
        <pt x="415" y="814" on="0"/>
        <pt x="461" y="765" on="0"/>
        <pt x="461" y="716" on="1"/>
        <pt x="461" y="666" on="0"/>
        <pt x="415" y="617" on="0"/>
      </contour>
    </TTGlyph>
    <TTGlyph name="D" xMin="70" yMin="-10" xMax="800" yMax="750">
      <contour>
        <pt x="310" y="-10" on="1"/>
        <pt x="275" y="-10" on="0"/>
        <pt x="206" y="-8" on="0"/>
        <pt x="143" y="-5" on="0"/>
        <pt x="89" y="1" on="0"/>
        <pt x="70" y="4" on="1"/>
        <pt x="70" y="738" on="1"/>
        <pt x="259" y="750" on="0"/>
        <pt x="360" y="750" on="1"/>
        <pt x="588" y="750" on="0"/>
        <pt x="800" y="567" on="0"/>
        <pt x="800" y="369" on="1"/>
        <pt x="800" y="267" on="0"/>
        <pt x="746" y="124" on="0"/>
        <pt x="628" y="32" on="0"/>
        <pt x="442" y="-10" on="0"/>
      </contour>
      <contour>
        <pt x="395" y="153" on="1"/>
        <pt x="449" y="153" on="0"/>
        <pt x="522" y="175" on="0"/>
        <pt x="567" y="225" on="0"/>
        <pt x="587" y="308" on="0"/>
        <pt x="587" y="369" on="1"/>
        <pt x="587" y="429" on="0"/>
        <pt x="566" y="512" on="0"/>
        <pt x="520" y="563" on="0"/>
        <pt x="444" y="586" on="0"/>
        <pt x="390" y="586" on="1"/>
        <pt x="370" y="586" on="0"/>
        <pt x="317" y="583" on="0"/>
        <pt x="279" y="580" on="1"/>
        <pt x="279" y="162" on="1"/>
        <pt x="305" y="157" on="0"/>
        <pt x="364" y="153" on="0"/>
      </contour>
    </TTGlyph>
    <TTGlyph name="D.sc" xMin="68" yMin="-8" xMax="738" yMax="585">
      <contour>
        <pt x="339" y="-8" on="1"/>
        <pt x="302" y="-8" on="0"/>
        <pt x="224" y="-7" on="0"/>
        <pt x="152" y="-4" on="0"/>
        <pt x="89" y="0" on="0"/>
        <pt x="68" y="2" on="1"/>
        <pt x="68" y="575" on="1"/>
        <pt x="153" y="580" on="0"/>
        <pt x="286" y="585" on="0"/>
        <pt x="337" y="585" on="1"/>
        <pt x="542" y="585" on="0"/>
        <pt x="738" y="439" on="0"/>
        <pt x="738" y="287" on="1"/>
        <pt x="738" y="135" on="0"/>
        <pt x="544" y="-8" on="0"/>
      </contour>
      <contour>
        <pt x="370" y="146" on="1"/>
        <pt x="418" y="146" on="0"/>
        <pt x="482" y="159" on="0"/>
        <pt x="520" y="192" on="0"/>
        <pt x="536" y="246" on="0"/>
        <pt x="536" y="287" on="1"/>
        <pt x="536" y="327" on="0"/>
        <pt x="519" y="382" on="0"/>
        <pt x="479" y="415" on="0"/>
        <pt x="414" y="430" on="0"/>
        <pt x="366" y="430" on="1"/>
        <pt x="346" y="430" on="0"/>
        <pt x="300" y="429" on="0"/>
        <pt x="266" y="427" on="1"/>
        <pt x="266" y="152" on="1"/>
        <pt x="286" y="149" on="0"/>
        <pt x="340" y="146" on="0"/>
      </contour>
    </TTGlyph>
    <TTGlyph name="Dcaron" xMin="70" yMin="-10" xMax="800" yMax="1014">
      <contour>
        <pt x="190" y="1014" on="1"/>
        <pt x="414" y="934" on="1"/>
        <pt x="638" y="1014" on="1"/>
        <pt x="638" y="880" on="1"/>
        <pt x="411" y="800" on="1"/>
        <pt x="190" y="880" on="1"/>
      </contour>
      <contour>
        <pt x="310" y="-10" on="1"/>
        <pt x="275" y="-10" on="0"/>
        <pt x="206" y="-8" on="0"/>
        <pt x="143" y="-5" on="0"/>
        <pt x="89" y="1" on="0"/>
        <pt x="70" y="4" on="1"/>
        <pt x="70" y="738" on="1"/>
        <pt x="259" y="750" on="0"/>
        <pt x="360" y="750" on="1"/>
        <pt x="588" y="750" on="0"/>
        <pt x="800" y="567" on="0"/>
        <pt x="800" y="369" on="1"/>
        <pt x="800" y="267" on="0"/>
        <pt x="746" y="124" on="0"/>
        <pt x="628" y="32" on="0"/>
        <pt x="442" y="-10" on="0"/>
      </contour>
      <contour>
        <pt x="395" y="153" on="1"/>
        <pt x="449" y="153" on="0"/>
        <pt x="522" y="175" on="0"/>
        <pt x="567" y="225" on="0"/>
        <pt x="587" y="308" on="0"/>
        <pt x="587" y="369" on="1"/>
        <pt x="587" y="429" on="0"/>
        <pt x="566" y="512" on="0"/>
        <pt x="520" y="563" on="0"/>
        <pt x="444" y="586" on="0"/>
        <pt x="390" y="586" on="1"/>
        <pt x="370" y="586" on="0"/>
        <pt x="317" y="583" on="0"/>
        <pt x="279" y="580" on="1"/>
        <pt x="279" y="162" on="1"/>
        <pt x="305" y="157" on="0"/>
        <pt x="364" y="153" on="0"/>
      </contour>
    </TTGlyph>
    <TTGlyph name="Dcaron.sc" xMin="68" yMin="-8" xMax="738" yMax="810">
      <contour>
        <pt x="339" y="-8" on="1"/>
        <pt x="302" y="-8" on="0"/>
        <pt x="224" y="-7" on="0"/>
        <pt x="152" y="-4" on="0"/>
        <pt x="89" y="0" on="0"/>
        <pt x="68" y="2" on="1"/>
        <pt x="68" y="575" on="1"/>
        <pt x="153" y="580" on="0"/>
        <pt x="286" y="585" on="0"/>
        <pt x="337" y="585" on="1"/>
        <pt x="542" y="585" on="0"/>
        <pt x="738" y="439" on="0"/>
        <pt x="738" y="287" on="1"/>
        <pt x="738" y="135" on="0"/>
        <pt x="544" y="-8" on="0"/>
      </contour>
      <contour>
        <pt x="370" y="146" on="1"/>
        <pt x="418" y="146" on="0"/>
        <pt x="482" y="159" on="0"/>
        <pt x="520" y="192" on="0"/>
        <pt x="536" y="246" on="0"/>
        <pt x="536" y="287" on="1"/>
        <pt x="536" y="327" on="0"/>
        <pt x="519" y="382" on="0"/>
        <pt x="479" y="415" on="0"/>
        <pt x="414" y="430" on="0"/>
        <pt x="366" y="430" on="1"/>
        <pt x="346" y="430" on="0"/>
        <pt x="300" y="429" on="0"/>
        <pt x="266" y="427" on="1"/>
        <pt x="266" y="152" on="1"/>
        <pt x="286" y="149" on="0"/>
        <pt x="340" y="146" on="0"/>
      </contour>
      <contour>
        <pt x="180" y="686" on="1"/>
        <pt x="180" y="810" on="1"/>
        <pt x="388" y="744" on="1"/>
        <pt x="596" y="810" on="1"/>
        <pt x="596" y="686" on="1"/>
        <pt x="385" y="621" on="1"/>
      </contour>
    </TTGlyph>
    <TTGlyph name="Dcroat" xMin="5" yMin="-10" xMax="825" yMax="750">
      <contour>
        <pt x="5" y="452" on="1"/>
        <pt x="95" y="452" on="1"/>
        <pt x="95" y="738" on="1"/>
        <pt x="284" y="750" on="0"/>
        <pt x="385" y="750" on="1"/>
        <pt x="613" y="750" on="0"/>
        <pt x="825" y="567" on="0"/>
        <pt x="825" y="369" on="1"/>
        <pt x="825" y="267" on="0"/>
        <pt x="771" y="124" on="0"/>
        <pt x="653" y="32" on="0"/>
        <pt x="467" y="-10" on="0"/>
        <pt x="335" y="-10" on="1"/>
        <pt x="300" y="-10" on="0"/>
        <pt x="231" y="-8" on="0"/>
        <pt x="168" y="-5" on="0"/>
        <pt x="114" y="1" on="0"/>
        <pt x="95" y="4" on="1"/>
        <pt x="95" y="296" on="1"/>
        <pt x="5" y="296" on="1"/>
      </contour>
      <contour>
        <pt x="420" y="153" on="1"/>
        <pt x="474" y="153" on="0"/>
        <pt x="547" y="175" on="0"/>
        <pt x="592" y="225" on="0"/>
        <pt x="612" y="308" on="0"/>
        <pt x="612" y="369" on="1"/>
        <pt x="612" y="429" on="0"/>
        <pt x="591" y="512" on="0"/>
        <pt x="545" y="563" on="0"/>
        <pt x="469" y="586" on="0"/>
        <pt x="415" y="586" on="1"/>
        <pt x="395" y="586" on="0"/>
        <pt x="342" y="583" on="0"/>
        <pt x="304" y="580" on="1"/>
        <pt x="304" y="452" on="1"/>
        <pt x="420" y="452" on="1"/>
        <pt x="420" y="296" on="1"/>
        <pt x="304" y="296" on="1"/>
        <pt x="304" y="162" on="1"/>
        <pt x="330" y="157" on="0"/>
        <pt x="389" y="153" on="0"/>
      </contour>
    </TTGlyph>
    <TTGlyph name="Dcroat.sc" xMin="15" yMin="-8" xMax="765" yMax="585">
      <contour>
        <pt x="15" y="366" on="1"/>
        <pt x="95" y="366" on="1"/>
        <pt x="95" y="575" on="1"/>
        <pt x="186" y="580" on="0"/>
        <pt x="317" y="585" on="0"/>
        <pt x="365" y="585" on="1"/>
        <pt x="572" y="585" on="0"/>
        <pt x="765" y="441" on="0"/>
        <pt x="765" y="287" on="1"/>
        <pt x="765" y="207" on="0"/>
        <pt x="715" y="95" on="0"/>
        <pt x="607" y="24" on="0"/>
        <pt x="436" y="-8" on="0"/>
        <pt x="315" y="-8" on="1"/>
        <pt x="283" y="-8" on="0"/>
        <pt x="219" y="-7" on="0"/>
        <pt x="161" y="-4" on="0"/>
        <pt x="111" y="0" on="0"/>
        <pt x="95" y="2" on="1"/>
        <pt x="95" y="220" on="1"/>
        <pt x="15" y="220" on="1"/>
      </contour>
      <contour>
        <pt x="397" y="146" on="1"/>
        <pt x="445" y="146" on="0"/>
        <pt x="509" y="159" on="0"/>
        <pt x="548" y="191" on="0"/>
        <pt x="564" y="245" on="0"/>
        <pt x="564" y="287" on="1"/>
        <pt x="564" y="327" on="0"/>
        <pt x="546" y="382" on="0"/>
        <pt x="506" y="416" on="0"/>
        <pt x="441" y="430" on="0"/>
        <pt x="393" y="430" on="1"/>
        <pt x="376" y="430" on="0"/>
        <pt x="329" y="429" on="0"/>
        <pt x="293" y="427" on="1"/>
        <pt x="293" y="366" on="1"/>
        <pt x="392" y="366" on="1"/>
        <pt x="392" y="220" on="1"/>
        <pt x="293" y="220" on="1"/>
        <pt x="293" y="152" on="1"/>
        <pt x="314" y="149" on="0"/>
        <pt x="370" y="146" on="0"/>
      </contour>
    </TTGlyph>
    <TTGlyph name="Ddotbelow" xMin="70" yMin="-213" xMax="800" yMax="750">
      <contour>
        <pt x="407" y="-213" on="1"/>
        <pt x="362" y="-213" on="0"/>
        <pt x="323" y="-175" on="0"/>
        <pt x="323" y="-133" on="1"/>
        <pt x="323" y="-90" on="0"/>
        <pt x="362" y="-52" on="0"/>
        <pt x="407" y="-52" on="1"/>
        <pt x="455" y="-52" on="0"/>
        <pt x="491" y="-92" on="0"/>
        <pt x="491" y="-133" on="1"/>
        <pt x="491" y="-174" on="0"/>
        <pt x="455" y="-213" on="0"/>
      </contour>
      <contour>
        <pt x="310" y="-10" on="1"/>
        <pt x="275" y="-10" on="0"/>
        <pt x="206" y="-8" on="0"/>
        <pt x="143" y="-5" on="0"/>
        <pt x="89" y="1" on="0"/>
        <pt x="70" y="4" on="1"/>
        <pt x="70" y="738" on="1"/>
        <pt x="259" y="750" on="0"/>
        <pt x="360" y="750" on="1"/>
        <pt x="588" y="750" on="0"/>
        <pt x="800" y="567" on="0"/>
        <pt x="800" y="369" on="1"/>
        <pt x="800" y="267" on="0"/>
        <pt x="746" y="124" on="0"/>
        <pt x="628" y="32" on="0"/>
        <pt x="442" y="-10" on="0"/>
      </contour>
      <contour>
        <pt x="395" y="153" on="1"/>
        <pt x="449" y="153" on="0"/>
        <pt x="522" y="175" on="0"/>
        <pt x="567" y="225" on="0"/>
        <pt x="587" y="308" on="0"/>
        <pt x="587" y="369" on="1"/>
        <pt x="587" y="429" on="0"/>
        <pt x="566" y="512" on="0"/>
        <pt x="520" y="563" on="0"/>
        <pt x="444" y="586" on="0"/>
        <pt x="390" y="586" on="1"/>
        <pt x="370" y="586" on="0"/>
        <pt x="317" y="583" on="0"/>
        <pt x="279" y="580" on="1"/>
        <pt x="279" y="162" on="1"/>
        <pt x="305" y="157" on="0"/>
        <pt x="364" y="153" on="0"/>
      </contour>
    </TTGlyph>
    <TTGlyph name="Ddotbelow.sc" xMin="68" yMin="-175" xMax="738" yMax="585">
      <contour>
        <pt x="339" y="-8" on="1"/>
        <pt x="302" y="-8" on="0"/>
        <pt x="224" y="-7" on="0"/>
        <pt x="152" y="-4" on="0"/>
        <pt x="89" y="0" on="0"/>
        <pt x="68" y="2" on="1"/>
        <pt x="68" y="575" on="1"/>
        <pt x="153" y="580" on="0"/>
        <pt x="286" y="585" on="0"/>
        <pt x="337" y="585" on="1"/>
        <pt x="542" y="585" on="0"/>
        <pt x="738" y="439" on="0"/>
        <pt x="738" y="287" on="1"/>
        <pt x="738" y="135" on="0"/>
        <pt x="544" y="-8" on="0"/>
      </contour>
      <contour>
        <pt x="370" y="146" on="1"/>
        <pt x="418" y="146" on="0"/>
        <pt x="482" y="159" on="0"/>
        <pt x="520" y="192" on="0"/>
        <pt x="536" y="246" on="0"/>
        <pt x="536" y="287" on="1"/>
        <pt x="536" y="327" on="0"/>
        <pt x="519" y="382" on="0"/>
        <pt x="479" y="415" on="0"/>
        <pt x="414" y="430" on="0"/>
        <pt x="366" y="430" on="1"/>
        <pt x="346" y="430" on="0"/>
        <pt x="300" y="429" on="0"/>
        <pt x="266" y="427" on="1"/>
        <pt x="266" y="152" on="1"/>
        <pt x="286" y="149" on="0"/>
        <pt x="340" y="146" on="0"/>
      </contour>
      <contour>
        <pt x="379" y="-175" on="1"/>
        <pt x="337" y="-175" on="0"/>
        <pt x="300" y="-141" on="0"/>
        <pt x="300" y="-103" on="1"/>
        <pt x="300" y="-65" on="0"/>
        <pt x="337" y="-30" on="0"/>
        <pt x="379" y="-30" on="1"/>
        <pt x="424" y="-30" on="0"/>
        <pt x="457" y="-68" on="0"/>
        <pt x="457" y="-103" on="1"/>
        <pt x="457" y="-138" on="0"/>
        <pt x="424" y="-175" on="0"/>
      </contour>
    </TTGlyph>
    <TTGlyph name="Delta" xMin="22" yMin="0" xMax="883" yMax="740">
      <contour>
        <pt x="332" y="740" on="1"/>
        <pt x="572" y="740" on="1"/>
        <pt x="883" y="0" on="1"/>
        <pt x="22" y="0" on="1"/>
      </contour>
      <contour>
        <pt x="626" y="156" on="1"/>
        <pt x="452" y="569" on="1"/>
        <pt x="278" y="156" on="1"/>
      </contour>
    </TTGlyph>
    <TTGlyph name="E" xMin="70" yMin="0" xMax="674" yMax="740">
      <contour>
        <pt x="70" y="740" on="1"/>
        <pt x="664" y="740" on="1"/>
        <pt x="664" y="583" on="1"/>
        <pt x="279" y="583" on="1"/>
        <pt x="279" y="450" on="1"/>
        <pt x="627" y="450" on="1"/>
        <pt x="627" y="292" on="1"/>
        <pt x="279" y="292" on="1"/>
        <pt x="279" y="157" on="1"/>
        <pt x="674" y="157" on="1"/>
        <pt x="674" y="0" on="1"/>
        <pt x="70" y="0" on="1"/>
      </contour>
    </TTGlyph>
    <TTGlyph name="E.sc" xMin="68" yMin="0" xMax="623" yMax="577">
      <contour>
        <pt x="68" y="577" on="1"/>
        <pt x="615" y="577" on="1"/>
        <pt x="615" y="435" on="1"/>
        <pt x="266" y="435" on="1"/>
        <pt x="266" y="350" on="1"/>
        <pt x="580" y="350" on="1"/>
        <pt x="580" y="230" on="1"/>
        <pt x="266" y="230" on="1"/>
        <pt x="266" y="143" on="1"/>
        <pt x="623" y="143" on="1"/>
        <pt x="623" y="0" on="1"/>
        <pt x="68" y="0" on="1"/>
      </contour>
    </TTGlyph>
    <TTGlyph name="Eacute" xMin="70" yMin="0" xMax="674" yMax="998">
      <contour>
        <pt x="281" y="816" on="1"/>
        <pt x="345" y="998" on="1"/>
        <pt x="554" y="998" on="1"/>
        <pt x="428" y="807" on="1"/>
      </contour>
      <contour>
        <pt x="70" y="740" on="1"/>
        <pt x="664" y="740" on="1"/>
        <pt x="664" y="583" on="1"/>
        <pt x="279" y="583" on="1"/>
        <pt x="279" y="450" on="1"/>
        <pt x="627" y="450" on="1"/>
        <pt x="627" y="292" on="1"/>
        <pt x="279" y="292" on="1"/>
        <pt x="279" y="157" on="1"/>
        <pt x="674" y="157" on="1"/>
        <pt x="674" y="0" on="1"/>
        <pt x="70" y="0" on="1"/>
      </contour>
    </TTGlyph>
    <TTGlyph name="Eacute.sc" xMin="68" yMin="0" xMax="623" yMax="792">
      <contour>
        <pt x="68" y="577" on="1"/>
        <pt x="615" y="577" on="1"/>
        <pt x="615" y="435" on="1"/>
        <pt x="266" y="435" on="1"/>
        <pt x="266" y="350" on="1"/>
        <pt x="580" y="350" on="1"/>
        <pt x="580" y="230" on="1"/>
        <pt x="266" y="230" on="1"/>
        <pt x="266" y="143" on="1"/>
        <pt x="623" y="143" on="1"/>
        <pt x="623" y="0" on="1"/>
        <pt x="68" y="0" on="1"/>
      </contour>
      <contour>
        <pt x="259" y="639" on="1"/>
        <pt x="315" y="792" on="1"/>
        <pt x="514" y="792" on="1"/>
        <pt x="398" y="631" on="1"/>
      </contour>
    </TTGlyph>
    <TTGlyph name="Ebreve" xMin="70" yMin="0" xMax="674" yMax="998">
      <contour>
        <pt x="358" y="812" on="1"/>
        <pt x="288" y="812" on="0"/>
        <pt x="195" y="841" on="0"/>
        <pt x="138" y="892" on="0"/>
        <pt x="114" y="959" on="0"/>
        <pt x="114" y="998" on="1"/>
        <pt x="248" y="998" on="1"/>
        <pt x="248" y="955" on="0"/>
        <pt x="294" y="907" on="0"/>
        <pt x="358" y="907" on="1"/>
        <pt x="422" y="907" on="0"/>
        <pt x="468" y="955" on="0"/>
        <pt x="468" y="998" on="1"/>
        <pt x="602" y="998" on="1"/>
        <pt x="602" y="958" on="0"/>
        <pt x="578" y="890" on="0"/>
        <pt x="521" y="840" on="0"/>
        <pt x="428" y="812" on="0"/>
      </contour>
      <contour>
        <pt x="70" y="740" on="1"/>
        <pt x="664" y="740" on="1"/>
        <pt x="664" y="583" on="1"/>
        <pt x="279" y="583" on="1"/>
        <pt x="279" y="450" on="1"/>
        <pt x="627" y="450" on="1"/>
        <pt x="627" y="292" on="1"/>
        <pt x="279" y="292" on="1"/>
        <pt x="279" y="157" on="1"/>
        <pt x="674" y="157" on="1"/>
        <pt x="674" y="0" on="1"/>
        <pt x="70" y="0" on="1"/>
      </contour>
    </TTGlyph>
    <TTGlyph name="Ebreve.sc" xMin="68" yMin="0" xMax="623" yMax="790">
      <contour>
        <pt x="332" y="633" on="1"/>
        <pt x="266" y="633" on="0"/>
        <pt x="179" y="658" on="0"/>
        <pt x="127" y="702" on="0"/>
        <pt x="105" y="758" on="0"/>
        <pt x="105" y="790" on="1"/>
        <pt x="232" y="790" on="1"/>
        <pt x="232" y="758" on="0"/>
        <pt x="273" y="721" on="0"/>
        <pt x="332" y="721" on="1"/>
        <pt x="391" y="721" on="0"/>
        <pt x="432" y="758" on="0"/>
        <pt x="432" y="790" on="1"/>
        <pt x="557" y="790" on="1"/>
        <pt x="557" y="757" on="0"/>
        <pt x="536" y="700" on="0"/>
        <pt x="484" y="657" on="0"/>
        <pt x="397" y="633" on="0"/>
      </contour>
      <contour>
        <pt x="68" y="577" on="1"/>
        <pt x="615" y="577" on="1"/>
        <pt x="615" y="435" on="1"/>
        <pt x="266" y="435" on="1"/>
        <pt x="266" y="350" on="1"/>
        <pt x="580" y="350" on="1"/>
        <pt x="580" y="230" on="1"/>
        <pt x="266" y="230" on="1"/>
        <pt x="266" y="143" on="1"/>
        <pt x="623" y="143" on="1"/>
        <pt x="623" y="0" on="1"/>
        <pt x="68" y="0" on="1"/>
      </contour>
    </TTGlyph>
    <TTGlyph name="Ecaron" xMin="70" yMin="0" xMax="674" yMax="1014">
      <contour>
        <pt x="142" y="1014" on="1"/>
        <pt x="366" y="934" on="1"/>
        <pt x="590" y="1014" on="1"/>
        <pt x="590" y="880" on="1"/>
        <pt x="363" y="800" on="1"/>
        <pt x="142" y="880" on="1"/>
      </contour>
      <contour>
        <pt x="70" y="740" on="1"/>
        <pt x="664" y="740" on="1"/>
        <pt x="664" y="583" on="1"/>
        <pt x="279" y="583" on="1"/>
        <pt x="279" y="450" on="1"/>
        <pt x="627" y="450" on="1"/>
        <pt x="627" y="292" on="1"/>
        <pt x="279" y="292" on="1"/>
        <pt x="279" y="157" on="1"/>
        <pt x="674" y="157" on="1"/>
        <pt x="674" y="0" on="1"/>
        <pt x="70" y="0" on="1"/>
      </contour>
    </TTGlyph>
    <TTGlyph name="Ecaron.sc" xMin="68" yMin="0" xMax="623" yMax="810">
      <contour>
        <pt x="68" y="577" on="1"/>
        <pt x="615" y="577" on="1"/>
        <pt x="615" y="435" on="1"/>
        <pt x="266" y="435" on="1"/>
        <pt x="266" y="350" on="1"/>
        <pt x="580" y="350" on="1"/>
        <pt x="580" y="230" on="1"/>
        <pt x="266" y="230" on="1"/>
        <pt x="266" y="143" on="1"/>
        <pt x="623" y="143" on="1"/>
        <pt x="623" y="0" on="1"/>
        <pt x="68" y="0" on="1"/>
      </contour>
      <contour>
        <pt x="131" y="686" on="1"/>
        <pt x="131" y="810" on="1"/>
        <pt x="339" y="744" on="1"/>
        <pt x="546" y="810" on="1"/>
        <pt x="546" y="686" on="1"/>
        <pt x="336" y="621" on="1"/>
      </contour>
    </TTGlyph>
    <TTGlyph name="Ecircumflex" xMin="70" yMin="0" xMax="674" yMax="1014">
      <contour>
        <pt x="70" y="740" on="1"/>
        <pt x="664" y="740" on="1"/>
        <pt x="664" y="583" on="1"/>
        <pt x="279" y="583" on="1"/>
        <pt x="279" y="450" on="1"/>
        <pt x="627" y="450" on="1"/>
        <pt x="627" y="292" on="1"/>
        <pt x="279" y="292" on="1"/>
        <pt x="279" y="157" on="1"/>
        <pt x="674" y="157" on="1"/>
        <pt x="674" y="0" on="1"/>
        <pt x="70" y="0" on="1"/>
      </contour>
      <contour>
        <pt x="160" y="934" on="1"/>
        <pt x="381" y="1014" on="1"/>
        <pt x="608" y="934" on="1"/>
        <pt x="608" y="800" on="1"/>
        <pt x="384" y="880" on="1"/>
        <pt x="160" y="800" on="1"/>
      </contour>
    </TTGlyph>
    <TTGlyph name="Ecircumflex.sc" xMin="68" yMin="0" xMax="623" yMax="810">
      <contour>
        <pt x="68" y="577" on="1"/>
        <pt x="615" y="577" on="1"/>
        <pt x="615" y="435" on="1"/>
        <pt x="266" y="435" on="1"/>
        <pt x="266" y="350" on="1"/>
        <pt x="580" y="350" on="1"/>
        <pt x="580" y="230" on="1"/>
        <pt x="266" y="230" on="1"/>
        <pt x="266" y="143" on="1"/>
        <pt x="623" y="143" on="1"/>
        <pt x="623" y="0" on="1"/>
        <pt x="68" y="0" on="1"/>
      </contour>
      <contour>
        <pt x="150" y="744" on="1"/>
        <pt x="355" y="810" on="1"/>
        <pt x="565" y="744" on="1"/>
        <pt x="565" y="621" on="1"/>
        <pt x="358" y="685" on="1"/>
        <pt x="150" y="621" on="1"/>
      </contour>
    </TTGlyph>
    <TTGlyph name="Edblgrave" xMin="43" yMin="0" xMax="674" yMax="996">
      <contour>
        <pt x="70" y="740" on="1"/>
        <pt x="664" y="740" on="1"/>
        <pt x="664" y="583" on="1"/>
        <pt x="279" y="583" on="1"/>
        <pt x="279" y="450" on="1"/>
        <pt x="627" y="450" on="1"/>
        <pt x="627" y="292" on="1"/>
        <pt x="279" y="292" on="1"/>
        <pt x="279" y="157" on="1"/>
        <pt x="674" y="157" on="1"/>
        <pt x="674" y="0" on="1"/>
        <pt x="70" y="0" on="1"/>
      </contour>
      <contour>
        <pt x="170" y="805" on="1"/>
        <pt x="43" y="996" on="1"/>
        <pt x="249" y="996" on="1"/>
        <pt x="312" y="816" on="1"/>
      </contour>
      <contour>
        <pt x="405" y="805" on="1"/>
        <pt x="278" y="996" on="1"/>
        <pt x="484" y="996" on="1"/>
        <pt x="548" y="816" on="1"/>
      </contour>
    </TTGlyph>
    <TTGlyph name="Edblgrave.sc" xMin="38" yMin="0" xMax="623" yMax="793">
      <contour>
        <pt x="68" y="577" on="1"/>
        <pt x="615" y="577" on="1"/>
        <pt x="615" y="435" on="1"/>
        <pt x="266" y="435" on="1"/>
        <pt x="266" y="350" on="1"/>
        <pt x="580" y="350" on="1"/>
        <pt x="580" y="230" on="1"/>
        <pt x="266" y="230" on="1"/>
        <pt x="266" y="143" on="1"/>
        <pt x="623" y="143" on="1"/>
        <pt x="623" y="0" on="1"/>
        <pt x="68" y="0" on="1"/>
      </contour>
      <contour>
        <pt x="38" y="793" on="1"/>
        <pt x="235" y="793" on="1"/>
        <pt x="290" y="639" on="1"/>
        <pt x="153" y="631" on="1"/>
      </contour>
      <contour>
        <pt x="257" y="793" on="1"/>
        <pt x="454" y="793" on="1"/>
        <pt x="511" y="639" on="1"/>
        <pt x="373" y="631" on="1"/>
      </contour>
    </TTGlyph>
    <TTGlyph name="Edieresis" xMin="70" yMin="0" xMax="674" yMax="1013">
      <contour>
        <pt x="221" y="799" on="1"/>
        <pt x="161" y="799" on="0"/>
        <pt x="111" y="849" on="0"/>
        <pt x="111" y="906" on="1"/>
        <pt x="111" y="962" on="0"/>
        <pt x="161" y="1013" on="0"/>
        <pt x="221" y="1013" on="1"/>
        <pt x="282" y="1013" on="0"/>
        <pt x="331" y="960" on="0"/>
        <pt x="331" y="906" on="1"/>
        <pt x="331" y="852" on="0"/>
        <pt x="282" y="799" on="0"/>
      </contour>
      <contour>
        <pt x="535" y="799" on="1"/>
        <pt x="475" y="799" on="0"/>
        <pt x="426" y="849" on="0"/>
        <pt x="426" y="906" on="1"/>
        <pt x="426" y="962" on="0"/>
        <pt x="475" y="1013" on="0"/>
        <pt x="535" y="1013" on="1"/>
        <pt x="595" y="1013" on="0"/>
        <pt x="644" y="960" on="0"/>
        <pt x="644" y="906" on="1"/>
        <pt x="644" y="852" on="0"/>
        <pt x="595" y="799" on="0"/>
      </contour>
      <contour>
        <pt x="70" y="740" on="1"/>
        <pt x="664" y="740" on="1"/>
        <pt x="664" y="583" on="1"/>
        <pt x="279" y="583" on="1"/>
        <pt x="279" y="450" on="1"/>
        <pt x="627" y="450" on="1"/>
        <pt x="627" y="292" on="1"/>
        <pt x="279" y="292" on="1"/>
        <pt x="279" y="157" on="1"/>
        <pt x="674" y="157" on="1"/>
        <pt x="674" y="0" on="1"/>
        <pt x="70" y="0" on="1"/>
      </contour>
    </TTGlyph>
    <TTGlyph name="Edieresis.sc" xMin="68" yMin="0" xMax="623" yMax="814">
      <contour>
        <pt x="209" y="617" on="1"/>
        <pt x="153" y="617" on="0"/>
        <pt x="105" y="663" on="0"/>
        <pt x="105" y="716" on="1"/>
        <pt x="105" y="767" on="0"/>
        <pt x="153" y="814" on="0"/>
        <pt x="209" y="814" on="1"/>
        <pt x="267" y="814" on="0"/>
        <pt x="312" y="765" on="0"/>
        <pt x="312" y="716" on="1"/>
        <pt x="312" y="665" on="0"/>
        <pt x="267" y="617" on="0"/>
      </contour>
      <contour>
        <pt x="495" y="617" on="1"/>
        <pt x="439" y="617" on="0"/>
        <pt x="392" y="663" on="0"/>
        <pt x="392" y="716" on="1"/>
        <pt x="392" y="767" on="0"/>
        <pt x="439" y="814" on="0"/>
        <pt x="495" y="814" on="1"/>
        <pt x="552" y="814" on="0"/>
        <pt x="598" y="765" on="0"/>
        <pt x="598" y="716" on="1"/>
        <pt x="598" y="665" on="0"/>
        <pt x="552" y="617" on="0"/>
      </contour>
      <contour>
        <pt x="68" y="577" on="1"/>
        <pt x="615" y="577" on="1"/>
        <pt x="615" y="435" on="1"/>
        <pt x="266" y="435" on="1"/>
        <pt x="266" y="350" on="1"/>
        <pt x="580" y="350" on="1"/>
        <pt x="580" y="230" on="1"/>
        <pt x="266" y="230" on="1"/>
        <pt x="266" y="143" on="1"/>
        <pt x="623" y="143" on="1"/>
        <pt x="623" y="0" on="1"/>
        <pt x="68" y="0" on="1"/>
      </contour>
    </TTGlyph>
    <TTGlyph name="Edotaccent" xMin="70" yMin="0" xMax="674" yMax="1012">
      <contour>
        <pt x="358" y="799" on="1"/>
        <pt x="298" y="799" on="0"/>
        <pt x="248" y="848" on="0"/>
        <pt x="248" y="905" on="1"/>
        <pt x="248" y="961" on="0"/>
        <pt x="298" y="1012" on="0"/>
        <pt x="358" y="1012" on="1"/>
        <pt x="419" y="1012" on="0"/>
        <pt x="468" y="959" on="0"/>
        <pt x="468" y="905" on="1"/>
        <pt x="468" y="851" on="0"/>
        <pt x="419" y="799" on="0"/>
      </contour>
      <contour>
        <pt x="70" y="740" on="1"/>
        <pt x="664" y="740" on="1"/>
        <pt x="664" y="583" on="1"/>
        <pt x="279" y="583" on="1"/>
        <pt x="279" y="450" on="1"/>
        <pt x="627" y="450" on="1"/>
        <pt x="627" y="292" on="1"/>
        <pt x="279" y="292" on="1"/>
        <pt x="279" y="157" on="1"/>
        <pt x="674" y="157" on="1"/>
        <pt x="674" y="0" on="1"/>
        <pt x="70" y="0" on="1"/>
      </contour>
    </TTGlyph>
    <TTGlyph name="Edotaccent.sc" xMin="68" yMin="0" xMax="623" yMax="814">
      <contour>
        <pt x="332" y="617" on="1"/>
        <pt x="275" y="617" on="0"/>
        <pt x="228" y="663" on="0"/>
        <pt x="228" y="716" on="1"/>
        <pt x="228" y="767" on="0"/>
        <pt x="275" y="814" on="0"/>
        <pt x="332" y="814" on="1"/>
        <pt x="389" y="814" on="0"/>
        <pt x="435" y="765" on="0"/>
        <pt x="435" y="716" on="1"/>
        <pt x="435" y="666" on="0"/>
        <pt x="389" y="617" on="0"/>
      </contour>
      <contour>
        <pt x="68" y="577" on="1"/>
        <pt x="615" y="577" on="1"/>
        <pt x="615" y="435" on="1"/>
        <pt x="266" y="435" on="1"/>
        <pt x="266" y="350" on="1"/>
        <pt x="580" y="350" on="1"/>
        <pt x="580" y="230" on="1"/>
        <pt x="266" y="230" on="1"/>
        <pt x="266" y="143" on="1"/>
        <pt x="623" y="143" on="1"/>
        <pt x="623" y="0" on="1"/>
        <pt x="68" y="0" on="1"/>
      </contour>
    </TTGlyph>
    <TTGlyph name="Edotbelow" xMin="70" yMin="-213" xMax="674" yMax="740">
      <contour>
        <pt x="70" y="740" on="1"/>
        <pt x="664" y="740" on="1"/>
        <pt x="664" y="583" on="1"/>
        <pt x="279" y="583" on="1"/>
        <pt x="279" y="450" on="1"/>
        <pt x="627" y="450" on="1"/>
        <pt x="627" y="292" on="1"/>
        <pt x="279" y="292" on="1"/>
        <pt x="279" y="157" on="1"/>
        <pt x="674" y="157" on="1"/>
        <pt x="674" y="0" on="1"/>
        <pt x="70" y="0" on="1"/>
      </contour>
      <contour>
        <pt x="387" y="-213" on="1"/>
        <pt x="342" y="-213" on="0"/>
        <pt x="303" y="-175" on="0"/>
        <pt x="303" y="-133" on="1"/>
        <pt x="303" y="-90" on="0"/>
        <pt x="342" y="-52" on="0"/>
        <pt x="387" y="-52" on="1"/>
        <pt x="435" y="-52" on="0"/>
        <pt x="471" y="-92" on="0"/>
        <pt x="471" y="-133" on="1"/>
        <pt x="471" y="-174" on="0"/>
        <pt x="435" y="-213" on="0"/>
      </contour>
    </TTGlyph>
    <TTGlyph name="Edotbelow.sc" xMin="68" yMin="-175" xMax="623" yMax="577">
      <contour>
        <pt x="359" y="-175" on="1"/>
        <pt x="316" y="-175" on="0"/>
        <pt x="281" y="-141" on="0"/>
        <pt x="281" y="-103" on="1"/>
        <pt x="281" y="-65" on="0"/>
        <pt x="316" y="-30" on="0"/>
        <pt x="359" y="-30" on="1"/>
        <pt x="404" y="-30" on="0"/>
        <pt x="437" y="-68" on="0"/>
        <pt x="437" y="-103" on="1"/>
        <pt x="437" y="-138" on="0"/>
        <pt x="404" y="-175" on="0"/>
      </contour>
      <contour>
        <pt x="68" y="577" on="1"/>
        <pt x="615" y="577" on="1"/>
        <pt x="615" y="435" on="1"/>
        <pt x="266" y="435" on="1"/>
        <pt x="266" y="350" on="1"/>
        <pt x="580" y="350" on="1"/>
        <pt x="580" y="230" on="1"/>
        <pt x="266" y="230" on="1"/>
        <pt x="266" y="143" on="1"/>
        <pt x="623" y="143" on="1"/>
        <pt x="623" y="0" on="1"/>
        <pt x="68" y="0" on="1"/>
      </contour>
    </TTGlyph>
    <TTGlyph name="Egrave" xMin="70" yMin="0" xMax="674" yMax="998">
      <contour>
        <pt x="321" y="807" on="1"/>
        <pt x="194" y="998" on="1"/>
        <pt x="404" y="998" on="1"/>
        <pt x="468" y="817" on="1"/>
      </contour>
      <contour>
        <pt x="70" y="740" on="1"/>
        <pt x="664" y="740" on="1"/>
        <pt x="664" y="583" on="1"/>
        <pt x="279" y="583" on="1"/>
        <pt x="279" y="450" on="1"/>
        <pt x="627" y="450" on="1"/>
        <pt x="627" y="292" on="1"/>
        <pt x="279" y="292" on="1"/>
        <pt x="279" y="157" on="1"/>
        <pt x="674" y="157" on="1"/>
        <pt x="674" y="0" on="1"/>
        <pt x="70" y="0" on="1"/>
      </contour>
    </TTGlyph>
    <TTGlyph name="Egrave.sc" xMin="68" yMin="0" xMax="623" yMax="792">
      <contour>
        <pt x="68" y="577" on="1"/>
        <pt x="615" y="577" on="1"/>
        <pt x="615" y="435" on="1"/>
        <pt x="266" y="435" on="1"/>
        <pt x="266" y="350" on="1"/>
        <pt x="580" y="350" on="1"/>
        <pt x="580" y="230" on="1"/>
        <pt x="266" y="230" on="1"/>
        <pt x="266" y="143" on="1"/>
        <pt x="623" y="143" on="1"/>
        <pt x="623" y="0" on="1"/>
        <pt x="68" y="0" on="1"/>
      </contour>
      <contour>
        <pt x="183" y="792" on="1"/>
        <pt x="382" y="792" on="1"/>
        <pt x="438" y="638" on="1"/>
        <pt x="298" y="631" on="1"/>
      </contour>
    </TTGlyph>
    <TTGlyph name="Einvertedbreve" xMin="70" yMin="0" xMax="674" yMax="1007">
      <contour>
        <pt x="70" y="740" on="1"/>
        <pt x="664" y="740" on="1"/>
        <pt x="664" y="583" on="1"/>
        <pt x="279" y="583" on="1"/>
        <pt x="279" y="450" on="1"/>
        <pt x="627" y="450" on="1"/>
        <pt x="627" y="292" on="1"/>
        <pt x="279" y="292" on="1"/>
        <pt x="279" y="157" on="1"/>
        <pt x="674" y="157" on="1"/>
        <pt x="674" y="0" on="1"/>
        <pt x="70" y="0" on="1"/>
      </contour>
      <contour>
        <pt x="478" y="820" on="1"/>
        <pt x="478" y="863" on="0"/>
        <pt x="432" y="911" on="0"/>
        <pt x="368" y="911" on="1"/>
        <pt x="304" y="911" on="0"/>
        <pt x="258" y="863" on="0"/>
        <pt x="258" y="820" on="1"/>
        <pt x="124" y="820" on="1"/>
        <pt x="124" y="859" on="0"/>
        <pt x="148" y="927" on="0"/>
        <pt x="205" y="978" on="0"/>
        <pt x="298" y="1007" on="0"/>
        <pt x="368" y="1007" on="1"/>
        <pt x="437" y="1007" on="0"/>
        <pt x="531" y="979" on="0"/>
        <pt x="588" y="929" on="0"/>
        <pt x="612" y="860" on="0"/>
        <pt x="612" y="820" on="1"/>
      </contour>
    </TTGlyph>
    <TTGlyph name="Einvertedbreve.sc" xMin="68" yMin="0" xMax="623" yMax="798">
      <contour>
        <pt x="115" y="642" on="1"/>
        <pt x="115" y="673" on="0"/>
        <pt x="136" y="730" on="0"/>
        <pt x="188" y="773" on="0"/>
        <pt x="275" y="798" on="0"/>
        <pt x="341" y="798" on="1"/>
        <pt x="406" y="798" on="0"/>
        <pt x="493" y="774" on="0"/>
        <pt x="545" y="732" on="0"/>
        <pt x="567" y="675" on="0"/>
        <pt x="567" y="642" on="1"/>
        <pt x="441" y="642" on="1"/>
        <pt x="441" y="674" on="0"/>
        <pt x="401" y="710" on="0"/>
        <pt x="341" y="710" on="1"/>
        <pt x="312" y="710" on="0"/>
        <pt x="273" y="701" on="0"/>
        <pt x="250" y="683" on="0"/>
        <pt x="241" y="658" on="0"/>
        <pt x="241" y="642" on="1"/>
      </contour>
      <contour>
        <pt x="68" y="577" on="1"/>
        <pt x="615" y="577" on="1"/>
        <pt x="615" y="435" on="1"/>
        <pt x="266" y="435" on="1"/>
        <pt x="266" y="350" on="1"/>
        <pt x="580" y="350" on="1"/>
        <pt x="580" y="230" on="1"/>
        <pt x="266" y="230" on="1"/>
        <pt x="266" y="143" on="1"/>
        <pt x="623" y="143" on="1"/>
        <pt x="623" y="0" on="1"/>
        <pt x="68" y="0" on="1"/>
      </contour>
    </TTGlyph>
    <TTGlyph name="Emacron" xMin="70" yMin="0" xMax="674" yMax="976">
      <contour>
        <pt x="150" y="976" on="1"/>
        <pt x="594" y="976" on="1"/>
        <pt x="594" y="843" on="1"/>
        <pt x="150" y="843" on="1"/>
      </contour>
      <contour>
        <pt x="70" y="740" on="1"/>
        <pt x="664" y="740" on="1"/>
        <pt x="664" y="583" on="1"/>
        <pt x="279" y="583" on="1"/>
        <pt x="279" y="450" on="1"/>
        <pt x="627" y="450" on="1"/>
        <pt x="627" y="292" on="1"/>
        <pt x="279" y="292" on="1"/>
        <pt x="279" y="157" on="1"/>
        <pt x="674" y="157" on="1"/>
        <pt x="674" y="0" on="1"/>
        <pt x="70" y="0" on="1"/>
      </contour>
    </TTGlyph>
    <TTGlyph name="Emacron.sc" xMin="68" yMin="0" xMax="623" yMax="782">
      <contour>
        <pt x="68" y="577" on="1"/>
        <pt x="615" y="577" on="1"/>
        <pt x="615" y="435" on="1"/>
        <pt x="266" y="435" on="1"/>
        <pt x="266" y="350" on="1"/>
        <pt x="580" y="350" on="1"/>
        <pt x="580" y="230" on="1"/>
        <pt x="266" y="230" on="1"/>
        <pt x="266" y="143" on="1"/>
        <pt x="623" y="143" on="1"/>
        <pt x="623" y="0" on="1"/>
        <pt x="68" y="0" on="1"/>
      </contour>
      <contour>
        <pt x="139" y="782" on="1"/>
        <pt x="550" y="782" on="1"/>
        <pt x="550" y="658" on="1"/>
        <pt x="139" y="658" on="1"/>
      </contour>
    </TTGlyph>
    <TTGlyph name="Eng" xMin="70" yMin="-215" xMax="801" yMax="740">
      <contour>
        <pt x="527" y="-170" on="1"/>
        <pt x="545" y="-136" on="0"/>
        <pt x="570" y="-78" on="0"/>
        <pt x="588" y="-26" on="0"/>
        <pt x="599" y="22" on="0"/>
        <pt x="602" y="46" on="1"/>
        <pt x="342" y="350" on="1"/>
        <pt x="264" y="449" on="1"/>
        <pt x="255" y="449" on="1"/>
        <pt x="255" y="0" on="1"/>
        <pt x="70" y="0" on="1"/>
        <pt x="70" y="740" on="1"/>
        <pt x="228" y="740" on="1"/>
        <pt x="540" y="377" on="1"/>
        <pt x="607" y="291" on="1"/>
        <pt x="616" y="291" on="1"/>
        <pt x="616" y="740" on="1"/>
        <pt x="801" y="740" on="1"/>
        <pt x="801" y="128" on="1"/>
        <pt x="801" y="96" on="0"/>
        <pt x="780" y="10" on="0"/>
        <pt x="742" y="-82" on="0"/>
        <pt x="692" y="-175" on="0"/>
        <pt x="664" y="-215" on="1"/>
      </contour>
    </TTGlyph>
    <TTGlyph name="Eng.sc" xMin="68" yMin="-174" xMax="711" yMax="577">
      <contour>
        <pt x="469" y="-132" on="1"/>
        <pt x="485" y="-101" on="0"/>
        <pt x="508" y="-56" on="0"/>
        <pt x="523" y="-21" on="0"/>
        <pt x="532" y="9" on="0"/>
        <pt x="535" y="24" on="1"/>
        <pt x="324" y="233" on="1"/>
        <pt x="251" y="314" on="1"/>
        <pt x="242" y="314" on="1"/>
        <pt x="242" y="0" on="1"/>
        <pt x="68" y="0" on="1"/>
        <pt x="68" y="577" on="1"/>
        <pt x="217" y="577" on="1"/>
        <pt x="466" y="329" on="1"/>
        <pt x="528" y="263" on="1"/>
        <pt x="536" y="263" on="1"/>
        <pt x="536" y="577" on="1"/>
        <pt x="711" y="577" on="1"/>
        <pt x="711" y="111" on="1"/>
        <pt x="711" y="52" on="0"/>
        <pt x="653" y="-97" on="0"/>
        <pt x="599" y="-174" on="1"/>
      </contour>
    </TTGlyph>
    <TTGlyph name="Eogonek" xMin="70" yMin="-220" xMax="676" yMax="740">
      <contour>
        <pt x="70" y="740" on="1"/>
        <pt x="664" y="740" on="1"/>
        <pt x="664" y="583" on="1"/>
        <pt x="279" y="583" on="1"/>
        <pt x="279" y="450" on="1"/>
        <pt x="627" y="450" on="1"/>
        <pt x="627" y="292" on="1"/>
        <pt x="279" y="292" on="1"/>
        <pt x="279" y="157" on="1"/>
        <pt x="674" y="157" on="1"/>
        <pt x="674" y="-7" on="1"/>
        <pt x="603" y="-36" on="0"/>
        <pt x="549" y="-74" on="0"/>
        <pt x="549" y="-94" on="1"/>
        <pt x="549" y="-116" on="0"/>
        <pt x="578" y="-116" on="1"/>
        <pt x="584" y="-116" on="0"/>
        <pt x="607" y="-114" on="0"/>
        <pt x="634" y="-109" on="0"/>
        <pt x="663" y="-103" on="0"/>
        <pt x="676" y="-100" on="1"/>
        <pt x="676" y="-208" on="1"/>
        <pt x="635" y="-220" on="0"/>
        <pt x="582" y="-220" on="1"/>
        <pt x="504" y="-220" on="0"/>
        <pt x="419" y="-171" on="0"/>
        <pt x="419" y="-126" on="1"/>
        <pt x="419" y="-93" on="0"/>
        <pt x="467" y="-23" on="0"/>
        <pt x="507" y="0" on="1"/>
        <pt x="70" y="0" on="1"/>
      </contour>
    </TTGlyph>
    <TTGlyph name="Eogonek.sc" xMin="68" yMin="-172" xMax="625" yMax="577">
      <contour>
        <pt x="539" y="-172" on="1"/>
        <pt x="461" y="-172" on="0"/>
        <pt x="387" y="-131" on="0"/>
        <pt x="387" y="-94" on="1"/>
        <pt x="387" y="-63" on="0"/>
        <pt x="429" y="-12" on="0"/>
        <pt x="459" y="0" on="1"/>
        <pt x="68" y="0" on="1"/>
        <pt x="68" y="577" on="1"/>
        <pt x="615" y="577" on="1"/>
        <pt x="615" y="435" on="1"/>
        <pt x="266" y="435" on="1"/>
        <pt x="266" y="350" on="1"/>
        <pt x="580" y="350" on="1"/>
        <pt x="580" y="230" on="1"/>
        <pt x="266" y="230" on="1"/>
        <pt x="266" y="143" on="1"/>
        <pt x="623" y="143" on="1"/>
        <pt x="623" y="-2" on="1"/>
        <pt x="584" y="-16" on="0"/>
        <pt x="539" y="-34" on="0"/>
        <pt x="516" y="-48" on="0"/>
        <pt x="510" y="-58" on="0"/>
        <pt x="510" y="-62" on="1"/>
        <pt x="510" y="-72" on="0"/>
        <pt x="532" y="-72" on="1"/>
        <pt x="539" y="-72" on="0"/>
        <pt x="563" y="-71" on="0"/>
        <pt x="590" y="-68" on="0"/>
        <pt x="616" y="-65" on="0"/>
        <pt x="625" y="-63" on="1"/>
        <pt x="625" y="-162" on="1"/>
        <pt x="604" y="-168" on="0"/>
        <pt x="559" y="-172" on="0"/>
      </contour>
    </TTGlyph>
    <TTGlyph name="Eth" xMin="5" yMin="-10" xMax="825" yMax="750">
      <contour>
        <pt x="5" y="452" on="1"/>
        <pt x="95" y="452" on="1"/>
        <pt x="95" y="738" on="1"/>
        <pt x="284" y="750" on="0"/>
        <pt x="385" y="750" on="1"/>
        <pt x="613" y="750" on="0"/>
        <pt x="825" y="567" on="0"/>
        <pt x="825" y="369" on="1"/>
        <pt x="825" y="267" on="0"/>
        <pt x="771" y="124" on="0"/>
        <pt x="653" y="32" on="0"/>
        <pt x="467" y="-10" on="0"/>
        <pt x="335" y="-10" on="1"/>
        <pt x="300" y="-10" on="0"/>
        <pt x="231" y="-8" on="0"/>
        <pt x="168" y="-5" on="0"/>
        <pt x="114" y="1" on="0"/>
        <pt x="95" y="4" on="1"/>
        <pt x="95" y="296" on="1"/>
        <pt x="5" y="296" on="1"/>
      </contour>
      <contour>
        <pt x="420" y="153" on="1"/>
        <pt x="474" y="153" on="0"/>
        <pt x="547" y="175" on="0"/>
        <pt x="592" y="225" on="0"/>
        <pt x="612" y="308" on="0"/>
        <pt x="612" y="369" on="1"/>
        <pt x="612" y="429" on="0"/>
        <pt x="591" y="512" on="0"/>
        <pt x="545" y="563" on="0"/>
        <pt x="469" y="586" on="0"/>
        <pt x="415" y="586" on="1"/>
        <pt x="395" y="586" on="0"/>
        <pt x="342" y="583" on="0"/>
        <pt x="304" y="580" on="1"/>
        <pt x="304" y="452" on="1"/>
        <pt x="420" y="452" on="1"/>
        <pt x="420" y="296" on="1"/>
        <pt x="304" y="296" on="1"/>
        <pt x="304" y="162" on="1"/>
        <pt x="330" y="157" on="0"/>
        <pt x="389" y="153" on="0"/>
      </contour>
    </TTGlyph>
    <TTGlyph name="Eth.sc" xMin="13" yMin="-8" xMax="763" yMax="585">
      <contour>
        <pt x="13" y="357" on="1"/>
        <pt x="93" y="357" on="1"/>
        <pt x="93" y="575" on="1"/>
        <pt x="184" y="580" on="0"/>
        <pt x="315" y="585" on="0"/>
        <pt x="362" y="585" on="1"/>
        <pt x="570" y="585" on="0"/>
        <pt x="763" y="441" on="0"/>
        <pt x="763" y="287" on="1"/>
        <pt x="763" y="207" on="0"/>
        <pt x="713" y="95" on="0"/>
        <pt x="605" y="24" on="0"/>
        <pt x="434" y="-8" on="0"/>
        <pt x="313" y="-8" on="1"/>
        <pt x="281" y="-8" on="0"/>
        <pt x="217" y="-7" on="0"/>
        <pt x="158" y="-4" on="0"/>
        <pt x="109" y="0" on="0"/>
        <pt x="93" y="2" on="1"/>
        <pt x="93" y="224" on="1"/>
        <pt x="13" y="224" on="1"/>
      </contour>
      <contour>
        <pt x="395" y="146" on="1"/>
        <pt x="442" y="146" on="0"/>
        <pt x="506" y="159" on="0"/>
        <pt x="545" y="191" on="0"/>
        <pt x="561" y="245" on="0"/>
        <pt x="561" y="287" on="1"/>
        <pt x="561" y="327" on="0"/>
        <pt x="543" y="382" on="0"/>
        <pt x="503" y="416" on="0"/>
        <pt x="438" y="430" on="0"/>
        <pt x="391" y="430" on="1"/>
        <pt x="374" y="430" on="0"/>
        <pt x="327" y="429" on="0"/>
        <pt x="291" y="427" on="1"/>
        <pt x="291" y="357" on="1"/>
        <pt x="390" y="357" on="1"/>
        <pt x="390" y="224" on="1"/>
        <pt x="291" y="224" on="1"/>
        <pt x="291" y="152" on="1"/>
        <pt x="312" y="149" on="0"/>
        <pt x="367" y="146" on="0"/>
      </contour>
    </TTGlyph>
    <TTGlyph name="Etilde" xMin="70" yMin="0" xMax="674" yMax="998">
      <contour>
        <pt x="109" y="862" on="1"/>
        <pt x="146" y="931" on="0"/>
        <pt x="241" y="998" on="0"/>
        <pt x="285" y="998" on="1"/>
        <pt x="313" y="998" on="0"/>
        <pt x="369" y="986" on="0"/>
        <pt x="423" y="973" on="0"/>
        <pt x="478" y="961" on="0"/>
        <pt x="507" y="961" on="1"/>
        <pt x="531" y="961" on="0"/>
        <pt x="579" y="975" on="0"/>
        <pt x="611" y="998" on="1"/>
        <pt x="634" y="961" on="1"/>
        <pt x="596" y="893" on="0"/>
        <pt x="499" y="825" on="0"/>
        <pt x="457" y="825" on="1"/>
        <pt x="429" y="825" on="0"/>
        <pt x="374" y="837" on="0"/>
        <pt x="318" y="850" on="0"/>
        <pt x="263" y="862" on="0"/>
        <pt x="235" y="862" on="1"/>
        <pt x="210" y="862" on="0"/>
        <pt x="162" y="848" on="0"/>
        <pt x="133" y="826" on="1"/>
      </contour>
      <contour>
        <pt x="70" y="740" on="1"/>
        <pt x="664" y="740" on="1"/>
        <pt x="664" y="583" on="1"/>
        <pt x="279" y="583" on="1"/>
        <pt x="279" y="450" on="1"/>
        <pt x="627" y="450" on="1"/>
        <pt x="627" y="292" on="1"/>
        <pt x="279" y="292" on="1"/>
        <pt x="279" y="157" on="1"/>
        <pt x="674" y="157" on="1"/>
        <pt x="674" y="0" on="1"/>
        <pt x="70" y="0" on="1"/>
      </contour>
    </TTGlyph>
    <TTGlyph name="Etilde.sc" xMin="68" yMin="0" xMax="623" yMax="797">
      <contour>
        <pt x="101" y="673" on="1"/>
        <pt x="135" y="735" on="0"/>
        <pt x="223" y="797" on="0"/>
        <pt x="264" y="797" on="1"/>
        <pt x="290" y="797" on="0"/>
        <pt x="341" y="789" on="0"/>
        <pt x="392" y="778" on="0"/>
        <pt x="444" y="770" on="0"/>
        <pt x="470" y="770" on="1"/>
        <pt x="492" y="770" on="0"/>
        <pt x="534" y="780" on="0"/>
        <pt x="564" y="797" on="1"/>
        <pt x="585" y="766" on="1"/>
        <pt x="550" y="703" on="0"/>
        <pt x="460" y="642" on="0"/>
        <pt x="422" y="642" on="1"/>
        <pt x="396" y="642" on="0"/>
        <pt x="344" y="651" on="0"/>
        <pt x="293" y="661" on="0"/>
        <pt x="241" y="670" on="0"/>
        <pt x="215" y="670" on="1"/>
        <pt x="192" y="670" on="0"/>
        <pt x="150" y="659" on="0"/>
        <pt x="122" y="641" on="1"/>
      </contour>
      <contour>
        <pt x="68" y="577" on="1"/>
        <pt x="615" y="577" on="1"/>
        <pt x="615" y="435" on="1"/>
        <pt x="266" y="435" on="1"/>
        <pt x="266" y="350" on="1"/>
        <pt x="580" y="350" on="1"/>
        <pt x="580" y="230" on="1"/>
        <pt x="266" y="230" on="1"/>
        <pt x="266" y="143" on="1"/>
        <pt x="623" y="143" on="1"/>
        <pt x="623" y="0" on="1"/>
        <pt x="68" y="0" on="1"/>
      </contour>
    </TTGlyph>
    <TTGlyph name="Euro" xMin="35" yMin="-10" xMax="720" yMax="750">
      <contour>
        <pt x="35" y="510" on="1"/>
        <pt x="124" y="510" on="1"/>
        <pt x="156" y="630" on="0"/>
        <pt x="348" y="750" on="0"/>
        <pt x="522" y="750" on="1"/>
        <pt x="592" y="750" on="0"/>
        <pt x="691" y="735" on="0"/>
        <pt x="720" y="730" on="1"/>
        <pt x="670" y="566" on="1"/>
        <pt x="664" y="567" on="0"/>
        <pt x="640" y="571" on="0"/>
        <pt x="611" y="574" on="0"/>
        <pt x="580" y="576" on="0"/>
        <pt x="568" y="576" on="1"/>
        <pt x="516" y="576" on="0"/>
        <pt x="439" y="570" on="0"/>
        <pt x="384" y="555" on="0"/>
        <pt x="348" y="529" on="0"/>
        <pt x="338" y="510" on="1"/>
        <pt x="647" y="510" on="1"/>
        <pt x="628" y="398" on="1"/>
        <pt x="317" y="398" on="1"/>
        <pt x="317" y="341" on="1"/>
        <pt x="614" y="341" on="1"/>
        <pt x="594" y="229" on="1"/>
        <pt x="338" y="229" on="1"/>
        <pt x="349" y="209" on="0"/>
        <pt x="385" y="184" on="0"/>
        <pt x="440" y="169" on="0"/>
        <pt x="518" y="163" on="0"/>
        <pt x="570" y="163" on="1"/>
        <pt x="608" y="163" on="0"/>
        <pt x="679" y="169" on="0"/>
        <pt x="718" y="178" on="1"/>
        <pt x="718" y="8" on="1"/>
        <pt x="689" y="0" on="0"/>
        <pt x="592" y="-10" on="0"/>
        <pt x="538" y="-10" on="1"/>
        <pt x="354" y="-10" on="0"/>
        <pt x="155" y="110" on="0"/>
        <pt x="124" y="229" on="1"/>
        <pt x="35" y="229" on="1"/>
        <pt x="35" y="341" on="1"/>
        <pt x="108" y="341" on="1"/>
        <pt x="108" y="398" on="1"/>
        <pt x="35" y="398" on="1"/>
      </contour>
    </TTGlyph>
    <TTGlyph name="Euro.tab" xMin="-2" yMin="-10" xMax="648" yMax="750">
      <contour>
        <pt x="-2" y="510" on="1"/>
        <pt x="82" y="510" on="1"/>
        <pt x="111" y="629" on="0"/>
        <pt x="292" y="750" on="0"/>
        <pt x="456" y="750" on="1"/>
        <pt x="524" y="750" on="0"/>
        <pt x="621" y="735" on="0"/>
        <pt x="648" y="730" on="1"/>
        <pt x="600" y="566" on="1"/>
        <pt x="594" y="567" on="0"/>
        <pt x="571" y="571" on="0"/>
        <pt x="543" y="574" on="0"/>
        <pt x="513" y="576" on="0"/>
        <pt x="501" y="576" on="1"/>
        <pt x="411" y="576" on="0"/>
        <pt x="315" y="548" on="0"/>
        <pt x="295" y="510" on="1"/>
        <pt x="581" y="510" on="1"/>
        <pt x="563" y="398" on="1"/>
        <pt x="271" y="398" on="1"/>
        <pt x="271" y="341" on="1"/>
        <pt x="550" y="341" on="1"/>
        <pt x="532" y="229" on="1"/>
        <pt x="295" y="229" on="1"/>
        <pt x="315" y="191" on="0"/>
        <pt x="413" y="163" on="0"/>
        <pt x="503" y="163" on="1"/>
        <pt x="541" y="163" on="0"/>
        <pt x="609" y="169" on="0"/>
        <pt x="647" y="178" on="1"/>
        <pt x="647" y="8" on="1"/>
        <pt x="619" y="0" on="0"/>
        <pt x="523" y="-10" on="0"/>
        <pt x="472" y="-10" on="1"/>
        <pt x="299" y="-10" on="0"/>
        <pt x="111" y="110" on="0"/>
        <pt x="81" y="229" on="1"/>
        <pt x="-2" y="229" on="1"/>
        <pt x="-2" y="341" on="1"/>
        <pt x="66" y="341" on="1"/>
        <pt x="66" y="398" on="1"/>
        <pt x="-2" y="398" on="1"/>
      </contour>
    </TTGlyph>
    <TTGlyph name="F" xMin="70" yMin="0" xMax="664" yMax="740">
      <contour>
        <pt x="70" y="740" on="1"/>
        <pt x="664" y="740" on="1"/>
        <pt x="664" y="583" on="1"/>
        <pt x="279" y="583" on="1"/>
        <pt x="279" y="424" on="1"/>
        <pt x="625" y="424" on="1"/>
        <pt x="625" y="266" on="1"/>
        <pt x="279" y="266" on="1"/>
        <pt x="279" y="0" on="1"/>
        <pt x="70" y="0" on="1"/>
      </contour>
    </TTGlyph>
    <TTGlyph name="F.sc" xMin="68" yMin="0" xMax="615" yMax="577">
      <contour>
        <pt x="68" y="577" on="1"/>
        <pt x="615" y="577" on="1"/>
        <pt x="615" y="430" on="1"/>
        <pt x="266" y="430" on="1"/>
        <pt x="266" y="327" on="1"/>
        <pt x="579" y="327" on="1"/>
        <pt x="579" y="197" on="1"/>
        <pt x="266" y="197" on="1"/>
        <pt x="266" y="0" on="1"/>
        <pt x="68" y="0" on="1"/>
      </contour>
    </TTGlyph>
    <TTGlyph name="F_B.sc" xMin="68" yMin="-8" xMax="1322" yMax="585">
      <contour>
        <pt x="68" y="577" on="1"/>
        <pt x="615" y="577" on="1"/>
        <pt x="615" y="430" on="1"/>
        <pt x="266" y="430" on="1"/>
        <pt x="266" y="327" on="1"/>
        <pt x="579" y="327" on="1"/>
        <pt x="579" y="197" on="1"/>
        <pt x="266" y="197" on="1"/>
        <pt x="266" y="0" on="1"/>
        <pt x="68" y="0" on="1"/>
      </contour>
      <contour>
        <pt x="1027" y="-8" on="1"/>
        <pt x="945" y="-8" on="0"/>
        <pt x="790" y="-2" on="0"/>
        <pt x="701" y="4" on="1"/>
        <pt x="701" y="573" on="1"/>
        <pt x="776" y="579" on="0"/>
        <pt x="915" y="585" on="0"/>
        <pt x="985" y="585" on="1"/>
        <pt x="1148" y="585" on="0"/>
        <pt x="1299" y="504" on="0"/>
        <pt x="1299" y="418" on="1"/>
        <pt x="1299" y="329" on="0"/>
        <pt x="1177" y="299" on="1"/>
        <pt x="1177" y="296" on="1"/>
        <pt x="1248" y="285" on="0"/>
        <pt x="1322" y="215" on="0"/>
        <pt x="1322" y="161" on="1"/>
        <pt x="1322" y="72" on="0"/>
        <pt x="1180" y="-8" on="0"/>
      </contour>
      <contour>
        <pt x="1011" y="120" on="1"/>
        <pt x="1071" y="120" on="0"/>
        <pt x="1127" y="150" on="0"/>
        <pt x="1127" y="183" on="1"/>
        <pt x="1127" y="214" on="0"/>
        <pt x="1075" y="237" on="0"/>
        <pt x="1014" y="237" on="1"/>
        <pt x="891" y="237" on="1"/>
        <pt x="891" y="122" on="1"/>
        <pt x="898" y="121" on="0"/>
        <pt x="913" y="120" on="0"/>
        <pt x="938" y="120" on="0"/>
        <pt x="978" y="120" on="0"/>
      </contour>
      <contour>
        <pt x="995" y="348" on="1"/>
        <pt x="1056" y="348" on="0"/>
        <pt x="1106" y="372" on="0"/>
        <pt x="1106" y="403" on="1"/>
        <pt x="1106" y="434" on="0"/>
        <pt x="1055" y="457" on="0"/>
        <pt x="992" y="457" on="1"/>
        <pt x="962" y="457" on="0"/>
        <pt x="911" y="456" on="0"/>
        <pt x="891" y="453" on="1"/>
        <pt x="891" y="348" on="1"/>
      </contour>
    </TTGlyph>
    <TTGlyph name="F_F.sc" xMin="68" yMin="0" xMax="1248" yMax="577">
      <contour>
        <pt x="68" y="577" on="1"/>
        <pt x="615" y="577" on="1"/>
        <pt x="615" y="430" on="1"/>
        <pt x="266" y="430" on="1"/>
        <pt x="266" y="327" on="1"/>
        <pt x="579" y="327" on="1"/>
        <pt x="579" y="197" on="1"/>
        <pt x="266" y="197" on="1"/>
        <pt x="266" y="0" on="1"/>
        <pt x="68" y="0" on="1"/>
      </contour>
      <contour>
        <pt x="701" y="577" on="1"/>
        <pt x="1248" y="577" on="1"/>
        <pt x="1248" y="430" on="1"/>
        <pt x="899" y="430" on="1"/>
        <pt x="899" y="327" on="1"/>
        <pt x="1212" y="327" on="1"/>
        <pt x="1212" y="197" on="1"/>
        <pt x="899" y="197" on="1"/>
        <pt x="899" y="0" on="1"/>
        <pt x="701" y="0" on="1"/>
      </contour>
    </TTGlyph>
    <TTGlyph name="F_F_B.sc" xMin="68" yMin="-8" xMax="1955" yMax="585">
      <contour>
        <pt x="68" y="577" on="1"/>
        <pt x="615" y="577" on="1"/>
        <pt x="615" y="430" on="1"/>
        <pt x="266" y="430" on="1"/>
        <pt x="266" y="327" on="1"/>
        <pt x="579" y="327" on="1"/>
        <pt x="579" y="197" on="1"/>
        <pt x="266" y="197" on="1"/>
        <pt x="266" y="0" on="1"/>
        <pt x="68" y="0" on="1"/>
      </contour>
      <contour>
        <pt x="701" y="577" on="1"/>
        <pt x="1248" y="577" on="1"/>
        <pt x="1248" y="430" on="1"/>
        <pt x="899" y="430" on="1"/>
        <pt x="899" y="327" on="1"/>
        <pt x="1212" y="327" on="1"/>
        <pt x="1212" y="197" on="1"/>
        <pt x="899" y="197" on="1"/>
        <pt x="899" y="0" on="1"/>
        <pt x="701" y="0" on="1"/>
      </contour>
      <contour>
        <pt x="1660" y="-8" on="1"/>
        <pt x="1578" y="-8" on="0"/>
        <pt x="1423" y="-2" on="0"/>
        <pt x="1334" y="4" on="1"/>
        <pt x="1334" y="573" on="1"/>
        <pt x="1409" y="579" on="0"/>
        <pt x="1548" y="585" on="0"/>
        <pt x="1618" y="585" on="1"/>
        <pt x="1781" y="585" on="0"/>
        <pt x="1932" y="504" on="0"/>
        <pt x="1932" y="418" on="1"/>
        <pt x="1932" y="329" on="0"/>
        <pt x="1810" y="299" on="1"/>
        <pt x="1810" y="296" on="1"/>
        <pt x="1881" y="285" on="0"/>
        <pt x="1955" y="215" on="0"/>
        <pt x="1955" y="161" on="1"/>
        <pt x="1955" y="72" on="0"/>
        <pt x="1813" y="-8" on="0"/>
      </contour>
      <contour>
        <pt x="1644" y="120" on="1"/>
        <pt x="1704" y="120" on="0"/>
        <pt x="1760" y="150" on="0"/>
        <pt x="1760" y="183" on="1"/>
        <pt x="1760" y="214" on="0"/>
        <pt x="1708" y="237" on="0"/>
        <pt x="1647" y="237" on="1"/>
        <pt x="1524" y="237" on="1"/>
        <pt x="1524" y="122" on="1"/>
        <pt x="1531" y="121" on="0"/>
        <pt x="1546" y="120" on="0"/>
        <pt x="1571" y="120" on="0"/>
        <pt x="1611" y="120" on="0"/>
      </contour>
      <contour>
        <pt x="1628" y="348" on="1"/>
        <pt x="1689" y="348" on="0"/>
        <pt x="1739" y="372" on="0"/>
        <pt x="1739" y="403" on="1"/>
        <pt x="1739" y="434" on="0"/>
        <pt x="1688" y="457" on="0"/>
        <pt x="1625" y="457" on="1"/>
        <pt x="1595" y="457" on="0"/>
        <pt x="1544" y="456" on="0"/>
        <pt x="1524" y="453" on="1"/>
        <pt x="1524" y="348" on="1"/>
      </contour>
    </TTGlyph>
    <TTGlyph name="F_F_H.sc" xMin="68" yMin="0" xMax="2016" yMax="577">
      <contour>
        <pt x="68" y="577" on="1"/>
        <pt x="615" y="577" on="1"/>
        <pt x="615" y="430" on="1"/>
        <pt x="266" y="430" on="1"/>
        <pt x="266" y="327" on="1"/>
        <pt x="579" y="327" on="1"/>
        <pt x="579" y="197" on="1"/>
        <pt x="266" y="197" on="1"/>
        <pt x="266" y="0" on="1"/>
        <pt x="68" y="0" on="1"/>
      </contour>
      <contour>
        <pt x="701" y="577" on="1"/>
        <pt x="1248" y="577" on="1"/>
        <pt x="1248" y="430" on="1"/>
        <pt x="899" y="430" on="1"/>
        <pt x="899" y="327" on="1"/>
        <pt x="1212" y="327" on="1"/>
        <pt x="1212" y="197" on="1"/>
        <pt x="899" y="197" on="1"/>
        <pt x="899" y="0" on="1"/>
        <pt x="701" y="0" on="1"/>
      </contour>
      <contour>
        <pt x="1334" y="577" on="1"/>
        <pt x="1532" y="577" on="1"/>
        <pt x="1532" y="370" on="1"/>
        <pt x="1818" y="370" on="1"/>
        <pt x="1818" y="577" on="1"/>
        <pt x="2016" y="577" on="1"/>
        <pt x="2016" y="0" on="1"/>
        <pt x="1818" y="0" on="1"/>
        <pt x="1818" y="223" on="1"/>
        <pt x="1532" y="223" on="1"/>
        <pt x="1532" y="0" on="1"/>
        <pt x="1334" y="0" on="1"/>
      </contour>
    </TTGlyph>
    <TTGlyph name="F_F_I.sc" xMin="68" yMin="0" xMax="1532" yMax="577">
      <contour>
        <pt x="68" y="577" on="1"/>
        <pt x="615" y="577" on="1"/>
        <pt x="615" y="430" on="1"/>
        <pt x="266" y="430" on="1"/>
        <pt x="266" y="327" on="1"/>
        <pt x="579" y="327" on="1"/>
        <pt x="579" y="197" on="1"/>
        <pt x="266" y="197" on="1"/>
        <pt x="266" y="0" on="1"/>
        <pt x="68" y="0" on="1"/>
      </contour>
      <contour>
        <pt x="701" y="577" on="1"/>
        <pt x="1248" y="577" on="1"/>
        <pt x="1248" y="430" on="1"/>
        <pt x="899" y="430" on="1"/>
        <pt x="899" y="327" on="1"/>
        <pt x="1212" y="327" on="1"/>
        <pt x="1212" y="197" on="1"/>
        <pt x="899" y="197" on="1"/>
        <pt x="899" y="0" on="1"/>
        <pt x="701" y="0" on="1"/>
      </contour>
      <contour>
        <pt x="1334" y="577" on="1"/>
        <pt x="1532" y="577" on="1"/>
        <pt x="1532" y="0" on="1"/>
        <pt x="1334" y="0" on="1"/>
      </contour>
    </TTGlyph>
    <TTGlyph name="F_F_J.sc" xMin="68" yMin="-175" xMax="1542" yMax="577">
      <contour>
        <pt x="68" y="577" on="1"/>
        <pt x="615" y="577" on="1"/>
        <pt x="615" y="430" on="1"/>
        <pt x="266" y="430" on="1"/>
        <pt x="266" y="327" on="1"/>
        <pt x="579" y="327" on="1"/>
        <pt x="579" y="197" on="1"/>
        <pt x="266" y="197" on="1"/>
        <pt x="266" y="0" on="1"/>
        <pt x="68" y="0" on="1"/>
      </contour>
      <contour>
        <pt x="701" y="577" on="1"/>
        <pt x="1248" y="577" on="1"/>
        <pt x="1248" y="430" on="1"/>
        <pt x="899" y="430" on="1"/>
        <pt x="899" y="327" on="1"/>
        <pt x="1212" y="327" on="1"/>
        <pt x="1212" y="197" on="1"/>
        <pt x="899" y="197" on="1"/>
        <pt x="899" y="0" on="1"/>
        <pt x="701" y="0" on="1"/>
      </contour>
      <contour>
        <pt x="1277" y="-122" on="1"/>
        <pt x="1296" y="-82" on="0"/>
        <pt x="1322" y="-14" on="0"/>
        <pt x="1337" y="51" on="0"/>
        <pt x="1344" y="119" on="0"/>
        <pt x="1344" y="159" on="1"/>
        <pt x="1344" y="577" on="1"/>
        <pt x="1542" y="577" on="1"/>
        <pt x="1542" y="144" on="1"/>
        <pt x="1542" y="102" on="0"/>
        <pt x="1528" y="27" on="0"/>
        <pt x="1495" y="-48" on="0"/>
        <pt x="1442" y="-129" on="0"/>
        <pt x="1403" y="-175" on="1"/>
      </contour>
    </TTGlyph>
    <TTGlyph name="F_F_K.sc" xMin="68" yMin="0" xMax="2005" yMax="577">
      <contour>
        <pt x="68" y="577" on="1"/>
        <pt x="615" y="577" on="1"/>
        <pt x="615" y="430" on="1"/>
        <pt x="266" y="430" on="1"/>
        <pt x="266" y="327" on="1"/>
        <pt x="579" y="327" on="1"/>
        <pt x="579" y="197" on="1"/>
        <pt x="266" y="197" on="1"/>
        <pt x="266" y="0" on="1"/>
        <pt x="68" y="0" on="1"/>
      </contour>
      <contour>
        <pt x="701" y="577" on="1"/>
        <pt x="1248" y="577" on="1"/>
        <pt x="1248" y="430" on="1"/>
        <pt x="899" y="430" on="1"/>
        <pt x="899" y="327" on="1"/>
        <pt x="1212" y="327" on="1"/>
        <pt x="1212" y="197" on="1"/>
        <pt x="899" y="197" on="1"/>
        <pt x="899" y="0" on="1"/>
        <pt x="701" y="0" on="1"/>
      </contour>
      <contour>
        <pt x="1334" y="577" on="1"/>
        <pt x="1532" y="577" on="1"/>
        <pt x="1532" y="361" on="1"/>
        <pt x="1618" y="361" on="1"/>
        <pt x="1769" y="577" on="1"/>
        <pt x="1990" y="577" on="1"/>
        <pt x="1803" y="330" on="1"/>
        <pt x="1753" y="309" on="1"/>
        <pt x="1753" y="302" on="1"/>
        <pt x="1805" y="279" on="1"/>
        <pt x="2005" y="0" on="1"/>
        <pt x="1784" y="0" on="1"/>
        <pt x="1637" y="214" on="1"/>
        <pt x="1532" y="214" on="1"/>
        <pt x="1532" y="0" on="1"/>
        <pt x="1334" y="0" on="1"/>
      </contour>
    </TTGlyph>
    <TTGlyph name="F_F_L.sc" xMin="68" yMin="0" xMax="1837" yMax="577">
      <contour>
        <pt x="1334" y="577" on="1"/>
        <pt x="1532" y="577" on="1"/>
        <pt x="1532" y="147" on="1"/>
        <pt x="1837" y="147" on="1"/>
        <pt x="1837" y="0" on="1"/>
        <pt x="1334" y="0" on="1"/>
      </contour>
      <contour>
        <pt x="68" y="577" on="1"/>
        <pt x="615" y="577" on="1"/>
        <pt x="615" y="430" on="1"/>
        <pt x="266" y="430" on="1"/>
        <pt x="266" y="327" on="1"/>
        <pt x="579" y="327" on="1"/>
        <pt x="579" y="197" on="1"/>
        <pt x="266" y="197" on="1"/>
        <pt x="266" y="0" on="1"/>
        <pt x="68" y="0" on="1"/>
      </contour>
      <contour>
        <pt x="701" y="577" on="1"/>
        <pt x="1248" y="577" on="1"/>
        <pt x="1248" y="430" on="1"/>
        <pt x="899" y="430" on="1"/>
        <pt x="899" y="327" on="1"/>
        <pt x="1212" y="327" on="1"/>
        <pt x="1212" y="197" on="1"/>
        <pt x="899" y="197" on="1"/>
        <pt x="899" y="0" on="1"/>
        <pt x="701" y="0" on="1"/>
      </contour>
    </TTGlyph>
    <TTGlyph name="F_F_T.sc" xMin="68" yMin="0" xMax="1859" yMax="577">
      <contour>
        <pt x="1462" y="430" on="1"/>
        <pt x="1265" y="430" on="1"/>
        <pt x="1265" y="577" on="1"/>
        <pt x="1859" y="577" on="1"/>
        <pt x="1859" y="430" on="1"/>
        <pt x="1660" y="430" on="1"/>
        <pt x="1660" y="0" on="1"/>
        <pt x="1462" y="0" on="1"/>
      </contour>
      <contour>
        <pt x="68" y="577" on="1"/>
        <pt x="615" y="577" on="1"/>
        <pt x="615" y="430" on="1"/>
        <pt x="266" y="430" on="1"/>
        <pt x="266" y="327" on="1"/>
        <pt x="579" y="327" on="1"/>
        <pt x="579" y="197" on="1"/>
        <pt x="266" y="197" on="1"/>
        <pt x="266" y="0" on="1"/>
        <pt x="68" y="0" on="1"/>
      </contour>
      <contour>
        <pt x="701" y="577" on="1"/>
        <pt x="1248" y="577" on="1"/>
        <pt x="1248" y="430" on="1"/>
        <pt x="899" y="430" on="1"/>
        <pt x="899" y="327" on="1"/>
        <pt x="1212" y="327" on="1"/>
        <pt x="1212" y="197" on="1"/>
        <pt x="899" y="197" on="1"/>
        <pt x="899" y="0" on="1"/>
        <pt x="701" y="0" on="1"/>
      </contour>
    </TTGlyph>
    <TTGlyph name="F_H.sc" xMin="68" yMin="0" xMax="1383" yMax="577">
      <contour>
        <pt x="68" y="577" on="1"/>
        <pt x="615" y="577" on="1"/>
        <pt x="615" y="430" on="1"/>
        <pt x="266" y="430" on="1"/>
        <pt x="266" y="327" on="1"/>
        <pt x="579" y="327" on="1"/>
        <pt x="579" y="197" on="1"/>
        <pt x="266" y="197" on="1"/>
        <pt x="266" y="0" on="1"/>
        <pt x="68" y="0" on="1"/>
      </contour>
      <contour>
        <pt x="701" y="577" on="1"/>
        <pt x="899" y="577" on="1"/>
        <pt x="899" y="370" on="1"/>
        <pt x="1185" y="370" on="1"/>
        <pt x="1185" y="577" on="1"/>
        <pt x="1383" y="577" on="1"/>
        <pt x="1383" y="0" on="1"/>
        <pt x="1185" y="0" on="1"/>
        <pt x="1185" y="223" on="1"/>
        <pt x="899" y="223" on="1"/>
        <pt x="899" y="0" on="1"/>
        <pt x="701" y="0" on="1"/>
      </contour>
    </TTGlyph>
    <TTGlyph name="F_I.sc" xMin="68" yMin="0" xMax="899" yMax="577">
      <contour>
        <pt x="68" y="577" on="1"/>
        <pt x="615" y="577" on="1"/>
        <pt x="615" y="430" on="1"/>
        <pt x="266" y="430" on="1"/>
        <pt x="266" y="327" on="1"/>
        <pt x="579" y="327" on="1"/>
        <pt x="579" y="197" on="1"/>
        <pt x="266" y="197" on="1"/>
        <pt x="266" y="0" on="1"/>
        <pt x="68" y="0" on="1"/>
      </contour>
      <contour>
        <pt x="701" y="577" on="1"/>
        <pt x="899" y="577" on="1"/>
        <pt x="899" y="0" on="1"/>
        <pt x="701" y="0" on="1"/>
      </contour>
    </TTGlyph>
    <TTGlyph name="F_J.sc" xMin="68" yMin="-175" xMax="908" yMax="577">
      <contour>
        <pt x="68" y="577" on="1"/>
        <pt x="615" y="577" on="1"/>
        <pt x="615" y="430" on="1"/>
        <pt x="266" y="430" on="1"/>
        <pt x="266" y="327" on="1"/>
        <pt x="579" y="327" on="1"/>
        <pt x="579" y="197" on="1"/>
        <pt x="266" y="197" on="1"/>
        <pt x="266" y="0" on="1"/>
        <pt x="68" y="0" on="1"/>
      </contour>
      <contour>
        <pt x="643" y="-122" on="1"/>
        <pt x="662" y="-82" on="0"/>
        <pt x="688" y="-14" on="0"/>
        <pt x="703" y="51" on="0"/>
        <pt x="710" y="119" on="0"/>
        <pt x="710" y="159" on="1"/>
        <pt x="710" y="577" on="1"/>
        <pt x="908" y="577" on="1"/>
        <pt x="908" y="144" on="1"/>
        <pt x="908" y="102" on="0"/>
        <pt x="894" y="27" on="0"/>
        <pt x="861" y="-48" on="0"/>
        <pt x="808" y="-129" on="0"/>
        <pt x="769" y="-175" on="1"/>
      </contour>
    </TTGlyph>
    <TTGlyph name="F_K.sc" xMin="68" yMin="0" xMax="1372" yMax="577">
      <contour>
        <pt x="68" y="577" on="1"/>
        <pt x="615" y="577" on="1"/>
        <pt x="615" y="430" on="1"/>
        <pt x="266" y="430" on="1"/>
        <pt x="266" y="327" on="1"/>
        <pt x="579" y="327" on="1"/>
        <pt x="579" y="197" on="1"/>
        <pt x="266" y="197" on="1"/>
        <pt x="266" y="0" on="1"/>
        <pt x="68" y="0" on="1"/>
      </contour>
      <contour>
        <pt x="701" y="577" on="1"/>
        <pt x="899" y="577" on="1"/>
        <pt x="899" y="361" on="1"/>
        <pt x="985" y="361" on="1"/>
        <pt x="1136" y="577" on="1"/>
        <pt x="1357" y="577" on="1"/>
        <pt x="1170" y="330" on="1"/>
        <pt x="1120" y="309" on="1"/>
        <pt x="1120" y="302" on="1"/>
        <pt x="1172" y="279" on="1"/>
        <pt x="1372" y="0" on="1"/>
        <pt x="1151" y="0" on="1"/>
        <pt x="1004" y="214" on="1"/>
        <pt x="899" y="214" on="1"/>
        <pt x="899" y="0" on="1"/>
        <pt x="701" y="0" on="1"/>
      </contour>
    </TTGlyph>
    <TTGlyph name="F_L.sc" xMin="68" yMin="0" xMax="1204" yMax="577">
      <contour>
        <pt x="701" y="577" on="1"/>
        <pt x="899" y="577" on="1"/>
        <pt x="899" y="147" on="1"/>
        <pt x="1204" y="147" on="1"/>
        <pt x="1204" y="0" on="1"/>
        <pt x="701" y="0" on="1"/>
      </contour>
      <contour>
        <pt x="68" y="577" on="1"/>
        <pt x="615" y="577" on="1"/>
        <pt x="615" y="430" on="1"/>
        <pt x="266" y="430" on="1"/>
        <pt x="266" y="327" on="1"/>
        <pt x="579" y="327" on="1"/>
        <pt x="579" y="197" on="1"/>
        <pt x="266" y="197" on="1"/>
        <pt x="266" y="0" on="1"/>
        <pt x="68" y="0" on="1"/>
      </contour>
    </TTGlyph>
    <TTGlyph name="F_T.sc" xMin="68" yMin="0" xMax="1226" yMax="577">
      <contour>
        <pt x="829" y="430" on="1"/>
        <pt x="632" y="430" on="1"/>
        <pt x="632" y="577" on="1"/>
        <pt x="1226" y="577" on="1"/>
        <pt x="1226" y="430" on="1"/>
        <pt x="1027" y="430" on="1"/>
        <pt x="1027" y="0" on="1"/>
        <pt x="829" y="0" on="1"/>
      </contour>
      <contour>
        <pt x="68" y="577" on="1"/>
        <pt x="615" y="577" on="1"/>
        <pt x="615" y="430" on="1"/>
        <pt x="266" y="430" on="1"/>
        <pt x="266" y="327" on="1"/>
        <pt x="579" y="327" on="1"/>
        <pt x="579" y="197" on="1"/>
        <pt x="266" y="197" on="1"/>
        <pt x="266" y="0" on="1"/>
        <pt x="68" y="0" on="1"/>
      </contour>
    </TTGlyph>
    <TTGlyph name="G" xMin="36" yMin="-14" xMax="706" yMax="754">
      <contour>
        <pt x="447" y="-14" on="1"/>
        <pt x="238" y="-14" on="0"/>
        <pt x="36" y="174" on="0"/>
        <pt x="36" y="369" on="1"/>
        <pt x="36" y="754" on="0"/>
        <pt x="458" y="754" on="1"/>
        <pt x="488" y="754" on="0"/>
        <pt x="553" y="750" on="0"/>
        <pt x="616" y="744" on="0"/>
        <pt x="673" y="735" on="0"/>
        <pt x="696" y="730" on="1"/>
        <pt x="696" y="564" on="1"/>
        <pt x="624" y="575" on="0"/>
        <pt x="512" y="586" on="0"/>
        <pt x="474" y="586" on="1"/>
        <pt x="406" y="586" on="0"/>
        <pt x="320" y="567" on="0"/>
        <pt x="270" y="518" on="0"/>
        <pt x="251" y="434" on="0"/>
        <pt x="251" y="369" on="1"/>
        <pt x="251" y="306" on="0"/>
        <pt x="269" y="223" on="0"/>
        <pt x="314" y="174" on="0"/>
        <pt x="390" y="155" on="0"/>
        <pt x="449" y="155" on="1"/>
        <pt x="463" y="155" on="0"/>
        <pt x="496" y="155" on="0"/>
        <pt x="514" y="157" on="1"/>
        <pt x="514" y="376" on="1"/>
        <pt x="706" y="376" on="1"/>
        <pt x="706" y="30" on="1"/>
        <pt x="677" y="21" on="0"/>
        <pt x="608" y="5" on="0"/>
        <pt x="539" y="-7" on="0"/>
        <pt x="474" y="-14" on="0"/>
      </contour>
    </TTGlyph>
    <TTGlyph name="G.sc" xMin="36" yMin="-13" xMax="652" yMax="589">
      <contour>
        <pt x="414" y="-13" on="1"/>
        <pt x="220" y="-13" on="0"/>
        <pt x="36" y="133" on="0"/>
        <pt x="36" y="288" on="1"/>
        <pt x="36" y="441" on="0"/>
        <pt x="226" y="589" on="0"/>
        <pt x="422" y="589" on="1"/>
        <pt x="449" y="589" on="0"/>
        <pt x="509" y="586" on="0"/>
        <pt x="568" y="581" on="0"/>
        <pt x="622" y="575" on="0"/>
        <pt x="642" y="571" on="1"/>
        <pt x="642" y="419" on="1"/>
        <pt x="575" y="424" on="0"/>
        <pt x="472" y="431" on="0"/>
        <pt x="437" y="431" on="1"/>
        <pt x="373" y="431" on="0"/>
        <pt x="296" y="420" on="0"/>
        <pt x="254" y="389" on="0"/>
        <pt x="240" y="333" on="0"/>
        <pt x="240" y="288" on="1"/>
        <pt x="240" y="244" on="0"/>
        <pt x="253" y="189" on="0"/>
        <pt x="291" y="159" on="0"/>
        <pt x="359" y="148" on="0"/>
        <pt x="415" y="148" on="1"/>
        <pt x="417" y="148" on="0"/>
        <pt x="433" y="148" on="0"/>
        <pt x="451" y="149" on="0"/>
        <pt x="467" y="150" on="0"/>
        <pt x="469" y="150" on="1"/>
        <pt x="469" y="293" on="1"/>
        <pt x="652" y="293" on="1"/>
        <pt x="652" y="25" on="1"/>
        <pt x="625" y="17" on="0"/>
        <pt x="561" y="3" on="0"/>
        <pt x="497" y="-7" on="0"/>
        <pt x="438" y="-13" on="0"/>
      </contour>
    </TTGlyph>
    <TTGlyph name="Gacute" xMin="36" yMin="-14" xMax="706" yMax="998">
      <contour>
        <pt x="315" y="816" on="1"/>
        <pt x="379" y="998" on="1"/>
        <pt x="588" y="998" on="1"/>
        <pt x="462" y="807" on="1"/>
      </contour>
      <contour>
        <pt x="447" y="-14" on="1"/>
        <pt x="238" y="-14" on="0"/>
        <pt x="36" y="174" on="0"/>
        <pt x="36" y="369" on="1"/>
        <pt x="36" y="754" on="0"/>
        <pt x="458" y="754" on="1"/>
        <pt x="488" y="754" on="0"/>
        <pt x="553" y="750" on="0"/>
        <pt x="616" y="744" on="0"/>
        <pt x="673" y="735" on="0"/>
        <pt x="696" y="730" on="1"/>
        <pt x="696" y="564" on="1"/>
        <pt x="624" y="575" on="0"/>
        <pt x="512" y="586" on="0"/>
        <pt x="474" y="586" on="1"/>
        <pt x="406" y="586" on="0"/>
        <pt x="320" y="567" on="0"/>
        <pt x="270" y="518" on="0"/>
        <pt x="251" y="434" on="0"/>
        <pt x="251" y="369" on="1"/>
        <pt x="251" y="306" on="0"/>
        <pt x="269" y="223" on="0"/>
        <pt x="314" y="174" on="0"/>
        <pt x="390" y="155" on="0"/>
        <pt x="449" y="155" on="1"/>
        <pt x="463" y="155" on="0"/>
        <pt x="496" y="155" on="0"/>
        <pt x="514" y="157" on="1"/>
        <pt x="514" y="376" on="1"/>
        <pt x="706" y="376" on="1"/>
        <pt x="706" y="30" on="1"/>
        <pt x="677" y="21" on="0"/>
        <pt x="608" y="5" on="0"/>
        <pt x="539" y="-7" on="0"/>
        <pt x="474" y="-14" on="0"/>
      </contour>
    </TTGlyph>
    <TTGlyph name="Gacute.sc" xMin="36" yMin="-13" xMax="652" yMax="792">
      <contour>
        <pt x="414" y="-13" on="1"/>
        <pt x="221" y="-13" on="0"/>
        <pt x="36" y="133" on="0"/>
        <pt x="36" y="288" on="1"/>
        <pt x="36" y="442" on="0"/>
        <pt x="226" y="589" on="0"/>
        <pt x="422" y="589" on="1"/>
        <pt x="450" y="589" on="0"/>
        <pt x="511" y="586" on="0"/>
        <pt x="569" y="581" on="0"/>
        <pt x="622" y="575" on="0"/>
        <pt x="642" y="571" on="1"/>
        <pt x="642" y="414" on="1"/>
        <pt x="576" y="422" on="0"/>
        <pt x="472" y="431" on="0"/>
        <pt x="437" y="431" on="1"/>
        <pt x="376" y="431" on="0"/>
        <pt x="299" y="421" on="0"/>
        <pt x="256" y="391" on="0"/>
        <pt x="240" y="335" on="0"/>
        <pt x="240" y="288" on="1"/>
        <pt x="240" y="243" on="0"/>
        <pt x="255" y="188" on="0"/>
        <pt x="294" y="158" on="0"/>
        <pt x="362" y="148" on="0"/>
        <pt x="415" y="148" on="1"/>
        <pt x="417" y="148" on="0"/>
        <pt x="433" y="148" on="0"/>
        <pt x="451" y="149" on="0"/>
        <pt x="467" y="150" on="0"/>
        <pt x="469" y="150" on="1"/>
        <pt x="469" y="293" on="1"/>
        <pt x="652" y="293" on="1"/>
        <pt x="652" y="25" on="1"/>
        <pt x="626" y="17" on="0"/>
        <pt x="563" y="3" on="0"/>
        <pt x="500" y="-7" on="0"/>
        <pt x="439" y="-13" on="0"/>
      </contour>
      <contour>
        <pt x="288" y="639" on="1"/>
        <pt x="344" y="792" on="1"/>
        <pt x="542" y="792" on="1"/>
        <pt x="428" y="631" on="1"/>
      </contour>
    </TTGlyph>
    <TTGlyph name="Gbreve" xMin="36" yMin="-14" xMax="706" yMax="998">
      <contour>
        <pt x="410" y="812" on="1"/>
        <pt x="340" y="812" on="0"/>
        <pt x="247" y="841" on="0"/>
        <pt x="190" y="892" on="0"/>
        <pt x="166" y="959" on="0"/>
        <pt x="166" y="998" on="1"/>
        <pt x="300" y="998" on="1"/>
        <pt x="300" y="955" on="0"/>
        <pt x="346" y="907" on="0"/>
        <pt x="410" y="907" on="1"/>
        <pt x="474" y="907" on="0"/>
        <pt x="520" y="955" on="0"/>
        <pt x="520" y="998" on="1"/>
        <pt x="654" y="998" on="1"/>
        <pt x="654" y="958" on="0"/>
        <pt x="630" y="890" on="0"/>
        <pt x="573" y="840" on="0"/>
        <pt x="480" y="812" on="0"/>
      </contour>
      <contour>
        <pt x="447" y="-14" on="1"/>
        <pt x="238" y="-14" on="0"/>
        <pt x="36" y="174" on="0"/>
        <pt x="36" y="369" on="1"/>
        <pt x="36" y="754" on="0"/>
        <pt x="458" y="754" on="1"/>
        <pt x="488" y="754" on="0"/>
        <pt x="553" y="750" on="0"/>
        <pt x="616" y="744" on="0"/>
        <pt x="673" y="735" on="0"/>
        <pt x="696" y="730" on="1"/>
        <pt x="696" y="564" on="1"/>
        <pt x="624" y="575" on="0"/>
        <pt x="512" y="586" on="0"/>
        <pt x="474" y="586" on="1"/>
        <pt x="406" y="586" on="0"/>
        <pt x="320" y="567" on="0"/>
        <pt x="270" y="518" on="0"/>
        <pt x="251" y="434" on="0"/>
        <pt x="251" y="369" on="1"/>
        <pt x="251" y="306" on="0"/>
        <pt x="269" y="223" on="0"/>
        <pt x="314" y="174" on="0"/>
        <pt x="390" y="155" on="0"/>
        <pt x="449" y="155" on="1"/>
        <pt x="463" y="155" on="0"/>
        <pt x="496" y="155" on="0"/>
        <pt x="514" y="157" on="1"/>
        <pt x="514" y="376" on="1"/>
        <pt x="706" y="376" on="1"/>
        <pt x="706" y="30" on="1"/>
        <pt x="677" y="21" on="0"/>
        <pt x="608" y="5" on="0"/>
        <pt x="539" y="-7" on="0"/>
        <pt x="474" y="-14" on="0"/>
      </contour>
    </TTGlyph>
    <TTGlyph name="Gbreve.sc" xMin="36" yMin="-13" xMax="652" yMax="790">
      <contour>
        <pt x="414" y="-13" on="1"/>
        <pt x="221" y="-13" on="0"/>
        <pt x="36" y="133" on="0"/>
        <pt x="36" y="288" on="1"/>
        <pt x="36" y="442" on="0"/>
        <pt x="226" y="589" on="0"/>
        <pt x="422" y="589" on="1"/>
        <pt x="450" y="589" on="0"/>
        <pt x="511" y="586" on="0"/>
        <pt x="569" y="581" on="0"/>
        <pt x="622" y="575" on="0"/>
        <pt x="642" y="571" on="1"/>
        <pt x="642" y="414" on="1"/>
        <pt x="576" y="422" on="0"/>
        <pt x="472" y="431" on="0"/>
        <pt x="437" y="431" on="1"/>
        <pt x="376" y="431" on="0"/>
        <pt x="299" y="421" on="0"/>
        <pt x="256" y="391" on="0"/>
        <pt x="240" y="335" on="0"/>
        <pt x="240" y="288" on="1"/>
        <pt x="240" y="243" on="0"/>
        <pt x="255" y="188" on="0"/>
        <pt x="294" y="158" on="0"/>
        <pt x="362" y="148" on="0"/>
        <pt x="415" y="148" on="1"/>
        <pt x="417" y="148" on="0"/>
        <pt x="433" y="148" on="0"/>
        <pt x="451" y="149" on="0"/>
        <pt x="467" y="150" on="0"/>
        <pt x="469" y="150" on="1"/>
        <pt x="469" y="293" on="1"/>
        <pt x="652" y="293" on="1"/>
        <pt x="652" y="25" on="1"/>
        <pt x="626" y="17" on="0"/>
        <pt x="563" y="3" on="0"/>
        <pt x="500" y="-7" on="0"/>
        <pt x="439" y="-13" on="0"/>
      </contour>
      <contour>
        <pt x="379" y="633" on="1"/>
        <pt x="313" y="633" on="0"/>
        <pt x="226" y="658" on="0"/>
        <pt x="174" y="702" on="0"/>
        <pt x="153" y="758" on="0"/>
        <pt x="153" y="790" on="1"/>
        <pt x="279" y="790" on="1"/>
        <pt x="279" y="774" on="0"/>
        <pt x="288" y="748" on="0"/>
        <pt x="311" y="730" on="0"/>
        <pt x="350" y="721" on="0"/>
        <pt x="379" y="721" on="1"/>
        <pt x="438" y="721" on="0"/>
        <pt x="478" y="758" on="0"/>
        <pt x="478" y="790" on="1"/>
        <pt x="605" y="790" on="1"/>
        <pt x="605" y="757" on="0"/>
        <pt x="584" y="700" on="0"/>
        <pt x="532" y="657" on="0"/>
        <pt x="445" y="633" on="0"/>
      </contour>
    </TTGlyph>
    <TTGlyph name="Gcircumflex" xMin="36" yMin="-14" xMax="706" yMax="1014">
      <contour>
        <pt x="447" y="-14" on="1"/>
        <pt x="238" y="-14" on="0"/>
        <pt x="36" y="174" on="0"/>
        <pt x="36" y="369" on="1"/>
        <pt x="36" y="754" on="0"/>
        <pt x="458" y="754" on="1"/>
        <pt x="488" y="754" on="0"/>
        <pt x="553" y="750" on="0"/>
        <pt x="616" y="744" on="0"/>
        <pt x="673" y="735" on="0"/>
        <pt x="696" y="730" on="1"/>
        <pt x="696" y="564" on="1"/>
        <pt x="624" y="575" on="0"/>
        <pt x="512" y="586" on="0"/>
        <pt x="474" y="586" on="1"/>
        <pt x="406" y="586" on="0"/>
        <pt x="320" y="567" on="0"/>
        <pt x="270" y="518" on="0"/>
        <pt x="251" y="434" on="0"/>
        <pt x="251" y="369" on="1"/>
        <pt x="251" y="306" on="0"/>
        <pt x="269" y="223" on="0"/>
        <pt x="314" y="174" on="0"/>
        <pt x="390" y="155" on="0"/>
        <pt x="449" y="155" on="1"/>
        <pt x="463" y="155" on="0"/>
        <pt x="496" y="155" on="0"/>
        <pt x="514" y="157" on="1"/>
        <pt x="514" y="376" on="1"/>
        <pt x="706" y="376" on="1"/>
        <pt x="706" y="30" on="1"/>
        <pt x="677" y="21" on="0"/>
        <pt x="608" y="5" on="0"/>
        <pt x="539" y="-7" on="0"/>
        <pt x="474" y="-14" on="0"/>
      </contour>
      <contour>
        <pt x="172" y="934" on="1"/>
        <pt x="393" y="1014" on="1"/>
        <pt x="620" y="934" on="1"/>
        <pt x="620" y="800" on="1"/>
        <pt x="396" y="880" on="1"/>
        <pt x="172" y="800" on="1"/>
      </contour>
    </TTGlyph>
    <TTGlyph name="Gcircumflex.sc" xMin="36" yMin="-13" xMax="652" yMax="810">
      <contour>
        <pt x="414" y="-13" on="1"/>
        <pt x="221" y="-13" on="0"/>
        <pt x="36" y="133" on="0"/>
        <pt x="36" y="288" on="1"/>
        <pt x="36" y="442" on="0"/>
        <pt x="226" y="589" on="0"/>
        <pt x="422" y="589" on="1"/>
        <pt x="450" y="589" on="0"/>
        <pt x="511" y="586" on="0"/>
        <pt x="569" y="581" on="0"/>
        <pt x="622" y="575" on="0"/>
        <pt x="642" y="571" on="1"/>
        <pt x="642" y="414" on="1"/>
        <pt x="576" y="422" on="0"/>
        <pt x="472" y="431" on="0"/>
        <pt x="437" y="431" on="1"/>
        <pt x="376" y="431" on="0"/>
        <pt x="299" y="421" on="0"/>
        <pt x="256" y="391" on="0"/>
        <pt x="240" y="335" on="0"/>
        <pt x="240" y="288" on="1"/>
        <pt x="240" y="243" on="0"/>
        <pt x="255" y="188" on="0"/>
        <pt x="294" y="158" on="0"/>
        <pt x="362" y="148" on="0"/>
        <pt x="415" y="148" on="1"/>
        <pt x="417" y="148" on="0"/>
        <pt x="433" y="148" on="0"/>
        <pt x="451" y="149" on="0"/>
        <pt x="467" y="150" on="0"/>
        <pt x="469" y="150" on="1"/>
        <pt x="469" y="293" on="1"/>
        <pt x="652" y="293" on="1"/>
        <pt x="652" y="25" on="1"/>
        <pt x="626" y="17" on="0"/>
        <pt x="563" y="3" on="0"/>
        <pt x="500" y="-7" on="0"/>
        <pt x="439" y="-13" on="0"/>
      </contour>
      <contour>
        <pt x="157" y="744" on="1"/>
        <pt x="361" y="810" on="1"/>
        <pt x="571" y="744" on="1"/>
        <pt x="571" y="621" on="1"/>
        <pt x="364" y="685" on="1"/>
        <pt x="157" y="621" on="1"/>
      </contour>
    </TTGlyph>
    <TTGlyph name="Gcommaaccent" xMin="36" yMin="-220" xMax="706" yMax="754">
      <contour>
        <pt x="298" y="-70" on="1"/>
        <pt x="508" y="-70" on="1"/>
        <pt x="410" y="-220" on="1"/>
        <pt x="257" y="-220" on="1"/>
      </contour>
      <contour>
        <pt x="447" y="-14" on="1"/>
        <pt x="238" y="-14" on="0"/>
        <pt x="36" y="174" on="0"/>
        <pt x="36" y="369" on="1"/>
        <pt x="36" y="754" on="0"/>
        <pt x="458" y="754" on="1"/>
        <pt x="488" y="754" on="0"/>
        <pt x="553" y="750" on="0"/>
        <pt x="616" y="744" on="0"/>
        <pt x="673" y="735" on="0"/>
        <pt x="696" y="730" on="1"/>
        <pt x="696" y="564" on="1"/>
        <pt x="624" y="575" on="0"/>
        <pt x="512" y="586" on="0"/>
        <pt x="474" y="586" on="1"/>
        <pt x="406" y="586" on="0"/>
        <pt x="320" y="567" on="0"/>
        <pt x="270" y="518" on="0"/>
        <pt x="251" y="434" on="0"/>
        <pt x="251" y="369" on="1"/>
        <pt x="251" y="306" on="0"/>
        <pt x="269" y="223" on="0"/>
        <pt x="314" y="174" on="0"/>
        <pt x="390" y="155" on="0"/>
        <pt x="449" y="155" on="1"/>
        <pt x="463" y="155" on="0"/>
        <pt x="496" y="155" on="0"/>
        <pt x="514" y="157" on="1"/>
        <pt x="514" y="376" on="1"/>
        <pt x="706" y="376" on="1"/>
        <pt x="706" y="30" on="1"/>
        <pt x="677" y="21" on="0"/>
        <pt x="608" y="5" on="0"/>
        <pt x="539" y="-7" on="0"/>
        <pt x="474" y="-14" on="0"/>
      </contour>
    </TTGlyph>
    <TTGlyph name="Gcommaaccent.sc" xMin="36" yMin="-172" xMax="652" yMax="589">
      <contour>
        <pt x="414" y="-13" on="1"/>
        <pt x="221" y="-13" on="0"/>
        <pt x="36" y="133" on="0"/>
        <pt x="36" y="288" on="1"/>
        <pt x="36" y="442" on="0"/>
        <pt x="226" y="589" on="0"/>
        <pt x="422" y="589" on="1"/>
        <pt x="450" y="589" on="0"/>
        <pt x="511" y="586" on="0"/>
        <pt x="569" y="581" on="0"/>
        <pt x="622" y="575" on="0"/>
        <pt x="642" y="571" on="1"/>
        <pt x="642" y="414" on="1"/>
        <pt x="576" y="422" on="0"/>
        <pt x="472" y="431" on="0"/>
        <pt x="437" y="431" on="1"/>
        <pt x="376" y="431" on="0"/>
        <pt x="299" y="421" on="0"/>
        <pt x="256" y="391" on="0"/>
        <pt x="240" y="335" on="0"/>
        <pt x="240" y="288" on="1"/>
        <pt x="240" y="243" on="0"/>
        <pt x="255" y="188" on="0"/>
        <pt x="294" y="158" on="0"/>
        <pt x="362" y="148" on="0"/>
        <pt x="415" y="148" on="1"/>
        <pt x="417" y="148" on="0"/>
        <pt x="433" y="148" on="0"/>
        <pt x="451" y="149" on="0"/>
        <pt x="467" y="150" on="0"/>
        <pt x="469" y="150" on="1"/>
        <pt x="469" y="293" on="1"/>
        <pt x="652" y="293" on="1"/>
        <pt x="652" y="25" on="1"/>
        <pt x="626" y="17" on="0"/>
        <pt x="563" y="3" on="0"/>
        <pt x="500" y="-7" on="0"/>
        <pt x="439" y="-13" on="0"/>
      </contour>
      <contour>
        <pt x="271" y="-55" on="1"/>
        <pt x="470" y="-55" on="1"/>
        <pt x="381" y="-172" on="1"/>
        <pt x="236" y="-172" on="1"/>
      </contour>
    </TTGlyph>
    <TTGlyph name="Gdotaccent" xMin="36" yMin="-14" xMax="706" yMax="1012">
      <contour>
        <pt x="414" y="799" on="1"/>
        <pt x="354" y="799" on="0"/>
        <pt x="304" y="848" on="0"/>
        <pt x="304" y="905" on="1"/>
        <pt x="304" y="961" on="0"/>
        <pt x="354" y="1012" on="0"/>
        <pt x="414" y="1012" on="1"/>
        <pt x="475" y="1012" on="0"/>
        <pt x="524" y="959" on="0"/>
        <pt x="524" y="905" on="1"/>
        <pt x="524" y="851" on="0"/>
        <pt x="475" y="799" on="0"/>
      </contour>
      <contour>
        <pt x="447" y="-14" on="1"/>
        <pt x="238" y="-14" on="0"/>
        <pt x="36" y="174" on="0"/>
        <pt x="36" y="369" on="1"/>
        <pt x="36" y="754" on="0"/>
        <pt x="458" y="754" on="1"/>
        <pt x="488" y="754" on="0"/>
        <pt x="553" y="750" on="0"/>
        <pt x="616" y="744" on="0"/>
        <pt x="673" y="735" on="0"/>
        <pt x="696" y="730" on="1"/>
        <pt x="696" y="564" on="1"/>
        <pt x="624" y="575" on="0"/>
        <pt x="512" y="586" on="0"/>
        <pt x="474" y="586" on="1"/>
        <pt x="406" y="586" on="0"/>
        <pt x="320" y="567" on="0"/>
        <pt x="270" y="518" on="0"/>
        <pt x="251" y="434" on="0"/>
        <pt x="251" y="369" on="1"/>
        <pt x="251" y="306" on="0"/>
        <pt x="269" y="223" on="0"/>
        <pt x="314" y="174" on="0"/>
        <pt x="390" y="155" on="0"/>
        <pt x="449" y="155" on="1"/>
        <pt x="463" y="155" on="0"/>
        <pt x="496" y="155" on="0"/>
        <pt x="514" y="157" on="1"/>
        <pt x="514" y="376" on="1"/>
        <pt x="706" y="376" on="1"/>
        <pt x="706" y="30" on="1"/>
        <pt x="677" y="21" on="0"/>
        <pt x="608" y="5" on="0"/>
        <pt x="539" y="-7" on="0"/>
        <pt x="474" y="-14" on="0"/>
      </contour>
    </TTGlyph>
    <TTGlyph name="Gdotaccent.sc" xMin="36" yMin="-13" xMax="652" yMax="814">
      <contour>
        <pt x="414" y="-13" on="1"/>
        <pt x="221" y="-13" on="0"/>
        <pt x="36" y="133" on="0"/>
        <pt x="36" y="288" on="1"/>
        <pt x="36" y="442" on="0"/>
        <pt x="226" y="589" on="0"/>
        <pt x="422" y="589" on="1"/>
        <pt x="450" y="589" on="0"/>
        <pt x="511" y="586" on="0"/>
        <pt x="569" y="581" on="0"/>
        <pt x="622" y="575" on="0"/>
        <pt x="642" y="571" on="1"/>
        <pt x="642" y="414" on="1"/>
        <pt x="576" y="422" on="0"/>
        <pt x="472" y="431" on="0"/>
        <pt x="437" y="431" on="1"/>
        <pt x="376" y="431" on="0"/>
        <pt x="299" y="421" on="0"/>
        <pt x="256" y="391" on="0"/>
        <pt x="240" y="335" on="0"/>
        <pt x="240" y="288" on="1"/>
        <pt x="240" y="243" on="0"/>
        <pt x="255" y="188" on="0"/>
        <pt x="294" y="158" on="0"/>
        <pt x="362" y="148" on="0"/>
        <pt x="415" y="148" on="1"/>
        <pt x="417" y="148" on="0"/>
        <pt x="433" y="148" on="0"/>
        <pt x="451" y="149" on="0"/>
        <pt x="467" y="150" on="0"/>
        <pt x="469" y="150" on="1"/>
        <pt x="469" y="293" on="1"/>
        <pt x="652" y="293" on="1"/>
        <pt x="652" y="25" on="1"/>
        <pt x="626" y="17" on="0"/>
        <pt x="563" y="3" on="0"/>
        <pt x="500" y="-7" on="0"/>
        <pt x="439" y="-13" on="0"/>
      </contour>
      <contour>
        <pt x="383" y="617" on="1"/>
        <pt x="327" y="617" on="0"/>
        <pt x="279" y="663" on="0"/>
        <pt x="279" y="716" on="1"/>
        <pt x="279" y="767" on="0"/>
        <pt x="327" y="814" on="0"/>
        <pt x="383" y="814" on="1"/>
        <pt x="441" y="814" on="0"/>
        <pt x="486" y="765" on="0"/>
        <pt x="486" y="716" on="1"/>
        <pt x="486" y="666" on="0"/>
        <pt x="441" y="617" on="0"/>
      </contour>
    </TTGlyph>
    <TTGlyph name="H" xMin="70" yMin="0" xMax="812" yMax="740">
      <contour>
        <pt x="70" y="740" on="1"/>
        <pt x="279" y="740" on="1"/>
        <pt x="279" y="459" on="1"/>
        <pt x="603" y="459" on="1"/>
        <pt x="603" y="740" on="1"/>
        <pt x="812" y="740" on="1"/>
        <pt x="812" y="0" on="1"/>
        <pt x="603" y="0" on="1"/>
        <pt x="603" y="301" on="1"/>
        <pt x="279" y="301" on="1"/>
        <pt x="279" y="0" on="1"/>
        <pt x="70" y="0" on="1"/>
      </contour>
    </TTGlyph>
    <TTGlyph name="H.sc" xMin="68" yMin="0" xMax="750" yMax="577">
      <contour>
        <pt x="68" y="577" on="1"/>
        <pt x="266" y="577" on="1"/>
        <pt x="266" y="370" on="1"/>
        <pt x="552" y="370" on="1"/>
        <pt x="552" y="577" on="1"/>
        <pt x="750" y="577" on="1"/>
        <pt x="750" y="0" on="1"/>
        <pt x="552" y="0" on="1"/>
        <pt x="552" y="223" on="1"/>
        <pt x="266" y="223" on="1"/>
        <pt x="266" y="0" on="1"/>
        <pt x="68" y="0" on="1"/>
      </contour>
    </TTGlyph>
    <TTGlyph name="Hbar" xMin="8" yMin="0" xMax="890" yMax="740">
      <contour>
        <pt x="8" y="630" on="1"/>
        <pt x="77" y="630" on="1"/>
        <pt x="77" y="740" on="1"/>
        <pt x="286" y="740" on="1"/>
        <pt x="286" y="630" on="1"/>
        <pt x="610" y="630" on="1"/>
        <pt x="610" y="740" on="1"/>
        <pt x="819" y="740" on="1"/>
        <pt x="819" y="630" on="1"/>
        <pt x="890" y="630" on="1"/>
        <pt x="890" y="536" on="1"/>
        <pt x="819" y="536" on="1"/>
        <pt x="819" y="0" on="1"/>
        <pt x="610" y="0" on="1"/>
        <pt x="610" y="301" on="1"/>
        <pt x="286" y="301" on="1"/>
        <pt x="286" y="0" on="1"/>
        <pt x="77" y="0" on="1"/>
        <pt x="77" y="536" on="1"/>
        <pt x="8" y="536" on="1"/>
      </contour>
      <contour>
        <pt x="610" y="459" on="1"/>
        <pt x="610" y="536" on="1"/>
        <pt x="286" y="536" on="1"/>
        <pt x="286" y="459" on="1"/>
      </contour>
    </TTGlyph>
    <TTGlyph name="Hbar.sc" xMin="14" yMin="0" xMax="817" yMax="577">
      <contour>
        <pt x="14" y="501" on="1"/>
        <pt x="74" y="501" on="1"/>
        <pt x="74" y="577" on="1"/>
        <pt x="272" y="577" on="1"/>
        <pt x="272" y="501" on="1"/>
        <pt x="558" y="501" on="1"/>
        <pt x="558" y="577" on="1"/>
        <pt x="756" y="577" on="1"/>
        <pt x="756" y="501" on="1"/>
        <pt x="817" y="501" on="1"/>
        <pt x="817" y="415" on="1"/>
        <pt x="756" y="415" on="1"/>
        <pt x="756" y="0" on="1"/>
        <pt x="558" y="0" on="1"/>
        <pt x="558" y="206" on="1"/>
        <pt x="272" y="206" on="1"/>
        <pt x="272" y="0" on="1"/>
        <pt x="74" y="0" on="1"/>
        <pt x="74" y="415" on="1"/>
        <pt x="14" y="415" on="1"/>
      </contour>
      <contour>
        <pt x="558" y="353" on="1"/>
        <pt x="558" y="415" on="1"/>
        <pt x="272" y="415" on="1"/>
        <pt x="272" y="353" on="1"/>
      </contour>
    </TTGlyph>
    <TTGlyph name="Hcircumflex" xMin="70" yMin="0" xMax="812" yMax="1014">
      <contour>
        <pt x="70" y="740" on="1"/>
        <pt x="279" y="740" on="1"/>
        <pt x="279" y="459" on="1"/>
        <pt x="603" y="459" on="1"/>
        <pt x="603" y="740" on="1"/>
        <pt x="812" y="740" on="1"/>
        <pt x="812" y="0" on="1"/>
        <pt x="603" y="0" on="1"/>
        <pt x="603" y="301" on="1"/>
        <pt x="279" y="301" on="1"/>
        <pt x="279" y="0" on="1"/>
        <pt x="70" y="0" on="1"/>
      </contour>
      <contour>
        <pt x="218" y="934" on="1"/>
        <pt x="439" y="1014" on="1"/>
        <pt x="666" y="934" on="1"/>
        <pt x="666" y="800" on="1"/>
        <pt x="442" y="880" on="1"/>
        <pt x="218" y="800" on="1"/>
      </contour>
    </TTGlyph>
    <TTGlyph name="Hcircumflex.sc" xMin="68" yMin="0" xMax="750" yMax="810">
      <contour>
        <pt x="68" y="577" on="1"/>
        <pt x="266" y="577" on="1"/>
        <pt x="266" y="370" on="1"/>
        <pt x="552" y="370" on="1"/>
        <pt x="552" y="577" on="1"/>
        <pt x="750" y="577" on="1"/>
        <pt x="750" y="0" on="1"/>
        <pt x="552" y="0" on="1"/>
        <pt x="552" y="223" on="1"/>
        <pt x="266" y="223" on="1"/>
        <pt x="266" y="0" on="1"/>
        <pt x="68" y="0" on="1"/>
      </contour>
      <contour>
        <pt x="203" y="744" on="1"/>
        <pt x="408" y="810" on="1"/>
        <pt x="618" y="744" on="1"/>
        <pt x="618" y="621" on="1"/>
        <pt x="410" y="685" on="1"/>
        <pt x="203" y="621" on="1"/>
      </contour>
    </TTGlyph>
    <TTGlyph name="Hdotbelow" xMin="70" yMin="-213" xMax="812" yMax="740">
      <contour>
        <pt x="70" y="740" on="1"/>
        <pt x="279" y="740" on="1"/>
        <pt x="279" y="459" on="1"/>
        <pt x="603" y="459" on="1"/>
        <pt x="603" y="740" on="1"/>
        <pt x="812" y="740" on="1"/>
        <pt x="812" y="0" on="1"/>
        <pt x="603" y="0" on="1"/>
        <pt x="603" y="301" on="1"/>
        <pt x="279" y="301" on="1"/>
        <pt x="279" y="0" on="1"/>
        <pt x="70" y="0" on="1"/>
      </contour>
      <contour>
        <pt x="440" y="-213" on="1"/>
        <pt x="395" y="-213" on="0"/>
        <pt x="356" y="-175" on="0"/>
        <pt x="356" y="-133" on="1"/>
        <pt x="356" y="-90" on="0"/>
        <pt x="395" y="-52" on="0"/>
        <pt x="440" y="-52" on="1"/>
        <pt x="488" y="-52" on="0"/>
        <pt x="524" y="-92" on="0"/>
        <pt x="524" y="-133" on="1"/>
        <pt x="524" y="-174" on="0"/>
        <pt x="488" y="-213" on="0"/>
      </contour>
    </TTGlyph>
    <TTGlyph name="Hdotbelow.sc" xMin="68" yMin="-175" xMax="750" yMax="577">
      <contour>
        <pt x="68" y="577" on="1"/>
        <pt x="266" y="577" on="1"/>
        <pt x="266" y="370" on="1"/>
        <pt x="552" y="370" on="1"/>
        <pt x="552" y="577" on="1"/>
        <pt x="750" y="577" on="1"/>
        <pt x="750" y="0" on="1"/>
        <pt x="552" y="0" on="1"/>
        <pt x="552" y="223" on="1"/>
        <pt x="266" y="223" on="1"/>
        <pt x="266" y="0" on="1"/>
        <pt x="68" y="0" on="1"/>
      </contour>
      <contour>
        <pt x="406" y="-175" on="1"/>
        <pt x="364" y="-175" on="0"/>
        <pt x="328" y="-141" on="0"/>
        <pt x="328" y="-103" on="1"/>
        <pt x="328" y="-65" on="0"/>
        <pt x="364" y="-30" on="0"/>
        <pt x="406" y="-30" on="1"/>
        <pt x="451" y="-30" on="0"/>
        <pt x="485" y="-68" on="0"/>
        <pt x="485" y="-103" on="1"/>
        <pt x="485" y="-138" on="0"/>
        <pt x="451" y="-175" on="0"/>
      </contour>
    </TTGlyph>
    <TTGlyph name="I" xMin="70" yMin="0" xMax="279" yMax="740">
      <contour>
        <pt x="70" y="740" on="1"/>
        <pt x="279" y="740" on="1"/>
        <pt x="279" y="0" on="1"/>
        <pt x="70" y="0" on="1"/>
      </contour>
    </TTGlyph>
    <TTGlyph name="I.sc" xMin="68" yMin="0" xMax="266" yMax="577">
      <contour>
        <pt x="68" y="577" on="1"/>
        <pt x="266" y="577" on="1"/>
        <pt x="266" y="0" on="1"/>
        <pt x="68" y="0" on="1"/>
      </contour>
    </TTGlyph>
    <TTGlyph name="IJ" xMin="70" yMin="-214" xMax="630" yMax="740">
      <contour>
        <pt x="70" y="740" on="1"/>
        <pt x="279" y="740" on="1"/>
        <pt x="279" y="0" on="1"/>
        <pt x="70" y="0" on="1"/>
      </contour>
      <contour>
        <pt x="346" y="-157" on="1"/>
        <pt x="367" y="-107" on="0"/>
        <pt x="396" y="-22" on="0"/>
        <pt x="414" y="61" on="0"/>
        <pt x="421" y="147" on="0"/>
        <pt x="421" y="199" on="1"/>
        <pt x="421" y="740" on="1"/>
        <pt x="630" y="740" on="1"/>
        <pt x="630" y="183" on="1"/>
        <pt x="630" y="130" on="0"/>
        <pt x="615" y="37" on="0"/>
        <pt x="579" y="-56" on="0"/>
        <pt x="521" y="-155" on="0"/>
        <pt x="479" y="-214" on="1"/>
      </contour>
    </TTGlyph>
    <TTGlyph name="Iacute" xMin="70" yMin="0" xMax="370" yMax="998">
      <contour>
        <pt x="70" y="740" on="1"/>
        <pt x="279" y="740" on="1"/>
        <pt x="279" y="0" on="1"/>
        <pt x="70" y="0" on="1"/>
      </contour>
      <contour>
        <pt x="97" y="816" on="1"/>
        <pt x="161" y="998" on="1"/>
        <pt x="370" y="998" on="1"/>
        <pt x="244" y="807" on="1"/>
      </contour>
    </TTGlyph>
    <TTGlyph name="Iacute.sc" xMin="68" yMin="0" xMax="348" yMax="792">
      <contour>
        <pt x="68" y="577" on="1"/>
        <pt x="266" y="577" on="1"/>
        <pt x="266" y="0" on="1"/>
        <pt x="68" y="0" on="1"/>
      </contour>
      <contour>
        <pt x="93" y="639" on="1"/>
        <pt x="150" y="792" on="1"/>
        <pt x="348" y="792" on="1"/>
        <pt x="233" y="631" on="1"/>
      </contour>
    </TTGlyph>
    <TTGlyph name="Ibreve" xMin="-70" yMin="0" xMax="418" yMax="998">
      <contour>
        <pt x="70" y="740" on="1"/>
        <pt x="279" y="740" on="1"/>
        <pt x="279" y="0" on="1"/>
        <pt x="70" y="0" on="1"/>
      </contour>
      <contour>
        <pt x="174" y="812" on="1"/>
        <pt x="104" y="812" on="0"/>
        <pt x="11" y="841" on="0"/>
        <pt x="-46" y="892" on="0"/>
        <pt x="-70" y="959" on="0"/>
        <pt x="-70" y="998" on="1"/>
        <pt x="64" y="998" on="1"/>
        <pt x="64" y="955" on="0"/>
        <pt x="110" y="907" on="0"/>
        <pt x="174" y="907" on="1"/>
        <pt x="238" y="907" on="0"/>
        <pt x="284" y="955" on="0"/>
        <pt x="284" y="998" on="1"/>
        <pt x="418" y="998" on="1"/>
        <pt x="418" y="958" on="0"/>
        <pt x="394" y="890" on="0"/>
        <pt x="337" y="840" on="0"/>
        <pt x="244" y="812" on="0"/>
      </contour>
    </TTGlyph>
    <TTGlyph name="Ibreve.sc" xMin="-60" yMin="0" xMax="392" yMax="790">
      <contour>
        <pt x="68" y="577" on="1"/>
        <pt x="266" y="577" on="1"/>
        <pt x="266" y="0" on="1"/>
        <pt x="68" y="0" on="1"/>
      </contour>
      <contour>
        <pt x="166" y="633" on="1"/>
        <pt x="100" y="633" on="0"/>
        <pt x="13" y="658" on="0"/>
        <pt x="-39" y="702" on="0"/>
        <pt x="-60" y="758" on="0"/>
        <pt x="-60" y="790" on="1"/>
        <pt x="67" y="790" on="1"/>
        <pt x="67" y="774" on="0"/>
        <pt x="76" y="748" on="0"/>
        <pt x="98" y="730" on="0"/>
        <pt x="137" y="721" on="0"/>
        <pt x="166" y="721" on="1"/>
        <pt x="226" y="721" on="0"/>
        <pt x="266" y="758" on="0"/>
        <pt x="266" y="790" on="1"/>
        <pt x="392" y="790" on="1"/>
        <pt x="392" y="757" on="0"/>
        <pt x="371" y="700" on="0"/>
        <pt x="319" y="657" on="0"/>
        <pt x="232" y="633" on="0"/>
      </contour>
    </TTGlyph>
    <TTGlyph name="Icircumflex" xMin="-46" yMin="0" xMax="402" yMax="1014">
      <contour>
        <pt x="70" y="740" on="1"/>
        <pt x="279" y="740" on="1"/>
        <pt x="279" y="0" on="1"/>
        <pt x="70" y="0" on="1"/>
      </contour>
      <contour>
        <pt x="-46" y="934" on="1"/>
        <pt x="175" y="1014" on="1"/>
        <pt x="402" y="934" on="1"/>
        <pt x="402" y="800" on="1"/>
        <pt x="178" y="880" on="1"/>
        <pt x="-46" y="800" on="1"/>
      </contour>
    </TTGlyph>
    <TTGlyph name="Icircumflex.sc" xMin="-37" yMin="0" xMax="377" yMax="810">
      <contour>
        <pt x="68" y="577" on="1"/>
        <pt x="266" y="577" on="1"/>
        <pt x="266" y="0" on="1"/>
        <pt x="68" y="0" on="1"/>
      </contour>
      <contour>
        <pt x="-37" y="744" on="1"/>
        <pt x="167" y="810" on="1"/>
        <pt x="377" y="744" on="1"/>
        <pt x="377" y="621" on="1"/>
        <pt x="170" y="685" on="1"/>
        <pt x="-37" y="621" on="1"/>
      </contour>
    </TTGlyph>
    <TTGlyph name="Idblgrave" xMin="-125" yMin="0" xMax="380" yMax="996">
      <contour>
        <pt x="70" y="740" on="1"/>
        <pt x="279" y="740" on="1"/>
        <pt x="279" y="0" on="1"/>
        <pt x="70" y="0" on="1"/>
      </contour>
      <contour>
        <pt x="2" y="805" on="1"/>
        <pt x="-125" y="996" on="1"/>
        <pt x="81" y="996" on="1"/>
        <pt x="144" y="816" on="1"/>
      </contour>
      <contour>
        <pt x="237" y="805" on="1"/>
        <pt x="110" y="996" on="1"/>
        <pt x="316" y="996" on="1"/>
        <pt x="380" y="816" on="1"/>
      </contour>
    </TTGlyph>
    <TTGlyph name="Idblgrave.sc" xMin="-112" yMin="0" xMax="361" yMax="793">
      <contour>
        <pt x="68" y="577" on="1"/>
        <pt x="266" y="577" on="1"/>
        <pt x="266" y="0" on="1"/>
        <pt x="68" y="0" on="1"/>
      </contour>
      <contour>
        <pt x="4" y="631" on="1"/>
        <pt x="-112" y="793" on="1"/>
        <pt x="85" y="793" on="1"/>
        <pt x="141" y="639" on="1"/>
      </contour>
      <contour>
        <pt x="223" y="631" on="1"/>
        <pt x="108" y="793" on="1"/>
        <pt x="304" y="793" on="1"/>
        <pt x="361" y="639" on="1"/>
      </contour>
    </TTGlyph>
    <TTGlyph name="Idieresis" xMin="-88" yMin="0" xMax="445" yMax="1013">
      <contour>
        <pt x="70" y="740" on="1"/>
        <pt x="279" y="740" on="1"/>
        <pt x="279" y="0" on="1"/>
        <pt x="70" y="0" on="1"/>
      </contour>
      <contour>
        <pt x="22" y="799" on="1"/>
        <pt x="-38" y="799" on="0"/>
        <pt x="-88" y="849" on="0"/>
        <pt x="-88" y="906" on="1"/>
        <pt x="-88" y="962" on="0"/>
        <pt x="-38" y="1013" on="0"/>
        <pt x="22" y="1013" on="1"/>
        <pt x="83" y="1013" on="0"/>
        <pt x="132" y="960" on="0"/>
        <pt x="132" y="906" on="1"/>
        <pt x="132" y="852" on="0"/>
        <pt x="83" y="799" on="0"/>
      </contour>
      <contour>
        <pt x="336" y="799" on="1"/>
        <pt x="276" y="799" on="0"/>
        <pt x="227" y="849" on="0"/>
        <pt x="227" y="906" on="1"/>
        <pt x="227" y="962" on="0"/>
        <pt x="276" y="1013" on="0"/>
        <pt x="336" y="1013" on="1"/>
        <pt x="396" y="1013" on="0"/>
        <pt x="445" y="960" on="0"/>
        <pt x="445" y="906" on="1"/>
        <pt x="445" y="852" on="0"/>
        <pt x="396" y="799" on="0"/>
      </contour>
    </TTGlyph>
    <TTGlyph name="Idieresis.sc" xMin="-76" yMin="0" xMax="418" yMax="814">
      <contour>
        <pt x="68" y="577" on="1"/>
        <pt x="266" y="577" on="1"/>
        <pt x="266" y="0" on="1"/>
        <pt x="68" y="0" on="1"/>
      </contour>
      <contour>
        <pt x="28" y="617" on="1"/>
        <pt x="-28" y="617" on="0"/>
        <pt x="-76" y="663" on="0"/>
        <pt x="-76" y="716" on="1"/>
        <pt x="-76" y="767" on="0"/>
        <pt x="-28" y="814" on="0"/>
        <pt x="28" y="814" on="1"/>
        <pt x="86" y="814" on="0"/>
        <pt x="131" y="765" on="0"/>
        <pt x="131" y="716" on="1"/>
        <pt x="131" y="665" on="0"/>
        <pt x="86" y="617" on="0"/>
      </contour>
      <contour>
        <pt x="314" y="617" on="1"/>
        <pt x="258" y="617" on="0"/>
        <pt x="212" y="663" on="0"/>
        <pt x="212" y="716" on="1"/>
        <pt x="212" y="767" on="0"/>
        <pt x="258" y="814" on="0"/>
        <pt x="314" y="814" on="1"/>
        <pt x="371" y="814" on="0"/>
        <pt x="418" y="765" on="0"/>
        <pt x="418" y="716" on="1"/>
        <pt x="418" y="665" on="0"/>
        <pt x="371" y="617" on="0"/>
      </contour>
    </TTGlyph>
    <TTGlyph name="Idotaccent" xMin="66" yMin="0" xMax="286" yMax="1012">
      <contour>
        <pt x="70" y="740" on="1"/>
        <pt x="279" y="740" on="1"/>
        <pt x="279" y="0" on="1"/>
        <pt x="70" y="0" on="1"/>
      </contour>
      <contour>
        <pt x="176" y="799" on="1"/>
        <pt x="116" y="799" on="0"/>
        <pt x="66" y="848" on="0"/>
        <pt x="66" y="905" on="1"/>
        <pt x="66" y="961" on="0"/>
        <pt x="116" y="1012" on="0"/>
        <pt x="176" y="1012" on="1"/>
        <pt x="237" y="1012" on="0"/>
        <pt x="286" y="959" on="0"/>
        <pt x="286" y="905" on="1"/>
        <pt x="286" y="851" on="0"/>
        <pt x="237" y="799" on="0"/>
      </contour>
    </TTGlyph>
    <TTGlyph name="Idotaccent.sc" xMin="64" yMin="0" xMax="271" yMax="814">
      <contour>
        <pt x="68" y="577" on="1"/>
        <pt x="266" y="577" on="1"/>
        <pt x="266" y="0" on="1"/>
        <pt x="68" y="0" on="1"/>
      </contour>
      <contour>
        <pt x="168" y="617" on="1"/>
        <pt x="112" y="617" on="0"/>
        <pt x="64" y="663" on="0"/>
        <pt x="64" y="716" on="1"/>
        <pt x="64" y="767" on="0"/>
        <pt x="112" y="814" on="0"/>
        <pt x="168" y="814" on="1"/>
        <pt x="226" y="814" on="0"/>
        <pt x="271" y="765" on="0"/>
        <pt x="271" y="716" on="1"/>
        <pt x="271" y="666" on="0"/>
        <pt x="226" y="617" on="0"/>
      </contour>
    </TTGlyph>
    <TTGlyph name="Idotbelow" xMin="70" yMin="-213" xMax="279" yMax="740">
      <contour>
        <pt x="70" y="740" on="1"/>
        <pt x="279" y="740" on="1"/>
        <pt x="279" y="0" on="1"/>
        <pt x="70" y="0" on="1"/>
      </contour>
      <contour>
        <pt x="175" y="-213" on="1"/>
        <pt x="130" y="-213" on="0"/>
        <pt x="91" y="-175" on="0"/>
        <pt x="91" y="-133" on="1"/>
        <pt x="91" y="-90" on="0"/>
        <pt x="130" y="-52" on="0"/>
        <pt x="175" y="-52" on="1"/>
        <pt x="223" y="-52" on="0"/>
        <pt x="259" y="-92" on="0"/>
        <pt x="259" y="-133" on="1"/>
        <pt x="259" y="-174" on="0"/>
        <pt x="223" y="-213" on="0"/>
      </contour>
    </TTGlyph>
    <TTGlyph name="Idotbelow.sc" xMin="68" yMin="-175" xMax="266" yMax="577">
      <contour>
        <pt x="68" y="577" on="1"/>
        <pt x="266" y="577" on="1"/>
        <pt x="266" y="0" on="1"/>
        <pt x="68" y="0" on="1"/>
      </contour>
      <contour>
        <pt x="167" y="-175" on="1"/>
        <pt x="125" y="-175" on="0"/>
        <pt x="89" y="-141" on="0"/>
        <pt x="89" y="-103" on="1"/>
        <pt x="89" y="-65" on="0"/>
        <pt x="125" y="-30" on="0"/>
        <pt x="167" y="-30" on="1"/>
        <pt x="212" y="-30" on="0"/>
        <pt x="246" y="-68" on="0"/>
        <pt x="246" y="-103" on="1"/>
        <pt x="246" y="-138" on="0"/>
        <pt x="212" y="-175" on="0"/>
      </contour>
    </TTGlyph>
    <TTGlyph name="Igrave" xMin="-6" yMin="0" xMax="279" yMax="998">
      <contour>
        <pt x="70" y="740" on="1"/>
        <pt x="279" y="740" on="1"/>
        <pt x="279" y="0" on="1"/>
        <pt x="70" y="0" on="1"/>
      </contour>
      <contour>
        <pt x="121" y="807" on="1"/>
        <pt x="-6" y="998" on="1"/>
        <pt x="204" y="998" on="1"/>
        <pt x="268" y="817" on="1"/>
      </contour>
    </TTGlyph>
    <TTGlyph name="Igrave.sc" xMin="1" yMin="0" xMax="266" yMax="792">
      <contour>
        <pt x="68" y="577" on="1"/>
        <pt x="266" y="577" on="1"/>
        <pt x="266" y="0" on="1"/>
        <pt x="68" y="0" on="1"/>
      </contour>
      <contour>
        <pt x="117" y="631" on="1"/>
        <pt x="1" y="792" on="1"/>
        <pt x="200" y="792" on="1"/>
        <pt x="256" y="638" on="1"/>
      </contour>
    </TTGlyph>
    <TTGlyph name="Iinvertedbreve" xMin="-65" yMin="0" xMax="423" yMax="1007">
      <contour>
        <pt x="70" y="740" on="1"/>
        <pt x="279" y="740" on="1"/>
        <pt x="279" y="0" on="1"/>
        <pt x="70" y="0" on="1"/>
      </contour>
      <contour>
        <pt x="289" y="820" on="1"/>
        <pt x="289" y="863" on="0"/>
        <pt x="243" y="911" on="0"/>
        <pt x="179" y="911" on="1"/>
        <pt x="115" y="911" on="0"/>
        <pt x="69" y="863" on="0"/>
        <pt x="69" y="820" on="1"/>
        <pt x="-65" y="820" on="1"/>
        <pt x="-65" y="859" on="0"/>
        <pt x="-41" y="927" on="0"/>
        <pt x="16" y="978" on="0"/>
        <pt x="109" y="1007" on="0"/>
        <pt x="179" y="1007" on="1"/>
        <pt x="248" y="1007" on="0"/>
        <pt x="342" y="979" on="0"/>
        <pt x="399" y="929" on="0"/>
        <pt x="423" y="860" on="0"/>
        <pt x="423" y="820" on="1"/>
      </contour>
    </TTGlyph>
    <TTGlyph name="Iinvertedbreve.sc" xMin="-56" yMin="0" xMax="396" yMax="798">
      <contour>
        <pt x="68" y="577" on="1"/>
        <pt x="266" y="577" on="1"/>
        <pt x="266" y="0" on="1"/>
        <pt x="68" y="0" on="1"/>
      </contour>
      <contour>
        <pt x="271" y="642" on="1"/>
        <pt x="271" y="673" on="0"/>
        <pt x="230" y="710" on="0"/>
        <pt x="171" y="710" on="1"/>
        <pt x="112" y="710" on="0"/>
        <pt x="71" y="673" on="0"/>
        <pt x="71" y="642" on="1"/>
        <pt x="-56" y="642" on="1"/>
        <pt x="-56" y="673" on="0"/>
        <pt x="-34" y="730" on="0"/>
        <pt x="18" y="773" on="0"/>
        <pt x="105" y="798" on="0"/>
        <pt x="171" y="798" on="1"/>
        <pt x="236" y="798" on="0"/>
        <pt x="323" y="774" on="0"/>
        <pt x="375" y="732" on="0"/>
        <pt x="396" y="675" on="0"/>
        <pt x="396" y="642" on="1"/>
      </contour>
    </TTGlyph>
    <TTGlyph name="Imacron" xMin="-40" yMin="0" xMax="404" yMax="976">
      <contour>
        <pt x="70" y="740" on="1"/>
        <pt x="279" y="740" on="1"/>
        <pt x="279" y="0" on="1"/>
        <pt x="70" y="0" on="1"/>
      </contour>
      <contour>
        <pt x="-40" y="976" on="1"/>
        <pt x="404" y="976" on="1"/>
        <pt x="404" y="843" on="1"/>
        <pt x="-40" y="843" on="1"/>
      </contour>
    </TTGlyph>
    <TTGlyph name="Imacron.sc" xMin="-31" yMin="0" xMax="380" yMax="782">
      <contour>
        <pt x="68" y="577" on="1"/>
        <pt x="266" y="577" on="1"/>
        <pt x="266" y="0" on="1"/>
        <pt x="68" y="0" on="1"/>
      </contour>
      <contour>
        <pt x="-31" y="782" on="1"/>
        <pt x="380" y="782" on="1"/>
        <pt x="380" y="658" on="1"/>
        <pt x="-31" y="658" on="1"/>
      </contour>
    </TTGlyph>
    <TTGlyph name="Iogonek" xMin="24" yMin="-220" xMax="281" yMax="740">
      <contour>
        <pt x="70" y="740" on="1"/>
        <pt x="279" y="740" on="1"/>
        <pt x="279" y="-7" on="1"/>
        <pt x="208" y="-36" on="0"/>
        <pt x="154" y="-74" on="0"/>
        <pt x="154" y="-94" on="1"/>
        <pt x="154" y="-116" on="0"/>
        <pt x="183" y="-116" on="1"/>
        <pt x="189" y="-116" on="0"/>
        <pt x="212" y="-114" on="0"/>
        <pt x="239" y="-109" on="0"/>
        <pt x="268" y="-103" on="0"/>
        <pt x="281" y="-100" on="1"/>
        <pt x="281" y="-208" on="1"/>
        <pt x="240" y="-220" on="0"/>
        <pt x="187" y="-220" on="1"/>
        <pt x="109" y="-220" on="0"/>
        <pt x="24" y="-171" on="0"/>
        <pt x="24" y="-126" on="1"/>
        <pt x="24" y="-93" on="0"/>
        <pt x="72" y="-23" on="0"/>
        <pt x="112" y="0" on="1"/>
        <pt x="70" y="0" on="1"/>
      </contour>
    </TTGlyph>
    <TTGlyph name="Iogonek.sc" xMin="29" yMin="-172" xMax="267" yMax="577">
      <contour>
        <pt x="68" y="577" on="1"/>
        <pt x="266" y="577" on="1"/>
        <pt x="266" y="-2" on="1"/>
        <pt x="227" y="-16" on="0"/>
        <pt x="181" y="-34" on="0"/>
        <pt x="158" y="-48" on="0"/>
        <pt x="152" y="-58" on="0"/>
        <pt x="152" y="-62" on="1"/>
        <pt x="152" y="-72" on="0"/>
        <pt x="175" y="-72" on="1"/>
        <pt x="182" y="-72" on="0"/>
        <pt x="206" y="-71" on="0"/>
        <pt x="233" y="-68" on="0"/>
        <pt x="258" y="-65" on="0"/>
        <pt x="267" y="-63" on="1"/>
        <pt x="267" y="-162" on="1"/>
        <pt x="246" y="-168" on="0"/>
        <pt x="201" y="-172" on="0"/>
        <pt x="181" y="-172" on="1"/>
        <pt x="109" y="-172" on="0"/>
        <pt x="29" y="-129" on="0"/>
        <pt x="29" y="-94" on="1"/>
        <pt x="29" y="-64" on="0"/>
        <pt x="71" y="-12" on="0"/>
        <pt x="101" y="0" on="1"/>
        <pt x="68" y="0" on="1"/>
      </contour>
    </TTGlyph>
    <TTGlyph name="Itilde" xMin="-83" yMin="0" xMax="442" yMax="998">
      <contour>
        <pt x="70" y="740" on="1"/>
        <pt x="279" y="740" on="1"/>
        <pt x="279" y="0" on="1"/>
        <pt x="70" y="0" on="1"/>
      </contour>
      <contour>
        <pt x="-83" y="862" on="1"/>
        <pt x="-46" y="931" on="0"/>
        <pt x="49" y="998" on="0"/>
        <pt x="93" y="998" on="1"/>
        <pt x="121" y="998" on="0"/>
        <pt x="177" y="986" on="0"/>
        <pt x="231" y="973" on="0"/>
        <pt x="286" y="961" on="0"/>
        <pt x="315" y="961" on="1"/>
        <pt x="339" y="961" on="0"/>
        <pt x="387" y="975" on="0"/>
        <pt x="419" y="998" on="1"/>
        <pt x="442" y="961" on="1"/>
        <pt x="404" y="893" on="0"/>
        <pt x="307" y="825" on="0"/>
        <pt x="265" y="825" on="1"/>
        <pt x="237" y="825" on="0"/>
        <pt x="182" y="837" on="0"/>
        <pt x="126" y="850" on="0"/>
        <pt x="71" y="862" on="0"/>
        <pt x="43" y="862" on="1"/>
        <pt x="18" y="862" on="0"/>
        <pt x="-30" y="848" on="0"/>
        <pt x="-59" y="826" on="1"/>
      </contour>
    </TTGlyph>
    <TTGlyph name="Itilde.sc" xMin="-72" yMin="0" xMax="412" yMax="797">
      <contour>
        <pt x="68" y="577" on="1"/>
        <pt x="266" y="577" on="1"/>
        <pt x="266" y="0" on="1"/>
        <pt x="68" y="0" on="1"/>
      </contour>
      <contour>
        <pt x="-72" y="673" on="1"/>
        <pt x="-38" y="735" on="0"/>
        <pt x="50" y="797" on="0"/>
        <pt x="91" y="797" on="1"/>
        <pt x="117" y="797" on="0"/>
        <pt x="168" y="789" on="0"/>
        <pt x="219" y="778" on="0"/>
        <pt x="271" y="770" on="0"/>
        <pt x="297" y="770" on="1"/>
        <pt x="319" y="770" on="0"/>
        <pt x="361" y="780" on="0"/>
        <pt x="391" y="797" on="1"/>
        <pt x="412" y="766" on="1"/>
        <pt x="377" y="703" on="0"/>
        <pt x="287" y="642" on="0"/>
        <pt x="249" y="642" on="1"/>
        <pt x="223" y="642" on="0"/>
        <pt x="171" y="651" on="0"/>
        <pt x="119" y="661" on="0"/>
        <pt x="68" y="670" on="0"/>
        <pt x="42" y="670" on="1"/>
        <pt x="19" y="670" on="0"/>
        <pt x="-23" y="659" on="0"/>
        <pt x="-51" y="641" on="1"/>
      </contour>
    </TTGlyph>
    <TTGlyph name="J" xMin="-3" yMin="-214" xMax="281" yMax="740">
      <contour>
        <pt x="-3" y="-157" on="1"/>
        <pt x="18" y="-107" on="0"/>
        <pt x="47" y="-22" on="0"/>
        <pt x="65" y="61" on="0"/>
        <pt x="72" y="147" on="0"/>
        <pt x="72" y="199" on="1"/>
        <pt x="72" y="740" on="1"/>
        <pt x="281" y="740" on="1"/>
        <pt x="281" y="183" on="1"/>
        <pt x="281" y="130" on="0"/>
        <pt x="266" y="37" on="0"/>
        <pt x="230" y="-56" on="0"/>
        <pt x="172" y="-155" on="0"/>
        <pt x="130" y="-214" on="1"/>
      </contour>
    </TTGlyph>
    <TTGlyph name="J.sc" xMin="3" yMin="-175" xMax="268" yMax="577">
      <contour>
        <pt x="3" y="-122" on="1"/>
        <pt x="22" y="-82" on="0"/>
        <pt x="48" y="-14" on="0"/>
        <pt x="63" y="51" on="0"/>
        <pt x="70" y="119" on="0"/>
        <pt x="70" y="159" on="1"/>
        <pt x="70" y="577" on="1"/>
        <pt x="268" y="577" on="1"/>
        <pt x="268" y="144" on="1"/>
        <pt x="268" y="102" on="0"/>
        <pt x="254" y="27" on="0"/>
        <pt x="221" y="-48" on="0"/>
        <pt x="168" y="-129" on="0"/>
        <pt x="129" y="-175" on="1"/>
      </contour>
    </TTGlyph>
    <TTGlyph name="Jcircumflex" xMin="-45" yMin="-214" xMax="403" yMax="1014">
      <contour>
        <pt x="-3" y="-157" on="1"/>
        <pt x="18" y="-107" on="0"/>
        <pt x="47" y="-22" on="0"/>
        <pt x="65" y="61" on="0"/>
        <pt x="72" y="147" on="0"/>
        <pt x="72" y="199" on="1"/>
        <pt x="72" y="740" on="1"/>
        <pt x="281" y="740" on="1"/>
        <pt x="281" y="183" on="1"/>
        <pt x="281" y="130" on="0"/>
        <pt x="266" y="37" on="0"/>
        <pt x="230" y="-56" on="0"/>
        <pt x="172" y="-155" on="0"/>
        <pt x="130" y="-214" on="1"/>
      </contour>
      <contour>
        <pt x="-45" y="934" on="1"/>
        <pt x="176" y="1014" on="1"/>
        <pt x="403" y="934" on="1"/>
        <pt x="403" y="800" on="1"/>
        <pt x="179" y="880" on="1"/>
        <pt x="-45" y="800" on="1"/>
      </contour>
    </TTGlyph>
    <TTGlyph name="Jcircumflex.sc" xMin="-37" yMin="-175" xMax="378" yMax="810">
      <contour>
        <pt x="2" y="-122" on="1"/>
        <pt x="21" y="-82" on="0"/>
        <pt x="47" y="-14" on="0"/>
        <pt x="63" y="51" on="0"/>
        <pt x="70" y="119" on="0"/>
        <pt x="70" y="159" on="1"/>
        <pt x="70" y="577" on="1"/>
        <pt x="268" y="577" on="1"/>
        <pt x="268" y="144" on="1"/>
        <pt x="268" y="102" on="0"/>
        <pt x="253" y="27" on="0"/>
        <pt x="220" y="-48" on="0"/>
        <pt x="167" y="-129" on="0"/>
        <pt x="128" y="-175" on="1"/>
      </contour>
      <contour>
        <pt x="-37" y="744" on="1"/>
        <pt x="168" y="810" on="1"/>
        <pt x="378" y="744" on="1"/>
        <pt x="378" y="621" on="1"/>
        <pt x="170" y="685" on="1"/>
        <pt x="-37" y="621" on="1"/>
      </contour>
    </TTGlyph>
    <TTGlyph name="K" xMin="70" yMin="0" xMax="799" yMax="740">
      <contour>
        <pt x="70" y="740" on="1"/>
        <pt x="279" y="740" on="1"/>
        <pt x="279" y="450" on="1"/>
        <pt x="380" y="450" on="1"/>
        <pt x="550" y="740" on="1"/>
        <pt x="782" y="740" on="1"/>
        <pt x="574" y="419" on="1"/>
        <pt x="523" y="393" on="1"/>
        <pt x="523" y="384" on="1"/>
        <pt x="577" y="356" on="1"/>
        <pt x="799" y="0" on="1"/>
        <pt x="567" y="0" on="1"/>
        <pt x="399" y="293" on="1"/>
        <pt x="279" y="293" on="1"/>
        <pt x="279" y="0" on="1"/>
        <pt x="70" y="0" on="1"/>
      </contour>
    </TTGlyph>
    <TTGlyph name="K.sc" xMin="68" yMin="0" xMax="739" yMax="577">
      <contour>
        <pt x="68" y="577" on="1"/>
        <pt x="266" y="577" on="1"/>
        <pt x="266" y="361" on="1"/>
        <pt x="352" y="361" on="1"/>
        <pt x="503" y="577" on="1"/>
        <pt x="724" y="577" on="1"/>
        <pt x="537" y="330" on="1"/>
        <pt x="487" y="309" on="1"/>
        <pt x="487" y="302" on="1"/>
        <pt x="539" y="279" on="1"/>
        <pt x="739" y="0" on="1"/>
        <pt x="518" y="0" on="1"/>
        <pt x="371" y="214" on="1"/>
        <pt x="266" y="214" on="1"/>
        <pt x="266" y="0" on="1"/>
        <pt x="68" y="0" on="1"/>
      </contour>
    </TTGlyph>
    <TTGlyph name="Kcommaaccent" xMin="70" yMin="-220" xMax="799" yMax="740">
      <contour>
        <pt x="263" y="-70" on="1"/>
        <pt x="473" y="-70" on="1"/>
        <pt x="375" y="-220" on="1"/>
        <pt x="222" y="-220" on="1"/>
      </contour>
      <contour>
        <pt x="70" y="740" on="1"/>
        <pt x="279" y="740" on="1"/>
        <pt x="279" y="450" on="1"/>
        <pt x="380" y="450" on="1"/>
        <pt x="550" y="740" on="1"/>
        <pt x="782" y="740" on="1"/>
        <pt x="574" y="419" on="1"/>
        <pt x="523" y="393" on="1"/>
        <pt x="523" y="384" on="1"/>
        <pt x="577" y="356" on="1"/>
        <pt x="799" y="0" on="1"/>
        <pt x="567" y="0" on="1"/>
        <pt x="399" y="293" on="1"/>
        <pt x="279" y="293" on="1"/>
        <pt x="279" y="0" on="1"/>
        <pt x="70" y="0" on="1"/>
      </contour>
    </TTGlyph>
    <TTGlyph name="Kcommaaccent.sc" xMin="68" yMin="-172" xMax="739" yMax="577">
      <contour>
        <pt x="68" y="577" on="1"/>
        <pt x="266" y="577" on="1"/>
        <pt x="266" y="361" on="1"/>
        <pt x="352" y="361" on="1"/>
        <pt x="503" y="577" on="1"/>
        <pt x="724" y="577" on="1"/>
        <pt x="537" y="330" on="1"/>
        <pt x="487" y="309" on="1"/>
        <pt x="487" y="302" on="1"/>
        <pt x="539" y="279" on="1"/>
        <pt x="739" y="0" on="1"/>
        <pt x="518" y="0" on="1"/>
        <pt x="371" y="214" on="1"/>
        <pt x="266" y="214" on="1"/>
        <pt x="266" y="0" on="1"/>
        <pt x="68" y="0" on="1"/>
      </contour>
      <contour>
        <pt x="281" y="-55" on="1"/>
        <pt x="480" y="-55" on="1"/>
        <pt x="391" y="-172" on="1"/>
        <pt x="246" y="-172" on="1"/>
      </contour>
    </TTGlyph>
    <TTGlyph name="L" xMin="70" yMin="0" xMax="617" yMax="740">
      <contour>
        <pt x="70" y="740" on="1"/>
        <pt x="279" y="740" on="1"/>
        <pt x="279" y="156" on="1"/>
        <pt x="617" y="156" on="1"/>
        <pt x="617" y="0" on="1"/>
        <pt x="70" y="0" on="1"/>
      </contour>
    </TTGlyph>
    <TTGlyph name="L.sc" xMin="68" yMin="0" xMax="571" yMax="577">
      <contour>
        <pt x="68" y="577" on="1"/>
        <pt x="266" y="577" on="1"/>
        <pt x="266" y="147" on="1"/>
        <pt x="571" y="147" on="1"/>
        <pt x="571" y="0" on="1"/>
        <pt x="68" y="0" on="1"/>
      </contour>
    </TTGlyph>
    <TTGlyph name="Lacute" xMin="70" yMin="0" xMax="617" yMax="998">
      <contour>
        <pt x="104" y="816" on="1"/>
        <pt x="168" y="998" on="1"/>
        <pt x="377" y="998" on="1"/>
        <pt x="251" y="807" on="1"/>
      </contour>
      <contour>
        <pt x="70" y="740" on="1"/>
        <pt x="279" y="740" on="1"/>
        <pt x="279" y="156" on="1"/>
        <pt x="617" y="156" on="1"/>
        <pt x="617" y="0" on="1"/>
        <pt x="70" y="0" on="1"/>
      </contour>
    </TTGlyph>
    <TTGlyph name="Lacute.sc" xMin="68" yMin="0" xMax="572" yMax="792">
      <contour>
        <pt x="68" y="577" on="1"/>
        <pt x="266" y="577" on="1"/>
        <pt x="266" y="147" on="1"/>
        <pt x="572" y="147" on="1"/>
        <pt x="572" y="0" on="1"/>
        <pt x="68" y="0" on="1"/>
      </contour>
      <contour>
        <pt x="101" y="639" on="1"/>
        <pt x="157" y="792" on="1"/>
        <pt x="356" y="792" on="1"/>
        <pt x="240" y="631" on="1"/>
      </contour>
    </TTGlyph>
    <TTGlyph name="Lcaron" xMin="70" yMin="0" xMax="617" yMax="799">
      <contour>
        <pt x="424" y="799" on="1"/>
        <pt x="583" y="799" on="1"/>
        <pt x="534" y="571" on="1"/>
        <pt x="424" y="571" on="1"/>
      </contour>
      <contour>
        <pt x="70" y="740" on="1"/>
        <pt x="279" y="740" on="1"/>
        <pt x="279" y="156" on="1"/>
        <pt x="617" y="156" on="1"/>
        <pt x="617" y="0" on="1"/>
        <pt x="70" y="0" on="1"/>
      </contour>
    </TTGlyph>
    <TTGlyph name="Lcaron.sc" xMin="68" yMin="0" xMax="571" yMax="635">
      <contour>
        <pt x="68" y="577" on="1"/>
        <pt x="266" y="577" on="1"/>
        <pt x="266" y="147" on="1"/>
        <pt x="571" y="147" on="1"/>
        <pt x="571" y="0" on="1"/>
        <pt x="68" y="0" on="1"/>
      </contour>
      <contour>
        <pt x="388" y="635" on="1"/>
        <pt x="539" y="635" on="1"/>
        <pt x="493" y="457" on="1"/>
        <pt x="388" y="457" on="1"/>
      </contour>
    </TTGlyph>
    <TTGlyph name="Lcommaaccent" xMin="70" yMin="-220" xMax="617" yMax="740">
      <contour>
        <pt x="211" y="-70" on="1"/>
        <pt x="421" y="-70" on="1"/>
        <pt x="323" y="-220" on="1"/>
        <pt x="170" y="-220" on="1"/>
      </contour>
      <contour>
        <pt x="70" y="740" on="1"/>
        <pt x="279" y="740" on="1"/>
        <pt x="279" y="156" on="1"/>
        <pt x="617" y="156" on="1"/>
        <pt x="617" y="0" on="1"/>
        <pt x="70" y="0" on="1"/>
      </contour>
    </TTGlyph>
    <TTGlyph name="Lcommaaccent.sc" xMin="68" yMin="-172" xMax="571" yMax="577">
      <contour>
        <pt x="68" y="577" on="1"/>
        <pt x="266" y="577" on="1"/>
        <pt x="266" y="147" on="1"/>
        <pt x="571" y="147" on="1"/>
        <pt x="571" y="0" on="1"/>
        <pt x="68" y="0" on="1"/>
      </contour>
      <contour>
        <pt x="191" y="-55" on="1"/>
        <pt x="390" y="-55" on="1"/>
        <pt x="300" y="-172" on="1"/>
        <pt x="155" y="-172" on="1"/>
      </contour>
    </TTGlyph>
    <TTGlyph name="Ldot" xMin="70" yMin="0" xMax="630" yMax="740">
      <contour>
        <pt x="70" y="740" on="1"/>
        <pt x="279" y="740" on="1"/>
        <pt x="279" y="156" on="1"/>
        <pt x="617" y="156" on="1"/>
        <pt x="617" y="0" on="1"/>
        <pt x="70" y="0" on="1"/>
      </contour>
      <contour>
        <pt x="521" y="292" on="1"/>
        <pt x="461" y="292" on="0"/>
        <pt x="410" y="342" on="0"/>
        <pt x="410" y="399" on="1"/>
        <pt x="410" y="456" on="0"/>
        <pt x="461" y="506" on="0"/>
        <pt x="521" y="506" on="1"/>
        <pt x="581" y="506" on="0"/>
        <pt x="630" y="453" on="0"/>
        <pt x="630" y="399" on="1"/>
        <pt x="630" y="345" on="0"/>
        <pt x="581" y="292" on="0"/>
      </contour>
    </TTGlyph>
    <TTGlyph name="Ldot.sc" xMin="68" yMin="0" xMax="586" yMax="577">
      <contour>
        <pt x="68" y="577" on="1"/>
        <pt x="266" y="577" on="1"/>
        <pt x="266" y="147" on="1"/>
        <pt x="571" y="147" on="1"/>
        <pt x="571" y="0" on="1"/>
        <pt x="68" y="0" on="1"/>
      </contour>
      <contour>
        <pt x="483" y="221" on="1"/>
        <pt x="427" y="221" on="0"/>
        <pt x="379" y="267" on="0"/>
        <pt x="379" y="319" on="1"/>
        <pt x="379" y="371" on="0"/>
        <pt x="427" y="418" on="0"/>
        <pt x="483" y="418" on="1"/>
        <pt x="541" y="418" on="0"/>
        <pt x="586" y="369" on="0"/>
        <pt x="586" y="319" on="1"/>
        <pt x="586" y="269" on="0"/>
        <pt x="541" y="221" on="0"/>
      </contour>
    </TTGlyph>
    <TTGlyph name="Lslash" xMin="12" yMin="0" xMax="636" yMax="740">
      <contour>
        <pt x="12" y="373" on="1"/>
        <pt x="89" y="407" on="1"/>
        <pt x="89" y="740" on="1"/>
        <pt x="298" y="740" on="1"/>
        <pt x="298" y="501" on="1"/>
        <pt x="437" y="564" on="1"/>
        <pt x="437" y="417" on="1"/>
        <pt x="298" y="354" on="1"/>
        <pt x="298" y="156" on="1"/>
        <pt x="636" y="156" on="1"/>
        <pt x="636" y="0" on="1"/>
        <pt x="89" y="0" on="1"/>
        <pt x="89" y="260" on="1"/>
        <pt x="12" y="226" on="1"/>
      </contour>
    </TTGlyph>
    <TTGlyph name="Lslash.sc" xMin="16" yMin="0" xMax="587" yMax="577">
      <contour>
        <pt x="16" y="313" on="1"/>
        <pt x="83" y="339" on="1"/>
        <pt x="83" y="577" on="1"/>
        <pt x="281" y="577" on="1"/>
        <pt x="281" y="408" on="1"/>
        <pt x="405" y="456" on="1"/>
        <pt x="405" y="319" on="1"/>
        <pt x="281" y="271" on="1"/>
        <pt x="281" y="147" on="1"/>
        <pt x="587" y="147" on="1"/>
        <pt x="587" y="0" on="1"/>
        <pt x="83" y="0" on="1"/>
        <pt x="83" y="202" on="1"/>
        <pt x="16" y="176" on="1"/>
      </contour>
    </TTGlyph>
    <TTGlyph name="M" xMin="70" yMin="0" xMax="993" yMax="740">
      <contour>
        <pt x="70" y="740" on="1"/>
        <pt x="350" y="740" on="1"/>
        <pt x="479" y="419" on="1"/>
        <pt x="529" y="260" on="1"/>
        <pt x="535" y="260" on="1"/>
        <pt x="584" y="419" on="1"/>
        <pt x="713" y="740" on="1"/>
        <pt x="993" y="740" on="1"/>
        <pt x="993" y="0" on="1"/>
        <pt x="811" y="0" on="1"/>
        <pt x="811" y="518" on="1"/>
        <pt x="802" y="518" on="1"/>
        <pt x="727" y="291" on="1"/>
        <pt x="614" y="27" on="1"/>
        <pt x="449" y="27" on="1"/>
        <pt x="337" y="291" on="1"/>
        <pt x="261" y="518" on="1"/>
        <pt x="252" y="518" on="1"/>
        <pt x="252" y="0" on="1"/>
        <pt x="70" y="0" on="1"/>
      </contour>
    </TTGlyph>
    <TTGlyph name="M.sc" xMin="68" yMin="0" xMax="913" yMax="577">
      <contour>
        <pt x="68" y="577" on="1"/>
        <pt x="321" y="577" on="1"/>
        <pt x="434" y="361" on="1"/>
        <pt x="486" y="241" on="1"/>
        <pt x="494" y="241" on="1"/>
        <pt x="546" y="361" on="1"/>
        <pt x="660" y="577" on="1"/>
        <pt x="913" y="577" on="1"/>
        <pt x="913" y="0" on="1"/>
        <pt x="738" y="0" on="1"/>
        <pt x="738" y="376" on="1"/>
        <pt x="730" y="376" on="1"/>
        <pt x="653" y="193" on="1"/>
        <pt x="565" y="20" on="1"/>
        <pt x="415" y="20" on="1"/>
        <pt x="328" y="193" on="1"/>
        <pt x="251" y="376" on="1"/>
        <pt x="242" y="376" on="1"/>
        <pt x="242" y="0" on="1"/>
        <pt x="68" y="0" on="1"/>
      </contour>
    </TTGlyph>
    <TTGlyph name="N" xMin="70" yMin="0" xMax="801" yMax="740">
      <contour>
        <pt x="70" y="740" on="1"/>
        <pt x="233" y="740" on="1"/>
        <pt x="543" y="377" on="1"/>
        <pt x="610" y="292" on="1"/>
        <pt x="619" y="292" on="1"/>
        <pt x="619" y="740" on="1"/>
        <pt x="801" y="740" on="1"/>
        <pt x="801" y="0" on="1"/>
        <pt x="638" y="0" on="1"/>
        <pt x="339" y="350" on="1"/>
        <pt x="261" y="448" on="1"/>
        <pt x="252" y="448" on="1"/>
        <pt x="252" y="0" on="1"/>
        <pt x="70" y="0" on="1"/>
      </contour>
    </TTGlyph>
    <TTGlyph name="N.sc" xMin="68" yMin="0" xMax="711" yMax="577">
      <contour>
        <pt x="68" y="577" on="1"/>
        <pt x="217" y="577" on="1"/>
        <pt x="466" y="329" on="1"/>
        <pt x="528" y="263" on="1"/>
        <pt x="536" y="263" on="1"/>
        <pt x="536" y="577" on="1"/>
        <pt x="711" y="577" on="1"/>
        <pt x="711" y="0" on="1"/>
        <pt x="562" y="0" on="1"/>
        <pt x="324" y="233" on="1"/>
        <pt x="251" y="314" on="1"/>
        <pt x="242" y="314" on="1"/>
        <pt x="242" y="0" on="1"/>
        <pt x="68" y="0" on="1"/>
      </contour>
    </TTGlyph>
    <TTGlyph name="Nacute" xMin="70" yMin="0" xMax="801" yMax="998">
      <contour>
        <pt x="329" y="816" on="1"/>
        <pt x="393" y="998" on="1"/>
        <pt x="602" y="998" on="1"/>
        <pt x="476" y="807" on="1"/>
      </contour>
      <contour>
        <pt x="70" y="740" on="1"/>
        <pt x="233" y="740" on="1"/>
        <pt x="543" y="377" on="1"/>
        <pt x="610" y="292" on="1"/>
        <pt x="619" y="292" on="1"/>
        <pt x="619" y="740" on="1"/>
        <pt x="801" y="740" on="1"/>
        <pt x="801" y="0" on="1"/>
        <pt x="638" y="0" on="1"/>
        <pt x="339" y="350" on="1"/>
        <pt x="261" y="448" on="1"/>
        <pt x="252" y="448" on="1"/>
        <pt x="252" y="0" on="1"/>
        <pt x="70" y="0" on="1"/>
      </contour>
    </TTGlyph>
    <TTGlyph name="Nacute.sc" xMin="68" yMin="0" xMax="711" yMax="792">
      <contour>
        <pt x="68" y="577" on="1"/>
        <pt x="217" y="577" on="1"/>
        <pt x="466" y="329" on="1"/>
        <pt x="528" y="263" on="1"/>
        <pt x="536" y="263" on="1"/>
        <pt x="536" y="577" on="1"/>
        <pt x="711" y="577" on="1"/>
        <pt x="711" y="0" on="1"/>
        <pt x="562" y="0" on="1"/>
        <pt x="324" y="233" on="1"/>
        <pt x="251" y="314" on="1"/>
        <pt x="242" y="314" on="1"/>
        <pt x="242" y="0" on="1"/>
        <pt x="68" y="0" on="1"/>
      </contour>
      <contour>
        <pt x="292" y="639" on="1"/>
        <pt x="348" y="792" on="1"/>
        <pt x="547" y="792" on="1"/>
        <pt x="431" y="631" on="1"/>
      </contour>
    </TTGlyph>
    <TTGlyph name="Ncaron" xMin="70" yMin="0" xMax="801" yMax="1014">
      <contour>
        <pt x="214" y="1014" on="1"/>
        <pt x="438" y="934" on="1"/>
        <pt x="662" y="1014" on="1"/>
        <pt x="662" y="880" on="1"/>
        <pt x="435" y="800" on="1"/>
        <pt x="214" y="880" on="1"/>
      </contour>
      <contour>
        <pt x="70" y="740" on="1"/>
        <pt x="233" y="740" on="1"/>
        <pt x="543" y="377" on="1"/>
        <pt x="610" y="292" on="1"/>
        <pt x="619" y="292" on="1"/>
        <pt x="619" y="740" on="1"/>
        <pt x="801" y="740" on="1"/>
        <pt x="801" y="0" on="1"/>
        <pt x="638" y="0" on="1"/>
        <pt x="339" y="350" on="1"/>
        <pt x="261" y="448" on="1"/>
        <pt x="252" y="448" on="1"/>
        <pt x="252" y="0" on="1"/>
        <pt x="70" y="0" on="1"/>
      </contour>
    </TTGlyph>
    <TTGlyph name="Ncaron.sc" xMin="68" yMin="0" xMax="711" yMax="810">
      <contour>
        <pt x="68" y="577" on="1"/>
        <pt x="217" y="577" on="1"/>
        <pt x="466" y="329" on="1"/>
        <pt x="528" y="263" on="1"/>
        <pt x="536" y="263" on="1"/>
        <pt x="536" y="577" on="1"/>
        <pt x="711" y="577" on="1"/>
        <pt x="711" y="0" on="1"/>
        <pt x="562" y="0" on="1"/>
        <pt x="324" y="233" on="1"/>
        <pt x="251" y="314" on="1"/>
        <pt x="242" y="314" on="1"/>
        <pt x="242" y="0" on="1"/>
        <pt x="68" y="0" on="1"/>
      </contour>
      <contour>
        <pt x="184" y="686" on="1"/>
        <pt x="184" y="810" on="1"/>
        <pt x="392" y="744" on="1"/>
        <pt x="600" y="810" on="1"/>
        <pt x="600" y="686" on="1"/>
        <pt x="389" y="621" on="1"/>
      </contour>
    </TTGlyph>
</ttFont>
